SplineFontDB: 3.0
FontName: WebAtlas
FullName: WebAtlas
FamilyName: WebAtlas
Weight: Regular
Copyright: MIT License 2018, Louis MORAES.
Version: 1.0.0
ItalicAngle: 0
UnderlinePosition: -170
UnderlineWidth: 50
Ascent: 800
Descent: 200
InvalidEm: 0
sfntRevision: 0x00010000
LayerCount: 2
Layer: 0 1 "Arri+AOgA-re" 1
Layer: 1 1 "Avant" 0
XUID: [1021 206 1625637039 14079]
StyleMap: 0x0040
FSType: 8
OS2Version: 3
OS2_WeightWidthSlopeOnly: 0
OS2_UseTypoMetrics: 0
CreationTime: 1375896762
ModificationTime: 1575082699
PfmFamily: 81
TTFWeight: 400
TTFWidth: 5
LineGap: 0
VLineGap: 0
Panose: 0 0 5 0 0 0 0 0 0 0
OS2TypoAscent: 700
OS2TypoAOffset: 0
OS2TypoDescent: -201
OS2TypoDOffset: 0
OS2TypoLinegap: 299
OS2WinAscent: 999
OS2WinAOffset: 0
OS2WinDescent: 201
OS2WinDOffset: 0
HheadAscent: 999
HheadAOffset: 0
HheadDescent: -201
HheadDOffset: 0
OS2SubXSize: 650
OS2SubYSize: 600
OS2SubXOff: 0
OS2SubYOff: 75
OS2SupXSize: 650
OS2SupYSize: 600
OS2SupXOff: 0
OS2SupYOff: 350
OS2StrikeYSize: 50
OS2StrikeYPos: 292
OS2CapHeight: 690
OS2XHeight: 487
OS2Vendor: 'UKWN'
OS2CodePages: 20000097.00000000
OS2UnicodeRanges: 00002eff.00000000.00000000.00000000
Lookup: 258 0 0 "'kern' Cr+AOkA-nage horizontal dans Latin lookup 0" { "'kern' Cr+AOkA-nage horizontal dans Latin lookup 0-1" [150,15,0] } ['kern' ('DFLT' <'dflt' > 'latn' <'dflt' > ) ]
MarkAttachClasses: 1
DEI: 91125
KernClass2: 4 4 "'kern' Cr+AOkA-nage horizontal dans Latin lookup 0-1"
 3 T Y
 3 V F
 196 a c d e g m n o p q r s u v w x y z agrave aacute acircumflex adieresis egrave eacute ecircumflex edieresis ograve oacute ocircumflex odieresis ugrave uacute ucircumflex udieresis yacute ydieresis
 3 T Y
 1 V
 196 a c d e g m n o p q r s u v w x y z agrave aacute acircumflex adieresis egrave eacute ecircumflex edieresis ograve oacute ocircumflex odieresis ugrave uacute ucircumflex udieresis yacute ydieresis
 0 {} 0 {} 0 {} 0 {} 0 {} 70 {} 50 {} -80 {} 0 {} 50 {} 30 {} -40 {} 0 {} -80 {} -40 {} 0 {}
TtTable: prep
MPPEM
PUSHW_1
 200
GT
IF

StartChar: asterisk
Encoding: 42 42 3
Width: 433
VWidth: 0
GlyphClass: 2
Flags: W
LayerCount: 2
Fore
SplineSet
215.42578125 796.00390625 m 0,0,1
 216.823242188 796.069335938 216.823242188 796.069335938 218.163085938 796.069335938 c 0,2,3
 249.604492188 796.069335938 249.604492188 796.069335938 250.09375 760.196289062 c 0,4,5
 250.09375 760.11328125 250.09375 760.11328125 250.3828125 680.4296875 c 2,6,-1
 250.40234375 674.96875 l 1,7,-1
 255.150390625 676.63671875 l 2,8,9
 320.109375 697.590820312 320.109375 697.590820312 330.71484375 701.028320312 c 0,10,11
 339.740234375 703.96484375 339.740234375 703.96484375 347.12890625 703.96484375 c 0,12,13
 370.608398438 703.96484375 370.608398438 703.96484375 377.5546875 674.305664062 c 0,14,15
 378.998046875 668.147460938 378.998046875 668.147460938 378.998046875 662.7890625 c 0,16,17
 378.998046875 640.1484375 378.998046875 640.1484375 353.241210938 631.770507812 c 0,18,19
 338.935546875 627.091796875 338.935546875 627.091796875 312.765625 618.455078125 c 128,-1,20
 286.599609375 609.818359375 286.599609375 609.818359375 277.48828125 606.83203125 c 2,21,-1
 272.29296875 605.12890625 l 1,22,-1
 275.489257812 600.693359375 l 2,23,24
 314.431640625 546.64453125 314.431640625 546.64453125 322.13671875 536.04296875 c 0,25,26
 327.356445312 528.842773438 327.356445312 528.842773438 329.954101562 522.38671875 c 0,27,28
 332.384765625 516.34765625 332.384765625 516.34765625 332.384765625 510.876953125 c 0,29,30
 332.384765625 491.080078125 332.384765625 491.080078125 300.561523438 478.723632812 c 0,31,32
 295.088867188 476.720703125 295.088867188 476.720703125 289.950195312 476.720703125 c 0,33,34
 275.185546875 476.720703125 275.185546875 476.720703125 263.1796875 493.252929688 c 0,35,36
 254.798828125 505.282226562 254.798828125 505.282226562 240.04296875 527.314453125 c 128,-1,37
 225.288085938 549.356445312 225.288085938 549.356445312 219.799804688 557.569335938 c 2,38,-1
 216.853515625 561.979492188 l 1,39,-1
 213.90625 557.569335938 l 2,40,41
 179.122070312 505.529296875 179.122070312 505.529296875 170.534179688 493.298828125 c 0,42,43
 158.147460938 477.215820312 158.147460938 477.215820312 143.4375 477.215820312 c 0,44,45
 132.510742188 477.215820312 132.510742188 477.215820312 120.301757812 486.090820312 c 0,46,47
 103.4296875 498.356445312 103.4296875 498.356445312 103.4296875 513.51171875 c 0,48,49
 103.4296875 524.095703125 103.4296875 524.095703125 111.659179688 536.08984375 c 0,50,51
 119.647460938 547.18359375 119.647460938 547.18359375 136.508789062 570.538085938 c 128,-1,52
 153.361328125 593.881835938 153.361328125 593.881835938 158.271484375 600.69140625 c 2,53,-1
 161.466796875 605.122070312 l 1,54,-1
 156.278320312 606.830078125 l 2,55,56
 92.1875 627.936523438 92.1875 627.936523438 80.5361328125 631.76171875 c 0,57,58
 54.98046875 640.498046875 54.98046875 640.498046875 54.98046875 662.03125 c 0,59,60
 54.98046875 669.055664062 54.98046875 669.055664062 57.69921875 677.44140625 c 0,61,62
 66.15625 703.498046875 66.15625 703.498046875 88.1435546875 703.498046875 c 0,63,64
 94.92578125 703.498046875 94.92578125 703.498046875 102.99609375 701.018554688 c 0,65,66
 114.552734375 697.251953125 114.552734375 697.251953125 140.275390625 689.033203125 c 128,-1,67
 165.981445312 680.8203125 165.981445312 680.8203125 178.544921875 676.639648438 c 2,68,-1
 183.305664062 674.951171875 l 1,69,-1
 183.323242188 680.431640625 l 2,70,71
 183.366210938 693.71875 183.366210938 693.71875 183.461914062 720.3203125 c 128,-1,72
 183.55859375 746.909179688 183.55859375 746.909179688 183.611328125 760.188476562 c 0,73,74
 184.07421875 794.514648438 184.07421875 794.514648438 215.42578125 796.00390625 c 0,0,1
EndSplineSet
EndChar

StartChar: plus
Encoding: 43 43 4
Width: 506
VWidth: 37
GlyphClass: 2
Flags: W
LayerCount: 2
Fore
SplineSet
252 538 m 0,0,1
 294 538 294 538 294 496 c 2,2,-1
 294 371 l 1,3,-1
 294 367 l 1,4,-1
 297 367 l 1,5,-1
 419 367 l 2,6,7
 461 367 461 367 461 325 c 128,-1,8
 461 283 461 283 419 283 c 2,9,-1
 297 283 l 1,10,-1
 294 283 l 1,11,-1
 294 279 l 1,12,-1
 294 155 l 2,13,14
 294 112 294 112 253 112 c 128,-1,15
 212 112 212 112 212 154 c 2,16,-1
 212 279 l 1,17,-1
 212 283 l 1,18,-1
 209 283 l 1,19,-1
 87 283 l 2,20,21
 45 283 45 283 45 325 c 128,-1,22
 45 367 45 367 87 367 c 2,23,-1
 209 367 l 1,24,-1
 212 367 l 1,25,-1
 212 371 l 1,26,-1
 212 495 l 2,27,28
 212 538 212 538 252 538 c 0,0,1
EndSplineSet
EndChar

StartChar: hyphen
Encoding: 45 45 5
Width: 365
VWidth: 37
GlyphClass: 2
Flags: W
LayerCount: 2
Fore
SplineSet
88 288 m 2,0,-1
 278 288 l 6,1,2
 320 288 320 288 320 246 c 132,-1,3
 320 204 320 204 278 204 c 6,4,-1
 88 204 l 2,5,6
 45 204 45 204 45 246 c 128,-1,7
 45 288 45 288 88 288 c 2,0,-1
EndSplineSet
EndChar

StartChar: less
Encoding: 60 60 6
Width: 542
GlyphClass: 2
Flags: W
LayerCount: 2
Fore
SplineSet
452.870117188 577.111328125 m 0,0,1
 469.206054688 576.625976562 469.206054688 576.625976562 480.767578125 564.715820312 c 128,-1,2
 492.329101562 552.8046875 492.329101562 552.8046875 492.329101562 536.461914062 c 0,3,4
 492.329101562 525.802734375 492.329101562 525.802734375 485.510742188 515.032226562 c 128,-1,5
 478.692382812 504.262695312 478.692382812 504.262695312 469.05859375 499.703125 c 2,6,-1
 162.967773438 349.500976562 l 1,7,-1
 469.05859375 199.298828125 l 2,8,9
 478.70703125 194.744140625 478.70703125 194.744140625 485.536132812 183.96875 c 128,-1,10
 492.365234375 173.193359375 492.365234375 173.193359375 492.365234375 162.5234375 c 0,11,12
 492.365234375 145.686523438 492.365234375 145.686523438 480.44921875 133.771484375 c 128,-1,13
 468.534179688 121.85546875 468.534179688 121.85546875 451.697265625 121.85546875 c 0,14,15
 441.93359375 121.85546875 441.93359375 121.85546875 433.232421875 126.2890625 c 2,16,-1
 52.74609375 312.995117188 l 2,17,18
 43.3291015625 317.618164062 43.3291015625 317.618164062 36.6650390625 328.314453125 c 128,-1,19
 30 339.010742188 30 339.010742188 30 349.500976562 c 128,-1,20
 30 359.991210938 30 359.991210938 36.6650390625 370.6875 c 128,-1,21
 43.3291015625 381.383789062 43.3291015625 381.383789062 52.74609375 386.006835938 c 2,22,-1
 433.232421875 572.712890625 l 2,23,24
 441.920898438 577.129882812 441.920898438 577.129882812 451.6640625 577.129882812 c 0,25,26
 452.237304688 577.129882812 452.237304688 577.129882812 452.870117188 577.111328125 c 0,0,1
EndSplineSet
EndChar

StartChar: greater
Encoding: 62 62 7
Width: 542
GlyphClass: 2
Flags: W
LayerCount: 2
Fore
SplineSet
89.1298828125 577.111328125 m 0,0,1
 89.7626953125 577.129882812 89.7626953125 577.129882812 90.3359375 577.129882812 c 0,2,3
 100.079101562 577.129882812 100.079101562 577.129882812 108.767578125 572.712890625 c 2,4,-1
 489.25390625 386.006835938 l 2,5,6
 498.670898438 381.383789062 498.670898438 381.383789062 505.334960938 370.6875 c 128,-1,7
 512 359.991210938 512 359.991210938 512 349.500976562 c 128,-1,8
 512 339.010742188 512 339.010742188 505.334960938 328.314453125 c 128,-1,9
 498.670898438 317.618164062 498.670898438 317.618164062 489.25390625 312.995117188 c 2,10,-1
 108.767578125 126.2890625 l 2,11,12
 100.06640625 121.85546875 100.06640625 121.85546875 90.302734375 121.85546875 c 0,13,14
 73.4658203125 121.85546875 73.4658203125 121.85546875 61.55078125 133.771484375 c 128,-1,15
 49.634765625 145.686523438 49.634765625 145.686523438 49.634765625 162.5234375 c 0,16,17
 49.634765625 173.193359375 49.634765625 173.193359375 56.4638671875 183.96875 c 128,-1,18
 63.29296875 194.744140625 63.29296875 194.744140625 72.94140625 199.298828125 c 2,19,-1
 379.032226562 349.500976562 l 1,20,-1
 72.94140625 499.703125 l 2,21,22
 63.3076171875 504.262695312 63.3076171875 504.262695312 56.4892578125 515.032226562 c 128,-1,23
 49.6708984375 525.802734375 49.6708984375 525.802734375 49.6708984375 536.461914062 c 0,24,25
 49.6708984375 552.8046875 49.6708984375 552.8046875 61.232421875 564.715820312 c 128,-1,26
 72.7939453125 576.625976562 72.7939453125 576.625976562 89.1298828125 577.111328125 c 0,0,1
EndSplineSet
EndChar

StartChar: K
Encoding: 75 75 8
Width: 572
VWidth: 0
GlyphClass: 2
Flags: W
LayerCount: 2
Fore
SplineSet
451.846679688 686.237304688 m 2,0,1
 463.390625 698.0390625 463.390625 698.0390625 480.12109375 698.48046875 c 0,2,3
 498.020507812 698.48046875 498.020507812 698.48046875 510.004882812 686.877929688 c 128,-1,4
 522 675.264648438 522 675.264648438 522 658.8515625 c 0,5,6
 522 642.025390625 522 642.025390625 509.556640625 630.393554688 c 2,7,-1
 197.95703125 350.983398438 l 1,8,-1
 509.72265625 67.3916015625 l 2,9,10
 521.91015625 55.791015625 521.91015625 55.791015625 521.91015625 39.1748046875 c 0,11,12
 521.91015625 22.7626953125 521.91015625 22.7626953125 509.915039062 11.1494140625 c 128,-1,13
 497.920898438 -0.4638671875 497.920898438 -0.4638671875 480.967773438 -0.4638671875 c 0,14,15
 463.615234375 -0.4638671875 463.615234375 -0.4638671875 451.596679688 11.9541015625 c 2,16,-1
 141.76171875 301.044921875 l 1,17,-1
 141.76171875 39.93359375 l 2,18,19
 141.765625 22.56640625 141.765625 22.56640625 129.76953125 10.5703125 c 128,-1,20
 117.774414062 -1.4248046875 117.774414062 -1.4248046875 100.821289062 -1.4248046875 c 128,-1,21
 83.8681640625 -1.4248046875 83.8681640625 -1.4248046875 71.8740234375 10.5703125 c 0,22,23
 59.8779296875 22.17578125 59.8779296875 22.17578125 59.8779296875 38.5810546875 c 2,24,-1
 59.87890625 658.291015625 l 2,25,26
 59.87890625 674.673828125 59.87890625 674.673828125 71.6826171875 686.268554688 c 0,27,28
 83.732421875 698.104492188 83.732421875 698.104492188 100.306640625 698.107421875 c 0,29,30
 117.778320312 698.107421875 117.778320312 698.107421875 129.76953125 686.116210938 c 128,-1,31
 141.76171875 674.124023438 141.76171875 674.124023438 141.76171875 656.750976562 c 2,32,-1
 141.76171875 401 l 1,33,-1
 451.846679688 686.237304688 l 2,0,1
EndSplineSet
EndChar

StartChar: L
Encoding: 76 76 9
Width: 441
VWidth: 0
GlyphClass: 2
Flags: W
LayerCount: 2
Fore
SplineSet
71.8583984375 689.930664062 m 128,-1,1
 83.7197265625 701.58984375 83.7197265625 701.58984375 100.602539062 701.8359375 c 0,2,3
 118.174804688 701.8359375 118.174804688 701.8359375 130.223632812 690.216796875 c 128,-1,4
 142.275390625 678.59375 142.275390625 678.59375 142.275390625 662.16796875 c 2,5,-1
 142.272460938 212.432617188 l 2,6,7
 142.272460938 112.338867188 142.272460938 112.338867188 143.005859375 104.119140625 c 0,8,9
 144.352539062 89.0048828125 144.352539062 89.0048828125 147.327148438 84.34765625 c 0,10,11
 158.217773438 79.150390625 158.217773438 79.150390625 205.49609375 78.6787109375 c 0,12,13
 209.517578125 78.6416015625 209.517578125 78.6416015625 215.094726562 78.6416015625 c 0,14,15
 238.766601562 78.6416015625 238.766601562 78.6416015625 290.458984375 79.3125 c 0,16,17
 344.703125 80.142578125 344.703125 80.142578125 381.392578125 80.146484375 c 0,18,19
 398.8671875 80.146484375 398.8671875 80.146484375 410.915039062 68.0966796875 c 128,-1,20
 422.96875 56.044921875 422.96875 56.044921875 422.96875 39.0107421875 c 128,-1,21
 422.96875 21.9765625 422.96875 21.9765625 410.916992188 9.9248046875 c 128,-1,22
 399 -2 399 -2 381.58203125 -2.1279296875 c 1,23,24
 346.162109375 -2.1279296875 346.162109375 -2.1279296875 292.276367188 -2.9638671875 c 0,25,26
 241.129882812 -3.6337890625 241.129882812 -3.6337890625 215.744140625 -3.6337890625 c 0,27,28
 209.184570312 -3.6337890625 209.184570312 -3.6337890625 204.344726562 -3.5888671875 c 0,29,30
 131.514648438 -2.8349609375 131.514648438 -2.8349609375 103.000976562 14.568359375 c 0,31,32
 66.1591796875 37.0546875 66.1591796875 37.0546875 61.0361328125 94.751953125 c 0,33,34
 60 106.424804688 60 106.424804688 60 210.3515625 c 2,35,-1
 60 661.590820312 l 2,36,0
 59.99609375 678.268554688 59.99609375 678.268554688 71.8583984375 689.930664062 c 128,-1,1
EndSplineSet
EndChar

StartChar: M
Encoding: 77 77 10
Width: 568
VWidth: 0
GlyphClass: 2
Flags: W
LayerCount: 2
Fore
SplineSet
100.990234375 702.927734375 m 0,0,1
 114.344726562 702.931640625 114.344726562 702.931640625 125.903320312 694.280273438 c 128,-1,2
 137.461914062 685.62890625 137.461914062 685.62890625 141.052734375 673.405273438 c 2,3,-1
 284.245117188 184.72265625 l 1,4,-1
 427.435546875 673.405273438 l 2,5,6
 431.026367188 685.629882812 431.026367188 685.629882812 442.583984375 694.282226562 c 128,-1,7
 454.142578125 702.934570312 454.142578125 702.934570312 466.884765625 702.934570312 c 0,8,9
 483.90625 702.934570312 483.90625 702.934570312 495.953125 690.887695312 c 128,-1,10
 508 678.840820312 508 678.840820312 508 661.819335938 c 0,11,-1
 507.162109375 37.986328125 l 1,12,-1
 507.165039062 37.462890625 l 2,13,14
 507.165039062 20.44140625 507.165039062 20.44140625 495.118164062 8.39453125 c 128,-1,15
 483.071289062 -3.65234375 483.071289062 -3.65234375 466.049804688 -3.65234375 c 128,-1,16
 449.028320312 -3.65234375 449.028320312 -3.65234375 436.981445312 8.39453125 c 128,-1,17
 424.934570312 20.44140625 424.934570312 20.44140625 424.934570312 37.462890625 c 0,18,19
 424.934570312 37.8056640625 424.934570312 37.8056640625 424.939453125 38.0966796875 c 2,20,-1
 425.390625 374.01953125 l 1,21,-1
 323.696289062 26.9599609375 l 2,22,23
 320.108398438 14.73046875 320.108398438 14.73046875 308.548828125 6.0751953125 c 128,-1,24
 296.989257812 -2.580078125 296.989257812 -2.580078125 284.244140625 -2.580078125 c 128,-1,25
 271.499023438 -2.580078125 271.499023438 -2.580078125 259.939453125 6.0751953125 c 128,-1,26
 248.379882812 14.73046875 248.379882812 14.73046875 244.791992188 26.9599609375 c 2,27,-1
 142.958007812 374.4921875 l 1,28,-1
 143.249023438 37.94921875 l 2,29,30
 143.25390625 37.666015625 143.25390625 37.666015625 143.25390625 37.3330078125 c 0,31,32
 143.25390625 20.3115234375 143.25390625 20.3115234375 131.20703125 8.2646484375 c 128,-1,33
 119.16015625 -3.7822265625 119.16015625 -3.7822265625 102.138671875 -3.7822265625 c 128,-1,34
 85.1171875 -3.7822265625 85.1171875 -3.7822265625 73.0703125 8.2646484375 c 128,-1,35
 61.0234375 20.3115234375 61.0234375 20.3115234375 61.0234375 37.3330078125 c 2,36,-1
 61.02734375 37.8779296875 l 1,37,-1
 60.48828125 661.809570312 l 2,38,39
 60.48828125 678.5859375 60.48828125 678.5859375 72.35546875 690.631835938 c 128,-1,40
 84.22265625 702.676757812 84.22265625 702.676757812 100.990234375 702.927734375 c 0,0,1
EndSplineSet
EndChar

StartChar: N
Encoding: 78 78 11
Width: 560
VWidth: 0
GlyphClass: 2
Flags: W
LayerCount: 2
Fore
SplineSet
458.918945312 0.015625 m 0,0,1
 436.379882812 0.68359375 436.379882812 0.68359375 425.044921875 20.1728515625 c 2,2,-1
 141.135742188 508.859375 l 1,3,-1
 141.135742188 41.234375 l 2,4,5
 141.139648438 23.9013671875 141.139648438 23.9013671875 129.201171875 11.962890625 c 128,-1,6
 117.26171875 0.0244140625 117.26171875 0.0244140625 100.569335938 0.0244140625 c 128,-1,7
 83.8779296875 0.0244140625 83.8779296875 0.0244140625 71.939453125 11.962890625 c 128,-1,8
 60 23.90234375 60 23.90234375 60 40.59375 c 0,9,-1
 60.00390625 659.4453125 l 2,10,11
 60.009765625 676.130859375 60.009765625 676.130859375 71.9482421875 688.065429688 c 128,-1,12
 83.8876953125 700 83.8876953125 700 100.573242188 700 c 0,13,14
 123.916015625 700 123.916015625 700 135.650390625 679.819335938 c 2,15,-1
 419.560546875 191.1328125 l 1,16,-1
 419.560546875 658.7578125 l 2,17,18
 419.556640625 676.08984375 419.556640625 676.08984375 431.49609375 688.029296875 c 128,-1,19
 443.434570312 699.967773438 443.434570312 699.967773438 460.126953125 699.967773438 c 128,-1,20
 476.819335938 699.967773438 476.819335938 699.967773438 488.7578125 688.029296875 c 128,-1,21
 500.696289062 676.08984375 500.696289062 676.08984375 500.696289062 659.397460938 c 0,22,-1
 500.692382812 40.546875 l 2,23,24
 500.681640625 23.861328125 500.681640625 23.861328125 488.744140625 11.9306640625 c 128,-1,25
 476.806640625 0 476.806640625 0 460.123046875 0 c 0,26,27
 459.453125 0 459.453125 0 458.918945312 0.015625 c 0,0,1
EndSplineSet
EndChar

StartChar: O
Encoding: 79 79 12
Width: 616
VWidth: 0
GlyphClass: 2
Flags: W
LayerCount: 2
Fore
SplineSet
196.293945312 688.868164062 m 0,0,1
 240.21875 702.05078125 240.21875 702.05078125 309.2421875 702.05078125 c 128,-1,2
 378.239257812 702.05078125 378.239257812 702.05078125 422.190429688 688.859375 c 0,3,4
 442.078125 682.890625 442.078125 682.890625 471.709960938 665.575195312 c 0,5,6
 508.052734375 643.979492188 508.052734375 643.979492188 526.487304688 603.66015625 c 0,7,8
 544.02734375 565.293945312 544.02734375 565.293945312 554.35546875 509.94140625 c 0,9,10
 567.997070312 436.83984375 567.997070312 436.83984375 567.997070312 337.064453125 c 0,11,12
 567.997070312 255.141601562 567.997070312 255.141601562 549.077148438 177.56640625 c 0,13,14
 537.02734375 128.1640625 537.02734375 128.1640625 520.583007812 95.1796875 c 0,15,16
 503.225585938 60.365234375 503.225585938 60.365234375 471.444335938 41.3671875 c 0,17,18
 470.651367188 40.8935546875 470.651367188 40.8935546875 463.892578125 36.791015625 c 128,-1,19
 456.962890625 32.5849609375 456.962890625 32.5849609375 454.661132812 31.275390625 c 128,-1,20
 452.38671875 29.9794921875 452.38671875 29.9794921875 444.64453125 25.9482421875 c 0,21,22
 435.970703125 21.65234375 435.970703125 21.65234375 430.831054688 19.7822265625 c 0,23,24
 426.426757812 18.1806640625 426.426757812 18.1806640625 417.3671875 14.8232421875 c 0,25,26
 407.395507812 11.12890625 407.395507812 11.12890625 399.478515625 9.37109375 c 0,27,28
 392.438476562 7.755859375 392.438476562 7.755859375 381.766601562 5.349609375 c 0,29,30
 370.3515625 2.7744140625 370.3515625 2.7744140625 359.5390625 1.6083984375 c 0,31,32
 349.231445312 0.49609375 349.231445312 0.49609375 336.268554688 -0.3857421875 c 128,-1,33
 323.109375 -1.28125 323.109375 -1.28125 309.247070312 -1.28125 c 128,-1,34
 295.384765625 -1.28125 295.384765625 -1.28125 282.2265625 -0.3857421875 c 128,-1,35
 269.262695312 0.49609375 269.262695312 0.49609375 258.954101562 1.6083984375 c 0,36,37
 248.139648438 2.7744140625 248.139648438 2.7744140625 236.724609375 5.349609375 c 0,38,39
 226.051757812 7.755859375 226.051757812 7.755859375 219.013671875 9.37109375 c 0,40,41
 211.092773438 11.12890625 211.092773438 11.12890625 201.124023438 14.8232421875 c 0,42,43
 192.0625 18.1796875 192.0625 18.1796875 187.654296875 19.783203125 c 0,44,45
 182.513671875 21.6533203125 182.513671875 21.6533203125 173.842773438 25.9482421875 c 0,46,47
 166.100585938 29.978515625 166.100585938 29.978515625 163.826171875 31.2734375 c 128,-1,48
 161.520507812 32.5859375 161.520507812 32.5859375 154.591796875 36.791015625 c 128,-1,49
 147.833984375 40.8916015625 147.833984375 40.8916015625 147.036132812 41.3681640625 c 0,50,51
 115.254882812 60.369140625 115.254882812 60.369140625 97.912109375 95.1826171875 c 0,52,53
 81.4814453125 128.163085938 81.4814453125 128.163085938 69.439453125 177.579101562 c 0,54,55
 50.490234375 255.34375 50.490234375 255.34375 50.490234375 337.8203125 c 0,56,57
 50.490234375 436.482421875 50.490234375 436.482421875 64.1767578125 509.938476562 c 0,58,59
 74.4912109375 565.305664062 74.4912109375 565.305664062 92.013671875 603.669921875 c 0,60,61
 110.4296875 643.989257812 110.4296875 643.989257812 146.77734375 665.5859375 c 0,62,63
 176.415039062 682.90234375 176.415039062 682.90234375 196.293945312 688.868164062 c 0,0,1
393.450195312 610.924804688 m 0,64,65
 363.497070312 619.83203125 363.497070312 619.83203125 309.215820312 619.83203125 c 128,-1,66
 254.916992188 619.83203125 254.916992188 619.83203125 224.981445312 610.9296875 c 0,67,68
 214.670898438 607.862304688 214.670898438 607.862304688 191.51171875 595.356445312 c 0,69,70
 179.075195312 588.637695312 179.075195312 588.637695312 165.771484375 561.666015625 c 0,71,72
 152.30078125 532.8125 152.30078125 532.8125 145.064453125 494.325195312 c 0,73,74
 132.680664062 428.466796875 132.680664062 428.466796875 132.680664062 337.702148438 c 0,75,76
 132.680664062 265.2265625 132.680664062 265.2265625 149.438476562 197.077148438 c 0,77,78
 157.443359375 164.52734375 157.443359375 164.52734375 170.576171875 139.15625 c 0,79,80
 183.935546875 115.47265625 183.935546875 115.47265625 191.993164062 111.095703125 c 0,81,82
 196.517578125 108.640625 196.517578125 108.640625 207.057617188 102.53515625 c 0,83,84
 217.056640625 96.7421875 217.056640625 96.7421875 220.826171875 94.892578125 c 128,-1,85
 224.440429688 93.1201171875 224.440429688 93.1201171875 234.241210938 89.4072265625 c 0,86,87
 243.2421875 85.9970703125 243.2421875 85.9970703125 251.208007812 84.8203125 c 0,88,89
 260.234375 83.486328125 260.234375 83.486328125 275.333007812 82.2041015625 c 128,-1,90
 290.26953125 80.935546875 290.26953125 80.935546875 309.21484375 80.935546875 c 0,91,92
 332.056640625 80.935546875 332.056640625 80.935546875 347.780273438 81.9365234375 c 0,93,94
 362.224609375 82.8564453125 362.224609375 82.8564453125 374.732421875 86.8427734375 c 0,95,96
 388.1328125 91.1123046875 388.1328125 91.1123046875 393.102539062 92.6181640625 c 0,97,98
 396.784179688 94.0185546875 396.784179688 94.0185546875 409.309570312 101.26171875 c 0,99,100
 424.38671875 109.982421875 424.38671875 109.982421875 426.4296875 111.091796875 c 0,101,102
 434.502929688 115.479492188 434.502929688 115.479492188 447.876953125 139.166992188 c 0,103,104
 461.0234375 164.538085938 461.0234375 164.538085938 469.034179688 197.083984375 c 0,105,106
 485.75390625 265.015625 485.75390625 265.015625 485.75390625 336.930664062 c 0,107,108
 485.75390625 428.828125 485.75390625 428.828125 473.420898438 494.318359375 c 0,109,110
 466.17578125 532.795898438 466.17578125 532.795898438 452.689453125 561.65234375 c 0,111,112
 439.368164062 588.62890625 439.368164062 588.62890625 426.919921875 595.350585938 c 0,113,114
 403.772460938 607.85546875 403.772460938 607.85546875 393.450195312 610.924804688 c 0,64,65
EndSplineSet
EndChar

StartChar: k
Encoding: 107 107 13
Width: 454
GlyphClass: 2
Flags: W
LayerCount: 2
Fore
SplineSet
66.8125 690.072265625 m 128,-1,1
 78.4697265625 701.905273438 78.4697265625 701.905273438 95.5732421875 702.162109375 c 0,2,3
 112.318359375 702.162109375 112.318359375 702.162109375 124.1640625 690.318359375 c 128,-1,4
 136.0078125 678.474609375 136.0078125 678.474609375 136.0078125 661.734375 c 2,5,-1
 136.004882812 299.20703125 l 1,6,-1
 335.787109375 487.322265625 l 2,7,8
 348.340820312 499.194335938 348.340820312 499.194335938 366.705078125 499.94140625 c 0,9,10
 367.627929688 499.984375 367.627929688 499.984375 368.559570312 499.984375 c 0,11,12
 385.297851562 499.984375 385.297851562 499.984375 397.143554688 488.624023438 c 128,-1,13
 408.987304688 477.264648438 408.987304688 477.264648438 408.987304688 461.208007812 c 128,-1,14
 408.987304688 445.192382812 408.987304688 445.192382812 397.254882812 433.89453125 c 2,15,-1
 191.536132812 249.158203125 l 1,16,-1
 397.435546875 61.5771484375 l 2,17,18
 409 50.3134765625 409 50.3134765625 409 34.42578125 c 0,19,20
 409 26.611328125 409 26.611328125 405.959960938 19.57421875 c 128,-1,21
 402.919921875 12.5380859375 402.919921875 12.5380859375 397.15625 7.009765625 c 0,22,23
 385.3125 -4.833984375 385.3125 -4.833984375 368.572265625 -4.833984375 c 0,24,25
 348.954101562 -4.833984375 348.954101562 -4.833984375 335.538085938 8.0751953125 c 2,26,-1
 136.006835938 198.682617188 l 1,27,-1
 136.006835938 31.9580078125 l 2,28,29
 136.010742188 14.771484375 136.010742188 14.771484375 124.166015625 2.9248046875 c 128,-1,30
 112.322265625 -8.9189453125 112.322265625 -8.9189453125 95.58203125 -8.9189453125 c 128,-1,31
 78.8427734375 -8.9189453125 78.8427734375 -8.9189453125 66.9990234375 2.9248046875 c 0,32,33
 55.154296875 14.4033203125 55.154296875 14.4033203125 55.154296875 30.625 c 2,34,-1
 55.158203125 661.309570312 l 2,35,0
 55.154296875 678.236328125 55.154296875 678.236328125 66.8125 690.072265625 c 128,-1,1
EndSplineSet
EndChar

StartChar: l
Encoding: 108 108 14
Width: 201
GlyphClass: 2
Flags: W
LayerCount: 2
Fore
SplineSet
71.80078125 690.071289062 m 128,-1,1
 83.45703125 701.904296875 83.45703125 701.904296875 99.9775390625 702.153320312 c 0,2,3
 117.311523438 702.153320312 117.311523438 702.153320312 129.155273438 690.309570312 c 128,-1,4
 141 678.465820312 141 678.465820312 141 661.725585938 c 2,5,-1
 140.99609375 31.0576171875 l 2,6,7
 141.000976562 14.400390625 141.000976562 14.400390625 129.155273438 2.9208984375 c 0,8,9
 117.310546875 -8.9228515625 117.310546875 -8.9228515625 100.572265625 -8.9228515625 c 128,-1,10
 83.83203125 -8.9228515625 83.83203125 -8.9228515625 71.98828125 2.9208984375 c 0,11,12
 60.14453125 14.3984375 60.14453125 14.3984375 60.14453125 30.62109375 c 2,13,-1
 60.1474609375 661.3046875 l 2,14,0
 60.1435546875 678.236328125 60.1435546875 678.236328125 71.80078125 690.071289062 c 128,-1,1
EndSplineSet
EndChar

StartChar: m
Encoding: 109 109 15
Width: 728
GlyphClass: 2
Flags: W
LayerCount: 2
Fore
SplineSet
673.580078125 38.8447265625 m 2,0,1
 673.580078125 22.908203125 673.580078125 22.908203125 661.627929688 10.9560546875 c 0,2,3
 650.669921875 0 650.669921875 0 633.739257812 0 c 0,4,5
 617.376953125 0 617.376953125 0 604.854492188 10.9560546875 c 0,6,7
 592.90234375 22.908203125 592.90234375 22.908203125 592.90234375 38.8447265625 c 2,8,-1
 592.90234375 340.637695312 l 2,9,10
 592.90234375 380.478515625 592.90234375 380.478515625 574.974609375 398.40625 c 0,11,12
 555.552734375 419.322265625 555.552734375 419.322265625 501.26953125 419.322265625 c 0,13,14
 447.484375 419.322265625 447.484375 419.322265625 425.572265625 397.41015625 c 0,15,16
 406.149414062 377.98828125 406.149414062 377.98828125 407.643554688 337.649414062 c 2,17,-1
 407.643554688 40.8369140625 l 2,18,19
 407.643554688 23.4599609375 407.643554688 23.4599609375 394.6953125 11.9521484375 c 0,20,21
 382.743164062 0 382.743164062 0 364.815429688 0 c 0,22,23
 347.384765625 0 347.384765625 0 333.938476562 11.9521484375 c 0,24,25
 321.986328125 23.904296875 321.986328125 23.904296875 321.986328125 40.8369140625 c 2,26,-1
 321.986328125 336.653320312 l 2,27,28
 321.986328125 377.490234375 321.986328125 377.490234375 302.06640625 397.41015625 c 0,29,30
 281.615234375 419.322265625 281.615234375 419.322265625 227.365234375 419.322265625 c 0,31,32
 173.580078125 419.322265625 173.580078125 419.322265625 152.6640625 398.40625 c 0,33,34
 134.2578125 378.465820312 134.2578125 378.465820312 135.731445312 341.633789062 c 2,35,-1
 135.731445312 38.8447265625 l 2,36,37
 135.731445312 22.908203125 135.731445312 22.908203125 123.779296875 10.9560546875 c 0,38,39
 112.821289062 0 112.821289062 0 95.890625 0 c 2,40,-1
 94.89453125 0 l 2,41,42
 79.5283203125 0 79.5283203125 0 67.005859375 10.9560546875 c 0,43,44
 55.0537109375 22.908203125 55.0537109375 22.908203125 55.0537109375 38.8447265625 c 2,45,-1
 55.0537109375 342.629882812 l 2,46,47
 53.5595703125 411.354492188 53.5595703125 411.354492188 93.8984375 453.1875 c 0,48,49
 116.5 475.7890625 116.5 475.7890625 148.6796875 488.047851562 c 0,50,51
 183.04296875 500 183.04296875 500 227.365234375 500 c 0,52,53
 317.502929688 500 317.502929688 500 363.819335938 452.19140625 c 1,54,55
 389.654296875 478.026367188 389.654296875 478.026367188 422.583984375 488.047851562 c 0,56,57
 456.947265625 500 456.947265625 500 501.26953125 500 c 0,58,59
 590.395507812 500 590.395507812 500 634.735351562 454.18359375 c 0,60,61
 654.157226562 431.7734375 654.157226562 431.7734375 664.616210938 403.38671875 c 0,62,63
 673.579101562 375 673.579101562 375 673.580078125 343.625976562 c 2,64,-1
 673.580078125 38.8447265625 l 2,0,1
EndSplineSet
EndChar

StartChar: n
Encoding: 110 110 16
Width: 469
GlyphClass: 2
Flags: W
LayerCount: 2
Fore
SplineSet
402.275390625 11.904296875 m 0,0,1
 391.859375 0 391.859375 0 374.498046875 0 c 0,2,3
 357.631835938 0 357.631835938 0 345.727539062 11.904296875 c 0,4,5
 333.822265625 22.322265625 333.822265625 22.322265625 333.823242188 38.6904296875 c 2,6,-1
 333.823242188 340.27734375 l 2,7,8
 333.823242188 379.9609375 333.823242188 379.9609375 315.965820312 397.817382812 c 0,9,10
 295.595703125 419.642578125 295.595703125 419.642578125 233.625 419.642578125 c 0,11,12
 172.64453125 419.642578125 172.64453125 419.642578125 152.275390625 397.817382812 c 0,13,14
 133.942382812 377.956054688 133.942382812 377.956054688 135.41015625 341.26953125 c 2,15,-1
 135.41015625 38.6904296875 l 2,16,17
 135.41015625 22.3203125 135.41015625 22.3203125 123.505859375 11.904296875 c 0,18,19
 111.6015625 0 111.6015625 0 94.7353515625 0 c 0,20,21
 78.8623046875 0 78.8623046875 0 66.9580078125 11.904296875 c 0,22,23
 55.052734375 22.322265625 55.052734375 22.322265625 55.052734375 38.6904296875 c 2,24,-1
 55.052734375 342.26171875 l 2,25,26
 53.576171875 411.71875 53.576171875 411.71875 93.744140625 453.373046875 c 0,27,28
 106.96875 466.599609375 106.96875 466.599609375 128.465820312 478.174804688 c 0,29,30
 150.370117188 489.969726562 150.370117188 489.969726562 172.116210938 494.047851562 c 0,31,32
 200.390625 500 200.390625 500 234.616210938 500 c 0,33,34
 330.366210938 500 330.366210938 500 375.489257812 453.373046875 c 0,35,36
 414.1796875 413.193359375 414.1796875 413.193359375 414.1796875 343.25390625 c 2,37,-1
 414.1796875 39.6826171875 l 2,38,39
 414.1796875 22.322265625 414.1796875 22.322265625 402.275390625 11.904296875 c 0,0,1
EndSplineSet
EndChar

StartChar: o
Encoding: 111 111 17
Width: 471
GlyphClass: 2
Flags: W
LayerCount: 2
Fore
SplineSet
104.508789062 466.778320312 m 0,0,1
 146.939453125 501.662109375 146.939453125 501.662109375 229.125 501.662109375 c 0,2,3
 232.2734375 501.662109375 232.2734375 501.662109375 235.48046875 501.611328125 c 0,4,5
 313.002929688 501.532226562 313.002929688 501.532226562 350.290039062 477.58203125 c 0,6,7
 398.787109375 451.419921875 398.787109375 451.419921875 413.350585938 375.908203125 c 0,8,9
 426 311.796875 426 311.796875 426 249.765625 c 0,10,11
 426 206.759765625 426 206.759765625 419.919921875 164.75390625 c 0,12,-1
 419.840820312 164.2890625 l 2,13,14
 419.266601562 161.33984375 419.266601562 161.33984375 417.056640625 149.663085938 c 128,-1,15
 414.827148438 137.883789062 414.827148438 137.883789062 413.975585938 133.749023438 c 128,-1,16
 413.119140625 129.591796875 413.119140625 129.591796875 410.711914062 119.025390625 c 0,17,18
 408.220703125 108.091796875 408.220703125 108.091796875 406.366210938 102.533203125 c 0,19,20
 404.639648438 97.361328125 404.639648438 97.361328125 401.502929688 88.4052734375 c 0,21,22
 398.1328125 78.7861328125 398.1328125 78.7861328125 394.633789062 72.2958984375 c 0,23,24
 391.340820312 66.189453125 391.340820312 66.189453125 386.756835938 58.9365234375 c 0,25,26
 381.955078125 51.33984375 381.955078125 51.33984375 376.400390625 44.9169921875 c 0,27,-1
 375.819335938 44.2998046875 l 2,28,29
 359.19140625 28.0166015625 359.19140625 28.0166015625 338.083007812 17.1357421875 c 128,-1,30
 316.974609375 6.2548828125 316.974609375 6.2548828125 289.235351562 0.86328125 c 0,31,32
 260.561523438 -4.5673828125 260.561523438 -4.5673828125 233.33984375 -4.5673828125 c 0,33,34
 204.48828125 -4.5673828125 204.48828125 -4.5673828125 177.268554688 1.533203125 c 0,35,36
 96.87890625 21.0634765625 96.87890625 21.0634765625 74.3310546875 76.0390625 c 0,37,38
 45.1015625 149.974609375 45.1015625 149.974609375 45.1015625 247.465820312 c 0,39,40
 45.1015625 289.438476562 45.1015625 289.438476562 50.51953125 335.778320312 c 0,41,42
 55.9462890625 369.637695312 55.9462890625 369.637695312 58.7900390625 383.81640625 c 0,43,44
 61.8154296875 398.90234375 61.8154296875 398.90234375 73.3681640625 424.419921875 c 0,45,46
 85.4189453125 451.038085938 85.4189453125 451.038085938 104.508789062 466.778320312 c 0,0,1
314.951171875 409.877929688 m 0,47,48
 297.665039062 429.521484375 297.665039062 429.521484375 235.345703125 430.16796875 c 0,49,50
 164.684570312 429.53515625 164.684570312 429.53515625 152.5234375 404.270507812 c 0,51,52
 141.634765625 382.260742188 141.634765625 382.260742188 135.822265625 351.459960938 c 0,53,54
 129.872070312 319.934570312 129.872070312 319.934570312 129.049804688 304.2734375 c 0,55,56
 128.1953125 288.021484375 128.1953125 288.021484375 126.90234375 246.21484375 c 0,57,58
 128.06640625 155.71484375 128.06640625 155.71484375 150.202148438 105.202148438 c 0,59,-1
 150.568359375 104.240234375 l 2,60,61
 159.303710938 77.4345703125 159.303710938 77.4345703125 198.362304688 69.57421875 c 1,62,63
 219.813476562 67.55859375 219.813476562 67.55859375 237.642578125 67.55859375 c 0,64,65
 265.430664062 67.55859375 265.430664062 67.55859375 284.41796875 72.455078125 c 0,66,67
 314.79296875 83.3173828125 314.79296875 83.3173828125 323.1640625 110.977539062 c 0,68,-1
 323.409179688 111.693359375 l 2,69,70
 343.778320312 164.84375 343.778320312 164.84375 343.778320312 249.053710938 c 0,71,72
 343.778320312 252.145507812 343.778320312 252.145507812 343.750976562 255.279296875 c 0,73,74
 343.603515625 258.771484375 343.603515625 258.771484375 343.311523438 266.141601562 c 0,75,76
 341.96484375 300.106445312 341.96484375 300.106445312 340.434570312 318.739257812 c 0,77,78
 338.952148438 336.784179688 338.952148438 336.784179688 332.366210938 364.154296875 c 0,79,80
 326.06640625 390.3359375 326.06640625 390.3359375 314.951171875 409.877929688 c 0,47,48
EndSplineSet
EndChar

StartChar: two
Encoding: 50 50 19
Width: 516
VWidth: 0
Flags: W
LayerCount: 2
Fore
SplineSet
93.4501953125 0 m 2,0,1
 76.4052734375 0.001953125 76.4052734375 0.001953125 64.3408203125 12.06640625 c 128,-1,2
 52.275390625 24.130859375 52.275390625 24.130859375 52.2744140625 41.17578125 c 2,3,-1
 52.2744140625 101.231445312 l 2,4,5
 52.2744140625 131.893554688 52.2744140625 131.893554688 73.3642578125 154.088867188 c 0,6,7
 86.3564453125 167.767578125 86.3564453125 167.767578125 142.918945312 227.313476562 c 128,-1,8
 199.481445312 286.860351562 199.481445312 286.860351562 259.650390625 350.204101562 c 128,-1,9
 319.819335938 413.547851562 319.819335938 413.547851562 354.943359375 450.526367188 c 0,10,11
 384.208007812 481.329101562 384.208007812 481.329101562 383.734375 521.036132812 c 0,12,13
 383.24609375 561.541015625 383.24609375 561.541015625 354.873046875 589.591796875 c 128,-1,14
 326.5 617.643554688 326.5 617.643554688 286.001953125 617.643554688 c 2,15,-1
 260.025390625 617.643554688 l 1,16,-1
 91.76171875 617.643554688 l 2,17,18
 91.439453125 617.639648438 91.439453125 617.639648438 91.1806640625 617.639648438 c 0,19,20
 74.1318359375 617.639648438 74.1318359375 617.639648438 62.06640625 629.706054688 c 128,-1,21
 50 641.771484375 50 641.771484375 50 658.8203125 c 128,-1,22
 50 675.869140625 50 675.869140625 62.06640625 687.934570312 c 128,-1,23
 74.1318359375 700.000976562 74.1318359375 700.000976562 91.1806640625 700.000976562 c 0,24,25
 91.4931640625 700.000976562 91.4931640625 700.000976562 91.76171875 699.99609375 c 2,26,-1
 260.025390625 699.99609375 l 1,27,-1
 286.001953125 699.99609375 l 2,28,29
 359.620117188 699.99609375 359.620117188 699.99609375 412.41015625 647.825195312 c 128,-1,30
 465.200195312 595.655273438 465.200195312 595.655273438 466.086914062 522.041992188 c 0,31,-1
 466.086914062 522.018554688 l 2,32,33
 466.958984375 448.875 466.958984375 448.875 414.63671875 393.8046875 c 0,34,35
 379.506835938 356.794921875 379.506835938 356.794921875 320.837890625 295.029296875 c 128,-1,36
 262.16796875 233.264648438 262.16796875 233.264648438 203.728515625 171.7421875 c 128,-1,37
 145.2890625 110.21875 145.2890625 110.21875 134.629882812 98.9970703125 c 1,38,-1
 134.629882812 82.349609375 l 1,39,-1
 423.265625 82.349609375 l 2,40,41
 423.5859375 82.353515625 423.5859375 82.353515625 423.845703125 82.353515625 c 0,42,43
 440.89453125 82.353515625 440.89453125 82.353515625 452.9609375 70.287109375 c 128,-1,44
 465.026367188 58.2216796875 465.026367188 58.2216796875 465.026367188 41.1728515625 c 128,-1,45
 465.026367188 24.1240234375 465.026367188 24.1240234375 452.9609375 12.05859375 c 128,-1,46
 440.89453125 -0.0078125 440.89453125 -0.0078125 423.845703125 -0.0078125 c 0,47,48
 423.532226562 -0.0078125 423.532226562 -0.0078125 423.265625 -0.0029296875 c 2,49,-1
 93.4501953125 0 l 2,0,1
EndSplineSet
EndChar

StartChar: semicolon
Encoding: 59 59 20
Width: 309
VWidth: 26
Flags: W
LayerCount: 2
Fore
SplineSet
184.458007812 72.84375 m 1,0,1
 197.9453125 57.9482421875 197.9453125 57.9482421875 197.9453125 45.4287109375 c 0,2,3
 197.9453125 31.6328125 197.9453125 31.6328125 181.702148438 15.3896484375 c 2,4,-1
 66.576171875 -96.4111328125 l 2,5,6
 42.4345703125 -112.877929688 42.4345703125 -112.877929688 37.046875 -112.877929688 c 0,7,8
 36.5732421875 -112.877929688 36.5732421875 -112.877929688 36.2451171875 -112.750976562 c 1,9,10
 22.267578125 -112.750976562 22.267578125 -112.750976562 5.9912109375 -96.46484375 c 0,11,12
 -2.1845703125 -88.2890625 -2.1845703125 -88.2890625 -6.2216796875 -80.712890625 c 128,-1,13
 -10.259765625 -73.1337890625 -10.259765625 -73.1337890625 -10.2607421875 -66.1962890625 c 0,14,15
 -10.2607421875 -52.1875 -10.2607421875 -52.1875 5.91015625 -36.041015625 c 2,16,-1
 120.94140625 75.6669921875 l 2,17,18
 132.887695312 87.2412109375 132.887695312 87.2412109375 150.03515625 87.287109375 c 0,19,20
 165.584960938 87.328125 165.584960938 87.328125 179.001953125 77.728515625 c 1,21,-1
 184.458007812 72.84375 l 1,0,1
156.1875 452.900390625 m 0,22,23
 179 453 179 453 189.096679688 443.000976562 c 128,-1,24
 199 433 199 433 199 410.119140625 c 0,25,26
 199 387 199 387 189.08984375 377.204101562 c 0,27,28
 179 367 179 367 156.219726562 367.299804688 c 0,29,30
 133 367 133 367 123.3046875 377.2109375 c 0,31,32
 113 387 113 387 113.400390625 410.087890625 c 0,33,34
 113 433 113 433 123.299804688 442.998046875 c 0,35,36
 133 453 133 453 156.1875 452.900390625 c 0,22,23
EndSplineSet
EndChar

StartChar: comma
Encoding: 44 44 21
Width: 182
VWidth: -20
Flags: W
LayerCount: 2
Fore
SplineSet
97.669921875 86.9375 m 132,-1,1
 114.944335938 86.9375 114.944335938 86.9375 129.591796875 75.017578125 c 4,2,3
 145.4453125 58.6572265625 145.4453125 58.6572265625 145.4453125 45.0791015625 c 4,4,5
 145.4453125 44.9619140625 145.4453125 44.9619140625 145.444335938 44.845703125 c 4,6,7
 145.306640625 31.14453125 145.306640625 31.14453125 129.202148438 15.0400390625 c 6,8,-1
 14.076171875 -96.7607421875 l 6,9,10
 -2.25390625 -113.1015625 -2.25390625 -113.1015625 -16.2548828125 -113.1015625 c 5,11,12
 -16.5849609375 -113.228515625 -16.5849609375 -113.228515625 -17.0595703125 -113.228515625 c 4,13,14
 -22.451171875 -113.228515625 -22.451171875 -113.228515625 -46.5078125 -96.8154296875 c 4,15,16
 -62.7548828125 -80.5673828125 -62.7548828125 -80.5673828125 -62.759765625 -66.5546875 c 4,17,-1
 -62.759765625 -66.5458984375 l 4,18,19
 -62.759765625 -52.5380859375 -62.759765625 -52.5380859375 -46.587890625 -36.390625 c 6,20,-1
 68.4423828125 75.3173828125 l 6,21,0
 80.4365234375 86.9375 80.4365234375 86.9375 97.669921875 86.9375 c 132,-1,1
129.591796875 75.017578125 m 5,22,-1
 129.591796875 75.017578125 l 5,22,-1
EndSplineSet
EndChar

StartChar: period
Encoding: 46 46 22
Width: 185
VWidth: -4
Flags: W
LayerCount: 2
Fore
SplineSet
92.8353579435 101.062509627 m 132,-1,1
 115.791990262 101.062509627 115.791990262 101.062509627 125.686523438 91.17578125 c 132,-1,2
 135.58984375 81.279296875 135.58984375 81.279296875 135.599609375 58.2939453125 c 132,-1,3
 135.58984375 35.2861328125 135.58984375 35.2861328125 125.686523438 25.3876953125 c 132,-1,4
 115.7929649 15.499990374 115.7929649 15.499990374 92.8324314862 15.499990374 c 4,5,-1
 92.787109375 15.5 l 4,6,7
 69.794921875 15.5 69.794921875 15.5 59.8974609375 25.3984375 c 132,-1,8
 50 35.296875 50 35.296875 50 58.287109375 c 132,-1,9
 50 81.2724609375 50 81.2724609375 59.8984375 91.1669921875 c 132,-1,0
 69.792964413 101.057614779 69.792964413 101.057614779 92.8353579435 101.062509627 c 132,-1,1
EndSplineSet
Validated: 1
EndChar

StartChar: slash
Encoding: 47 47 23
Width: 435
VWidth: 79
Flags: W
LayerCount: 2
Fore
SplineSet
377.904296875 784.485351562 m 2,0,-1
 379.240234375 784.506835938 l 2,1,2
 401.161132812 784.506835938 401.161132812 784.506835938 410.580078125 775.08203125 c 128,-1,3
 420 765.65625 420 765.65625 420 743.637695312 c 0,4,5
 420 733.149414062 420 733.149414062 414.87109375 723.826171875 c 0,6,-1
 414.837890625 723.762695312 l 1,7,-1
 81.9482421875 37.7353515625 l 2,8,9
 76.0302734375 26.072265625 76.0302734375 26.072265625 67.2763671875 20.6953125 c 128,-1,10
 58.5244140625 15.3193359375 58.5244140625 15.3193359375 45.4814453125 15.3193359375 c 0,11,12
 23.439453125 15.3193359375 23.439453125 15.3193359375 14.01953125 24.7373046875 c 128,-1,13
 4.599609375 34.1552734375 4.599609375 34.1552734375 4.599609375 56.1884765625 c 0,14,15
 4.599609375 66.7666015625 4.599609375 66.7666015625 9.8291015625 76.154296875 c 0,16,-1
 9.8662109375 76.2255859375 l 1,17,-1
 342.750976562 762.2421875 l 2,18,19
 353.803710938 783.821289062 353.803710938 783.821289062 377.904296875 784.485351562 c 2,0,-1
EndSplineSet
EndChar

StartChar: zero
Encoding: 48 48 24
Width: 521
VWidth: 0
Flags: W
LayerCount: 2
Fore
SplineSet
228.880859375 0 m 2,0,1
 151.840820312 0 151.840820312 0 96.9208984375 54.912109375 c 128,-1,2
 42 109.823242188 42 109.823242188 42 186.861328125 c 2,3,-1
 42 513.114257812 l 2,4,5
 42 590.150390625 42 590.150390625 96.921875 645.072265625 c 128,-1,6
 151.842773438 699.995117188 151.842773438 699.995117188 228.880859375 699.995117188 c 2,7,-1
 292.354492188 699.995117188 l 2,8,9
 369.392578125 699.995117188 369.392578125 699.995117188 424.313476562 645.072265625 c 128,-1,10
 479.235351562 590.150390625 479.235351562 590.150390625 479.235351562 513.114257812 c 2,11,-1
 479.235351562 186.861328125 l 2,12,13
 479.235351562 109.823242188 479.235351562 109.823242188 424.314453125 54.912109375 c 128,-1,14
 369.393554688 0 369.393554688 0 292.354492188 0 c 2,15,-1
 228.880859375 0 l 2,0,1
228.880859375 82.3525390625 m 2,16,-1
 292.354492188 82.3525390625 l 2,17,18
 336.016601562 82.3525390625 336.016601562 82.3525390625 366.450195312 112.77734375 c 128,-1,19
 396.8828125 143.201171875 396.8828125 143.201171875 396.8828125 186.861328125 c 2,20,-1
 396.8828125 513.114257812 l 2,21,22
 396.8828125 556.767578125 396.8828125 556.767578125 366.446289062 587.205078125 c 128,-1,23
 336.009765625 617.642578125 336.009765625 617.642578125 292.354492188 617.642578125 c 2,24,-1
 228.880859375 617.642578125 l 2,25,26
 185.224609375 617.642578125 185.224609375 617.642578125 154.788085938 587.205078125 c 128,-1,27
 124.352539062 556.767578125 124.352539062 556.767578125 124.352539062 513.114257812 c 2,28,-1
 124.352539062 186.861328125 l 2,29,30
 124.352539062 143.201171875 124.352539062 143.201171875 154.78515625 112.77734375 c 128,-1,31
 185.21875 82.3525390625 185.21875 82.3525390625 228.880859375 82.3525390625 c 2,16,-1
EndSplineSet
EndChar

StartChar: one
Encoding: 49 49 25
Width: 331
VWidth: 79
Flags: W
LayerCount: 2
Fore
SplineSet
224.482421875 0.00390625 m 0,0,1
 207.706054688 0.2578125 207.706054688 0.2578125 195.833007812 12.3134765625 c 128,-1,2
 183.959960938 24.3681640625 183.959960938 24.3681640625 183.959960938 41.146484375 c 0,3,4
 183.959960938 41.513671875 183.959960938 41.513671875 183.963867188 41.728515625 c 2,5,-1
 183.963867188 601.4609375 l 2,6,7
 183.963867188 608.1953125 183.963867188 608.1953125 179.22265625 612.931640625 c 0,8,-1
 179.176757812 612.955078125 l 2,9,10
 174.420898438 617.715820312 174.420898438 617.715820312 167.706054688 617.715820312 c 2,11,-1
 96.8134765625 617.715820312 l 2,12,13
 96.505859375 617.7109375 96.505859375 617.7109375 96.146484375 617.7109375 c 0,14,15
 79.111328125 617.7109375 79.111328125 617.7109375 67.0556640625 629.766601562 c 128,-1,16
 55 641.823242188 55 641.823242188 55 658.858398438 c 128,-1,17
 55 675.892578125 55 675.892578125 67.0556640625 687.94921875 c 128,-1,18
 79.111328125 700.004882812 79.111328125 700.004882812 96.146484375 700.004882812 c 0,19,20
 96.505859375 700.004882812 96.505859375 700.004882812 96.8134765625 700 c 2,21,-1
 167.706054688 700 l 2,22,23
 208.517578125 700 208.517578125 700 237.374023438 671.131835938 c 128,-1,24
 266.245117188 642.272460938 266.245117188 642.272460938 266.245117188 601.4609375 c 2,25,-1
 266.245117188 41.728515625 l 2,26,27
 266.249023438 41.40625 266.249023438 41.40625 266.249023438 41.146484375 c 0,28,29
 266.249023438 24.111328125 266.249023438 24.111328125 254.193359375 12.0546875 c 128,-1,30
 242.13671875 -0.0009765625 242.13671875 -0.0009765625 225.1015625 -0.0009765625 c 0,31,32
 224.766601562 -0.0009765625 224.766601562 -0.0009765625 224.482421875 0.00390625 c 0,0,1
EndSplineSet
EndChar

StartChar: three
Encoding: 51 51 26
Width: 514
VWidth: 0
Flags: W
LayerCount: 2
Fore
SplineSet
80.923828125 0 m 2,0,1
 63.9560546875 0 63.9560546875 0 51.9580078125 11.998046875 c 128,-1,2
 39.9599609375 23.9970703125 39.9599609375 23.9970703125 39.9599609375 40.96484375 c 128,-1,3
 39.9599609375 57.953125 39.9599609375 57.953125 51.9580078125 69.951171875 c 128,-1,4
 63.9560546875 81.94921875 63.9560546875 81.94921875 80.923828125 81.94921875 c 2,5,-1
 258.491210938 81.94921875 l 1,6,-1
 259.239257812 81.94921875 l 2,7,8
 306.381835938 82.2412109375 306.381835938 82.2412109375 339.206054688 115.272460938 c 128,-1,9
 372.030273438 148.302734375 372.030273438 148.302734375 372.030273438 195.498046875 c 128,-1,10
 372.030273438 242.888671875 372.030273438 242.888671875 338.95703125 275.95703125 c 128,-1,11
 305.883789062 309.026367188 305.883789062 309.026367188 258.491210938 309.026367188 c 2,12,-1
 193.653320312 309.026367188 l 2,13,14
 176.6796875 309.026367188 176.6796875 309.026367188 164.666992188 321.025390625 c 128,-1,15
 152.668945312 333.0390625 152.668945312 333.0390625 152.668945312 350.01171875 c 128,-1,16
 152.668945312 366.98828125 152.668945312 366.98828125 164.666992188 378.98828125 c 128,-1,17
 176.689453125 390.99609375 176.689453125 390.99609375 193.653320312 390.99609375 c 2,18,-1
 258.7578125 390.99609375 l 2,19,20
 306.060546875 391.096679688 306.060546875 391.096679688 339.044921875 424.151367188 c 128,-1,21
 372.030273438 457.206054688 372.030273438 457.206054688 372.030273438 504.524414062 c 128,-1,22
 372.030273438 551.915039062 372.030273438 551.915039062 338.95703125 584.983398438 c 128,-1,23
 305.883789062 618.052734375 305.883789062 618.052734375 258.491210938 618.052734375 c 2,24,-1
 80.923828125 618.052734375 l 2,25,26
 63.9560546875 618.052734375 63.9560546875 618.052734375 51.9580078125 630.05078125 c 128,-1,27
 39.9599609375 642.049804688 39.9599609375 642.049804688 39.9599609375 659.017578125 c 128,-1,28
 39.9599609375 676.005859375 39.9599609375 676.005859375 51.9580078125 688.004882812 c 128,-1,29
 63.9560546875 700.002929688 63.9560546875 700.002929688 80.923828125 700.002929688 c 2,30,-1
 258.491210938 700.002929688 l 2,31,32
 339.112304688 700.002929688 339.112304688 700.002929688 396.556640625 642.569335938 c 128,-1,33
 454 585.135742188 454 585.135742188 454 504.524414062 c 0,34,35
 454 458.360351562 454 458.360351562 433.524414062 417.91015625 c 128,-1,36
 413.048828125 377.459960938 413.048828125 377.459960938 377.573242188 350.01171875 c 1,37,38
 413.053710938 322.565429688 413.053710938 322.565429688 433.526367188 282.115234375 c 128,-1,39
 454 241.666015625 454 241.666015625 454 195.498046875 c 0,40,41
 454 114.88671875 454 114.88671875 396.551757812 57.443359375 c 128,-1,42
 339.104492188 0 339.104492188 0 258.491210938 0 c 2,43,-1
 80.923828125 0 l 2,0,1
EndSplineSet
EndChar

StartChar: four
Encoding: 52 52 27
Width: 496
VWidth: 0
Flags: W
LayerCount: 2
Fore
SplineSet
335.12890625 0 m 0,0,1
 318.353515625 0.25390625 318.353515625 0.25390625 306.479492188 12.30859375 c 128,-1,2
 294.606445312 24.3623046875 294.606445312 24.3623046875 294.606445312 41.140625 c 0,3,4
 294.606445312 41.4013671875 294.606445312 41.4013671875 294.610351562 41.7236328125 c 2,5,-1
 294.610351562 153.958007812 l 1,6,-1
 71.408203125 153.958007812 l 2,7,8
 54.3779296875 153.958984375 54.3779296875 153.958984375 42.3232421875 166.013671875 c 128,-1,9
 30.2685546875 178.068359375 30.2685546875 178.068359375 30.2666015625 195.099609375 c 2,10,-1
 30.2666015625 258.919921875 l 2,11,12
 30.275390625 268.95703125 30.275390625 268.95703125 34.9072265625 277.86328125 c 2,13,-1
 242.622070312 677.8046875 l 2,14,15
 247.390625 686.983398438 247.390625 686.983398438 258.084960938 693.481445312 c 128,-1,16
 268.779296875 699.979492188 268.779296875 699.979492188 279.122070312 699.982421875 c 2,17,-1
 335.751953125 699.982421875 l 2,18,19
 352.782226562 699.98046875 352.782226562 699.98046875 364.836914062 687.926757812 c 128,-1,20
 376.891601562 675.872070312 376.891601562 675.872070312 376.892578125 658.841796875 c 2,21,-1
 376.892578125 236.240234375 l 1,22,-1
 404.2734375 236.240234375 l 2,23,24
 404.59375 236.244140625 404.59375 236.244140625 404.854492188 236.244140625 c 0,25,26
 421.888671875 236.244140625 421.888671875 236.244140625 433.944335938 224.188476562 c 128,-1,27
 446 212.133789062 446 212.133789062 446 195.099609375 c 128,-1,28
 446 178.065429688 446 178.065429688 433.944335938 166.009765625 c 128,-1,29
 421.888671875 153.954101562 421.888671875 153.954101562 404.854492188 153.954101562 c 0,30,31
 404.59375 153.954101562 404.59375 153.954101562 404.2734375 153.958007812 c 2,32,-1
 376.892578125 153.958007812 l 1,33,-1
 376.892578125 41.7236328125 l 2,34,35
 376.897460938 41.455078125 376.897460938 41.455078125 376.897460938 41.140625 c 0,36,37
 376.897460938 24.1064453125 376.897460938 24.1064453125 364.841796875 12.05078125 c 128,-1,38
 352.786132812 -0.0048828125 352.786132812 -0.0048828125 335.751953125 -0.0048828125 c 0,39,40
 335.416015625 -0.0048828125 335.416015625 -0.0048828125 335.12890625 0 c 0,0,1
112.548828125 236.240234375 m 1,41,-1
 294.610351562 236.240234375 l 1,42,-1
 294.610351562 599.399414062 l 1,43,-1
 112.548828125 248.85546875 l 1,44,-1
 112.548828125 236.240234375 l 1,41,-1
EndSplineSet
EndChar

StartChar: six
Encoding: 54 54 28
Width: 506
VWidth: 0
Flags: W
LayerCount: 2
Fore
SplineSet
230.884765625 0 m 2,0,1
 156.172851562 0 156.172851562 0 103.334960938 52.837890625 c 128,-1,2
 50.4970703125 105.67578125 50.4970703125 105.67578125 50.4970703125 180.387695312 c 2,3,-1
 50.4970703125 519.58984375 l 2,4,5
 50.4970703125 593.947265625 50.4970703125 593.947265625 103.513671875 646.97265625 c 128,-1,6
 156.53125 699.998046875 156.53125 699.998046875 230.884765625 699.998046875 c 2,7,-1
 393.94140625 699.998046875 l 2,8,9
 411.573242188 700.001953125 411.573242188 700.001953125 423.639648438 687.935546875 c 128,-1,10
 435.706054688 675.870117188 435.706054688 675.870117188 435.706054688 658.821289062 c 128,-1,11
 435.706054688 641.772460938 435.706054688 641.772460938 423.639648438 629.70703125 c 128,-1,12
 411.573242188 617.640625 411.573242188 617.640625 394.525390625 617.640625 c 0,13,-1
 230.884765625 617.645507812 l 2,14,15
 189.912109375 617.645507812 189.912109375 617.645507812 161.381835938 589.10546875 c 128,-1,16
 132.850585938 560.56640625 132.850585938 560.56640625 132.850585938 519.58984375 c 2,17,-1
 132.850585938 411.541992188 l 1,18,19
 191.509765625 411.252929688 191.509765625 411.252929688 286.497070312 410.778320312 c 0,20,21
 360.59765625 410.419921875 360.59765625 410.419921875 413.298828125 357.459960938 c 128,-1,22
 466 304.499023438 466 304.499023438 466 230.391601562 c 2,23,-1
 466 180.388671875 l 2,24,25
 466 105.673828125 466 105.673828125 413.163085938 52.8388671875 c 0,26,-1
 413.163085938 52.8154296875 l 1,27,28
 360.32421875 -0.001953125 360.32421875 -0.001953125 285.612304688 -0.001953125 c 2,29,-1
 230.884765625 0 l 2,0,1
230.884765625 82.3525390625 m 2,30,-1
 285.612304688 82.3525390625 l 2,31,32
 326.212890625 82.3525390625 326.212890625 82.3525390625 354.936523438 111.063476562 c 128,-1,33
 383.647460938 139.774414062 383.647460938 139.774414062 383.647460938 180.387695312 c 2,34,-1
 383.647460938 230.390625 l 2,35,36
 383.647460938 271.227539062 383.647460938 271.227539062 355.284179688 299.73828125 c 128,-1,37
 326.920898438 328.248046875 326.920898438 328.248046875 286.094726562 328.4453125 c 0,38,-1
 286.072265625 328.4453125 l 2,39,40
 253.854492188 328.606445312 253.854492188 328.606445312 221.267578125 328.764648438 c 128,-1,41
 188.681640625 328.922851562 188.681640625 328.922851562 164.071289062 329.040039062 c 128,-1,42
 139.4609375 329.158203125 139.4609375 329.158203125 132.846679688 329.190429688 c 1,43,-1
 132.846679688 180.388671875 l 2,44,45
 132.846679688 139.7734375 132.846679688 139.7734375 161.557617188 111.064453125 c 128,-1,46
 190.268554688 82.353515625 190.268554688 82.353515625 230.884765625 82.3525390625 c 2,30,-1
EndSplineSet
EndChar

StartChar: five
Encoding: 53 53 29
Width: 527
VWidth: 0
Flags: W
LayerCount: 2
Fore
SplineSet
92.0927734375 0 m 2,0,1
 91.7705078125 -0.00390625 91.7705078125 -0.00390625 91.5107421875 -0.00390625 c 0,2,3
 74.4619140625 -0.00390625 74.4619140625 -0.00390625 62.396484375 12.0615234375 c 128,-1,4
 50.3310546875 24.126953125 50.3310546875 24.126953125 50.3310546875 41.17578125 c 128,-1,5
 50.3310546875 58.224609375 50.3310546875 58.224609375 62.396484375 70.2900390625 c 128,-1,6
 74.4619140625 82.35546875 74.4619140625 82.35546875 91.5107421875 82.35546875 c 0,7,8
 91.7705078125 82.35546875 91.7705078125 82.35546875 92.0927734375 82.3515625 c 2,9,-1
 298.192382812 82.3515625 l 2,10,11
 333.790039062 82.3515625 333.790039062 82.3515625 358.911132812 107.483398438 c 0,12,-1
 358.911132812 107.506835938 l 1,13,14
 384.0625 132.658203125 384.0625 132.658203125 384.0625 168.224609375 c 2,15,-1
 384.0625 262.740234375 l 2,16,17
 384.0625 298.318359375 384.0625 298.318359375 358.911132812 323.458007812 c 0,18,-1
 358.911132812 323.481445312 l 1,19,20
 333.770507812 348.6328125 333.770507812 348.6328125 298.192382812 348.6328125 c 2,21,-1
 153.072265625 348.6328125 l 2,22,23
 111.119140625 348.6328125 111.119140625 348.6328125 81.017578125 378.736328125 c 128,-1,24
 50.9169921875 408.838867188 50.9169921875 408.838867188 50.9169921875 450.7890625 c 2,25,-1
 50.9169921875 658.819335938 l 2,26,27
 50.91796875 675.864257812 50.91796875 675.864257812 62.982421875 687.928710938 c 128,-1,28
 75.046875 699.994140625 75.046875 699.994140625 92.0927734375 699.995117188 c 2,29,-1
 425.23828125 699.995117188 l 2,30,31
 425.560546875 699.999023438 425.560546875 699.999023438 425.819335938 699.999023438 c 0,32,33
 442.868164062 699.999023438 442.868164062 699.999023438 454.93359375 687.93359375 c 128,-1,34
 467 675.868164062 467 675.868164062 467 658.819335938 c 128,-1,35
 467 641.770507812 467 641.770507812 454.93359375 629.705078125 c 128,-1,36
 442.868164062 617.639648438 442.868164062 617.639648438 425.819335938 617.639648438 c 0,37,38
 425.453125 617.639648438 425.453125 617.639648438 425.23828125 617.643554688 c 2,39,-1
 133.268554688 617.643554688 l 1,40,-1
 133.268554688 450.7890625 l 2,41,42
 133.268554688 442.21484375 133.268554688 442.21484375 138.884765625 436.599609375 c 128,-1,43
 144.501953125 430.984375 144.501953125 430.984375 153.072265625 430.984375 c 2,44,-1
 298.192382812 430.984375 l 2,45,46
 367.879882812 430.984375 367.879882812 430.984375 417.135742188 381.70703125 c 128,-1,47
 466.4140625 332.448242188 466.4140625 332.448242188 466.4140625 262.743164062 c 2,48,-1
 466.4140625 168.227539062 l 2,49,50
 466.4140625 98.5703125 466.4140625 98.5703125 417.135742188 49.2841796875 c 128,-1,51
 367.87890625 0.005859375 367.87890625 0.005859375 298.192382812 0.005859375 c 2,52,-1
 92.0927734375 0 l 2,0,1
EndSplineSet
EndChar

StartChar: seven
Encoding: 55 55 30
Width: 477
VWidth: 0
Flags: W
LayerCount: 2
Fore
SplineSet
134.651367188 0 m 0,0,1
 118.40625 0.7548828125 118.40625 0.7548828125 106.909179688 12.7998046875 c 128,-1,2
 95.4111328125 24.84375 95.4111328125 24.84375 95.4111328125 41.1064453125 c 0,3,4
 95.4111328125 50.4345703125 95.4111328125 50.4345703125 99.431640625 58.8466796875 c 0,5,6
 267.836914062 424.524414062 267.836914062 424.524414062 345.287109375 592.709960938 c 0,7,8
 349.29296875 601.463867188 349.29296875 601.463867188 344.118164062 609.56640625 c 128,-1,9
 338.904296875 617.703125 338.904296875 617.703125 329.271484375 617.703125 c 2,10,-1
 91.3515625 617.703125 l 2,11,12
 91.03125 617.69921875 91.03125 617.69921875 90.7705078125 617.69921875 c 0,13,14
 73.734375 617.69921875 73.734375 617.69921875 61.677734375 629.755859375 c 128,-1,15
 49.6201171875 641.813476562 49.6201171875 641.813476562 49.6201171875 658.849609375 c 128,-1,16
 49.6201171875 675.88671875 49.6201171875 675.88671875 61.677734375 687.943359375 c 128,-1,17
 73.734375 700.000976562 73.734375 700.000976562 90.7705078125 700.000976562 c 0,18,19
 91.0849609375 700.000976562 91.0849609375 700.000976562 91.3515625 699.99609375 c 2,20,-1
 329.271484375 699.99609375 l 2,21,22
 354.770507812 699.99609375 354.770507812 699.99609375 377.211914062 687.716796875 c 128,-1,23
 399.654296875 675.438476562 399.654296875 675.438476562 413.413085938 653.967773438 c 0,24,-1
 413.413085938 653.944335938 l 1,25,26
 442.869140625 607.938476562 442.869140625 607.938476562 420.0234375 558.290039062 c 2,27,-1
 174.16796875 24.427734375 l 2,28,29
 169.67578125 14.294921875 169.67578125 14.294921875 158.653320312 7.1240234375 c 128,-1,30
 147.630859375 -0.046875 147.630859375 -0.046875 136.546875 -0.046875 c 0,31,32
 135.590820312 -0.046875 135.590820312 -0.046875 134.651367188 0 c 0,0,1
EndSplineSet
EndChar

StartChar: eight
Encoding: 56 56 31
Width: 471
VWidth: 0
Flags: W
LayerCount: 2
Fore
SplineSet
235.500976562 700 m 128,-1,1
 316.116210938 700 316.116210938 700 373.557617188 642.56640625 c 128,-1,2
 431 585.131835938 431 585.131835938 431 504.521484375 c 0,3,4
 431 458.357421875 431 458.357421875 410.525390625 417.90625 c 128,-1,5
 390.049804688 377.456054688 390.049804688 377.456054688 354.573242188 350.0078125 c 1,6,7
 390.0546875 322.561523438 390.0546875 322.561523438 410.52734375 282.111328125 c 128,-1,8
 431 241.661132812 431 241.661132812 431 195.493164062 c 0,9,10
 431 114.880859375 431 114.880859375 373.556640625 57.4375 c 128,-1,11
 316.114257812 -0.005859375 316.114257812 -0.005859375 235.500976562 -0.005859375 c 128,-1,12
 154.888671875 -0.005859375 154.888671875 -0.005859375 97.4453125 57.4375 c 128,-1,13
 40.001953125 114.880859375 40.001953125 114.880859375 40.001953125 195.493164062 c 0,14,15
 40.001953125 241.66015625 40.001953125 241.66015625 60.4755859375 282.111328125 c 128,-1,16
 80.94921875 322.561523438 80.94921875 322.561523438 116.428710938 350.0078125 c 1,17,18
 80.953125 377.456054688 80.953125 377.456054688 60.4775390625 417.90625 c 128,-1,19
 40.001953125 458.357421875 40.001953125 458.357421875 40.001953125 504.521484375 c 0,20,21
 40.001953125 585.131835938 40.001953125 585.131835938 97.4443359375 642.56640625 c 128,-1,0
 154.88671875 700 154.88671875 700 235.500976562 700 c 128,-1,1
235.500976562 618.049804688 m 128,-1,23
 188.110351562 618.049804688 188.110351562 618.049804688 155.041992188 584.981445312 c 128,-1,24
 121.97265625 551.913085938 121.97265625 551.913085938 121.97265625 504.521484375 c 128,-1,25
 121.97265625 457.205078125 121.97265625 457.205078125 154.95703125 424.15234375 c 128,-1,26
 187.940429688 391.100585938 187.940429688 391.100585938 235.245117188 390.9921875 c 0,27,-1
 235.756835938 390.9921875 l 2,28,29
 283.0625 391.099609375 283.0625 391.099609375 316.046875 424.15234375 c 128,-1,30
 349.030273438 457.204101562 349.030273438 457.204101562 349.030273438 504.521484375 c 128,-1,31
 349.030273438 551.913085938 349.030273438 551.913085938 315.961914062 584.981445312 c 128,-1,22
 282.893554688 618.049804688 282.893554688 618.049804688 235.500976562 618.049804688 c 128,-1,23
235.500976562 309.022460938 m 128,-1,33
 188.110351562 309.022460938 188.110351562 309.022460938 155.041015625 275.954101562 c 128,-1,34
 121.97265625 242.884765625 121.97265625 242.884765625 121.97265625 195.493164062 c 128,-1,35
 121.97265625 148.099609375 121.97265625 148.099609375 155.041992188 115.022460938 c 128,-1,36
 188.112304688 81.9443359375 188.112304688 81.9443359375 235.500976562 81.9443359375 c 128,-1,37
 282.891601562 81.9443359375 282.891601562 81.9443359375 315.9609375 115.022460938 c 128,-1,38
 349.030273438 148.099609375 349.030273438 148.099609375 349.030273438 195.493164062 c 128,-1,39
 349.030273438 242.884765625 349.030273438 242.884765625 315.961914062 275.954101562 c 128,-1,32
 282.893554688 309.022460938 282.893554688 309.022460938 235.500976562 309.022460938 c 128,-1,33
EndSplineSet
EndChar

StartChar: nine
Encoding: 57 57 32
Width: 506
VWidth: 0
Flags: W
LayerCount: 2
Fore
SplineSet
112.55859375 0 m 2,0,1
 94.927734375 -0.00390625 94.927734375 -0.00390625 82.8623046875 12.0625 c 128,-1,2
 70.796875 24.1279296875 70.796875 24.1279296875 70.796875 41.1767578125 c 128,-1,3
 70.796875 58.2255859375 70.796875 58.2255859375 82.8623046875 70.291015625 c 128,-1,4
 94.927734375 82.357421875 94.927734375 82.357421875 111.9765625 82.357421875 c 0,5,-1
 275.615234375 82.3525390625 l 2,6,7
 316.588867188 82.3525390625 316.588867188 82.3525390625 345.120117188 110.8828125 c 128,-1,8
 373.650390625 139.4140625 373.650390625 139.4140625 373.650390625 180.387695312 c 2,9,-1
 373.650390625 288.435546875 l 1,10,11
 363.57421875 288.486328125 363.57421875 288.486328125 311.424804688 288.736328125 c 128,-1,12
 259.276367188 288.987304688 259.276367188 288.987304688 220.022460938 289.1796875 c 0,13,-1
 220 289.1796875 l 2,14,15
 145.901367188 289.547851562 145.901367188 289.547851562 93.19921875 342.516601562 c 128,-1,16
 40.4970703125 395.484375 40.4970703125 395.484375 40.4970703125 469.587890625 c 2,17,-1
 40.4970703125 519.58984375 l 2,18,19
 40.4970703125 594.32421875 40.4970703125 594.32421875 93.3544921875 647.16015625 c 128,-1,20
 146.201171875 699.998046875 146.201171875 699.998046875 220.905273438 699.998046875 c 2,21,-1
 275.612304688 699.998046875 l 2,22,23
 350.344726562 699.998046875 350.344726562 699.998046875 403.182617188 647.16015625 c 128,-1,24
 456 594.342773438 456 594.342773438 456 519.58984375 c 2,25,-1
 456 180.388671875 l 2,26,27
 456 106.033203125 456 106.033203125 402.983398438 53.017578125 c 128,-1,28
 349.967773438 0.0009765625 349.967773438 0.0009765625 275.612304688 0.0009765625 c 2,29,-1
 112.55859375 0 l 2,0,1
373.650390625 370.788085938 m 1,30,-1
 373.650390625 519.58984375 l 2,31,32
 373.650390625 560.201171875 373.650390625 560.201171875 344.939453125 588.9140625 c 128,-1,33
 316.208984375 617.64453125 316.208984375 617.64453125 275.615234375 617.64453125 c 2,34,-1
 220.907226562 617.64453125 l 2,35,36
 180.313476562 617.64453125 180.313476562 617.64453125 151.583007812 588.9140625 c 128,-1,37
 122.852539062 560.194335938 122.852539062 560.194335938 122.852539062 519.58984375 c 2,38,-1
 122.852539062 469.586914062 l 2,39,40
 122.852539062 428.760742188 122.852539062 428.760742188 151.224609375 400.248046875 c 128,-1,41
 179.596679688 371.735351562 179.596679688 371.735351562 220.424804688 371.532226562 c 0,42,43
 258.836914062 371.34375 258.836914062 371.34375 310.946289062 371.092773438 c 128,-1,44
 363.056640625 370.840820312 363.056640625 370.840820312 373.650390625 370.788085938 c 1,30,-1
EndSplineSet
EndChar

StartChar: colon
Encoding: 58 58 33
Width: 316
VWidth: 77
Flags: W
LayerCount: 2
Fore
SplineSet
157.795898438 458.901367188 m 128,-1,1
 183.485351562 458.901367188 183.485351562 458.901367188 194.7421875 447.637695312 c 128,-1,2
 206 436.374023438 206 436.374023438 206 410.743164062 c 128,-1,3
 205.984375 385.060546875 205.984375 385.060546875 194.715820312 373.8046875 c 128,-1,4
 183.446289062 362.548828125 183.446289062 362.548828125 157.814453125 362.548828125 c 128,-1,5
 132.134765625 362.548828125 132.134765625 362.548828125 120.881835938 373.811523438 c 128,-1,6
 109.62890625 385.075195312 109.62890625 385.075195312 109.62890625 410.715820312 c 128,-1,7
 109.62890625 436.395507812 109.62890625 436.395507812 120.891601562 447.6484375 c 128,-1,0
 132.155273438 458.901367188 132.155273438 458.901367188 157.795898438 458.901367188 c 128,-1,1
157.795898438 142.537109375 m 128,-1,9
 183.465820312 142.537109375 183.465820312 142.537109375 194.724609375 131.272460938 c 128,-1,10
 205.984375 120.006835938 205.984375 120.006835938 206 94.3798828125 c 128,-1,11
 205.984375 68.70703125 205.984375 68.70703125 194.716796875 57.4560546875 c 128,-1,12
 183.447265625 46.2041015625 183.447265625 46.2041015625 157.814453125 46.2041015625 c 128,-1,13
 132.134765625 46.2041015625 132.134765625 46.2041015625 120.881835938 57.466796875 c 128,-1,14
 109.62890625 68.73046875 109.62890625 68.73046875 109.62890625 94.37109375 c 128,-1,15
 109.62890625 120.040039062 109.62890625 120.040039062 120.891601562 131.288085938 c 128,-1,8
 132.154296875 142.537109375 132.154296875 142.537109375 157.795898438 142.537109375 c 128,-1,9
EndSplineSet
EndChar

StartChar: equal
Encoding: 61 61 34
Width: 553
VWidth: 0
Flags: W
LayerCount: 2
Fore
SplineSet
87.671875 489.45703125 m 2,0,-1
 465.895507812 489.45703125 l 2,1,2
 504 489 504 489 503.99609375 452 c 0,3,4
 504.000048383 414.541713488 504.000048383 414.541713488 466.5390625 414.54296875 c 2,5,-1
 87.6708984375 414.555664062 l 2,6,7
 50 415 50 415 49.5703125 452 c 0,8,9
 50 489 50 489 87.671875 489.45703125 c 2,0,-1
87.6728515625 259.244140625 m 2,10,-1
 465.893554688 259.244140625 l 2,11,12
 504 259 504 259 503.99609375 221.787109375 c 0,13,14
 503.999965878 184.330078125 503.999965878 184.330078125 466.5390625 184.330078125 c 2,15,-1
 87.6728515625 184.330078125 l 2,16,17
 50 184 50 184 49.5703125 221.787109375 c 0,18,19
 50 259 50 259 87.6728515625 259.244140625 c 2,10,-1
EndSplineSet
EndChar

StartChar: percent
Encoding: 37 37 35
Width: 770
VWidth: 0
Flags: W
LayerCount: 2
Fore
SplineSet
596.225585938 695.592773438 m 0,0,1
 613.23828125 695.583007812 613.23828125 695.583007812 625.278320312 683.536132812 c 128,-1,2
 637.318359375 671.489257812 637.318359375 671.489257812 637.318359375 654.477539062 c 0,3,4
 637.318359375 641.084960938 637.318359375 641.084960938 629.432617188 630.264648438 c 2,5,-1
 198.501953125 20.955078125 l 2,6,7
 186.255859375 3.0654296875 186.255859375 3.0654296875 164.575195312 3.0654296875 c 0,8,9
 147.553710938 3.0654296875 147.553710938 3.0654296875 135.506835938 15.1123046875 c 128,-1,10
 123.459960938 27.158203125 123.459960938 27.158203125 123.459960938 44.1806640625 c 0,11,12
 123.459960938 57.5966796875 123.459960938 57.5966796875 131.373046875 68.4306640625 c 2,13,-1
 562.303710938 677.741210938 l 2,14,15
 574.555664062 695.592773438 574.555664062 695.592773438 596.225585938 695.592773438 c 0,0,1
188.278320312 676.17578125 m 128,-1,17
 245.91796875 676.17578125 245.91796875 676.17578125 286.236328125 635.857421875 c 128,-1,18
 326.5546875 595.540039062 326.5546875 595.540039062 326.5546875 537.8984375 c 128,-1,19
 326.5546875 480.256835938 326.5546875 480.256835938 286.236328125 439.939453125 c 128,-1,20
 245.918945312 399.62109375 245.918945312 399.62109375 188.27734375 399.62109375 c 128,-1,21
 130.635742188 399.62109375 130.635742188 399.62109375 90.318359375 439.939453125 c 128,-1,22
 50 480.256835938 50 480.256835938 50 537.8984375 c 128,-1,23
 50 595.540039062 50 595.540039062 90.318359375 635.857421875 c 128,-1,16
 130.63671875 676.17578125 130.63671875 676.17578125 188.278320312 676.17578125 c 128,-1,17
188.278320312 594.470703125 m 128,-1,25
 165.2109375 594.470703125 165.2109375 594.470703125 148.458984375 577.716796875 c 128,-1,26
 131.70703125 560.96484375 131.70703125 560.96484375 131.70703125 537.8984375 c 128,-1,27
 131.70703125 514.831054688 131.70703125 514.831054688 148.458984375 498.079101562 c 128,-1,28
 165.209960938 481.327148438 165.209960938 481.327148438 188.27734375 481.327148438 c 128,-1,29
 211.344726562 481.327148438 211.344726562 481.327148438 228.095703125 498.079101562 c 128,-1,30
 244.84765625 514.831054688 244.84765625 514.831054688 244.84765625 537.8984375 c 128,-1,31
 244.84765625 560.96484375 244.84765625 560.96484375 228.095703125 577.716796875 c 128,-1,24
 211.34375 594.470703125 211.34375 594.470703125 188.278320312 594.470703125 c 128,-1,25
572.529296875 299.075195312 m 128,-1,33
 630.168945312 299.075195312 630.168945312 299.075195312 670.487304688 258.756835938 c 128,-1,34
 710.805664062 218.439453125 710.805664062 218.439453125 710.805664062 160.797851562 c 128,-1,35
 710.805664062 103.15625 710.805664062 103.15625 670.487304688 62.8388671875 c 128,-1,36
 630.169921875 22.5205078125 630.169921875 22.5205078125 572.528320312 22.5205078125 c 128,-1,37
 514.88671875 22.5205078125 514.88671875 22.5205078125 474.569335938 62.8388671875 c 128,-1,38
 434.251953125 103.15625 434.251953125 103.15625 434.251953125 160.797851562 c 128,-1,39
 434.251953125 218.439453125 434.251953125 218.439453125 474.569335938 258.756835938 c 128,-1,32
 514.889648438 299.075195312 514.889648438 299.075195312 572.529296875 299.075195312 c 128,-1,33
572.529296875 217.370117188 m 128,-1,41
 549.463867188 217.370117188 549.463867188 217.370117188 532.709960938 200.616210938 c 128,-1,42
 515.958007812 183.864257812 515.958007812 183.864257812 515.958007812 160.796875 c 128,-1,43
 515.958007812 137.73046875 515.958007812 137.73046875 532.709960938 120.978515625 c 128,-1,44
 549.461914062 104.2265625 549.461914062 104.2265625 572.529296875 104.2265625 c 128,-1,45
 595.595703125 104.2265625 595.595703125 104.2265625 612.34765625 120.978515625 c 128,-1,46
 629.099609375 137.73046875 629.099609375 137.73046875 629.099609375 160.796875 c 128,-1,47
 629.099609375 183.864257812 629.099609375 183.864257812 612.34765625 200.616210938 c 128,-1,40
 595.59375 217.370117188 595.59375 217.370117188 572.529296875 217.370117188 c 128,-1,41
EndSplineSet
EndChar

StartChar: question
Encoding: 63 63 36
Width: 509
VWidth: 0
Flags: W
LayerCount: 2
Fore
SplineSet
179.529296875 76.0537109375 m 128,-1,1
 200.19140625 76.0537109375 200.19140625 76.0537109375 209.095703125 67.15625 c 128,-1,2
 218.008789062 58.2490234375 218.008789062 58.2490234375 218.017578125 37.5625 c 128,-1,3
 218.008789062 16.85546875 218.008789062 16.85546875 209.095703125 7.9462890625 c 128,-1,4
 200.192382812 -0.9521484375 200.192382812 -0.9521484375 179.52734375 -0.9521484375 c 0,5,-1
 179.486328125 -0.9521484375 l 0,6,7
 158.793945312 -0.9521484375 158.793945312 -0.9521484375 149.885742188 7.9560546875 c 128,-1,8
 140.978515625 16.865234375 140.978515625 16.865234375 140.978515625 37.5556640625 c 128,-1,9
 140.978515625 58.2431640625 140.978515625 58.2431640625 149.88671875 67.1484375 c 128,-1,0
 158.791992188 76.0498046875 158.791992188 76.0498046875 179.529296875 76.0537109375 c 128,-1,1
97.0751953125 700.083007812 m 2,10,-1
 310.234375 700.081054688 l 2,11,12
 380.040039062 700.081054688 380.040039062 700.081054688 422.173828125 650.373046875 c 0,13,14
 458.947265625 606.989257812 458.947265625 606.989257812 459 545.501953125 c 0,15,16
 459 484.46484375 459 484.46484375 422.44921875 441.245117188 c 0,17,18
 380.3828125 391.500976562 380.3828125 391.500976562 310.376953125 391.500976562 c 0,19,20
 265.978515625 391.500976562 265.978515625 391.500976562 243.189453125 380.041015625 c 0,21,22
 228.454101562 372.630859375 228.454101562 372.630859375 222.393554688 358.630859375 c 0,23,24
 220.0078125 353.119140625 220.0078125 353.119140625 218.545898438 345.899414062 c 0,25,26
 217.025390625 338.395507812 217.025390625 338.395507812 216.504882812 327.51953125 c 0,27,28
 215.955078125 316.049804688 215.955078125 316.049804688 215.859375 308.065429688 c 128,-1,29
 215.762695312 300.02734375 215.762695312 300.02734375 215.9765625 284.084960938 c 128,-1,30
 216.194335938 267.944335938 216.194335938 267.944335938 216.194335938 260.541015625 c 2,31,-1
 216.196289062 199.809570312 l 2,32,33
 216.196289062 184.66796875 216.196289062 184.66796875 205.483398438 173.95703125 c 128,-1,34
 194.771484375 163.244140625 194.771484375 163.244140625 179.630859375 163.244140625 c 128,-1,35
 164.489257812 163.244140625 164.489257812 163.244140625 153.778320312 173.956054688 c 128,-1,36
 143.067382812 184.666015625 143.067382812 184.666015625 143.067382812 200.134765625 c 2,37,-1
 143.067382812 260.541015625 l 2,38,39
 143.067382812 267.036132812 143.067382812 267.036132812 142.375 287.87109375 c 0,40,41
 141.83203125 304.224609375 141.83203125 304.224609375 141.83203125 315.106445312 c 0,42,43
 141.83203125 318.373046875 141.83203125 318.373046875 141.880859375 321.146484375 c 0,44,45
 142.1015625 333.6484375 142.1015625 333.6484375 145.227539062 352.50390625 c 0,46,47
 148.436523438 371.85546875 148.436523438 371.85546875 155.284179688 387.67578125 c 0,48,49
 171.888671875 426.0390625 171.888671875 426.0390625 210.336914062 445.373046875 c 128,-1,50
 248.622070312 464.625 248.622070312 464.625 310.376953125 464.625 c 0,51,52
 346.452148438 464.625 346.452148438 464.625 366.611328125 488.463867188 c 0,53,54
 385.876953125 511.247070312 385.876953125 511.247070312 385.876953125 545.518554688 c 0,55,56
 385.846679688 580.134765625 385.846679688 580.134765625 366.390625 603.087890625 c 0,57,58
 346.158203125 626.958007812 346.158203125 626.958007812 310.234375 626.958007812 c 2,59,-1
 96.8505859375 626.954101562 l 2,60,61
 81.708984375 626.954101562 81.708984375 626.954101562 70.998046875 637.666992188 c 128,-1,62
 60.28515625 648.37890625 60.28515625 648.37890625 60.28515625 663.51953125 c 128,-1,63
 60.28515625 678.661132812 60.28515625 678.661132812 70.9970703125 689.372070312 c 128,-1,64
 81.70703125 700.083007812 81.70703125 700.083007812 97.0751953125 700.083007812 c 2,10,-1
EndSplineSet
EndChar

StartChar: a
Encoding: 97 97 37
Width: 462
VWidth: 0
Flags: W
LayerCount: 2
Fore
SplineSet
124.751953125 498.950195312 m 0,0,1
 153.122070312 499.557617188 153.122070312 499.557617188 174.686523438 499.557617188 c 0,2,3
 175.962890625 499.557617188 175.962890625 499.557617188 177.21484375 499.555664062 c 0,4,5
 260.466796875 499.44140625 260.466796875 499.44140625 299.135742188 491.750976562 c 0,6,7
 333.182617188 484.28125 333.182617188 484.28125 366.259765625 455.647460938 c 0,8,9
 407.041015625 420.323242188 407.041015625 420.323242188 407 346.486328125 c 2,10,-1
 406.83203125 38.6142578125 l 2,11,12
 406.83203125 28.9892578125 406.83203125 28.9892578125 402.04296875 20.529296875 c 128,-1,13
 397.337890625 12.21484375 397.337890625 12.21484375 389.239257812 6.810546875 c 0,14,15
 381.588867188 1.482421875 381.588867188 1.482421875 372.010742188 0.0712890625 c 0,16,17
 366.9375 -1.08203125 366.9375 -1.08203125 362.330078125 -1.08203125 c 0,18,19
 339.806640625 -1.08203125 339.806640625 -1.08203125 297.629882812 -1.8720703125 c 0,20,21
 259.8203125 -2.484375 259.8203125 -2.484375 237.913085938 -2.484375 c 0,22,23
 231.30859375 -2.484375 231.30859375 -2.484375 226.149414062 -2.4287109375 c 0,24,25
 203.375976562 -2.18359375 203.375976562 -2.18359375 172.392578125 1.001953125 c 0,26,27
 144.880859375 4.1162109375 144.880859375 4.1162109375 125.487304688 11.1279296875 c 0,28,29
 79.87109375 27.6181640625 79.87109375 27.6181640625 60.9111328125 70.3818359375 c 0,30,31
 45.4091796875 105.349609375 45.4091796875 105.349609375 45.4091796875 169.516601562 c 0,32,33
 45.4091796875 231.5078125 45.4091796875 231.5078125 92.53125 265.833984375 c 0,34,35
 130.720703125 293.654296875 130.720703125 293.654296875 190.227539062 293.723632812 c 2,36,-1
 326.84765625 293.844726562 l 1,37,-1
 326.875976562 343.997070312 l 2,38,39
 326.884765625 359.546875 326.884765625 359.546875 322.818359375 372.947265625 c 128,-1,40
 318.721679688 386.451171875 318.721679688 386.451171875 315.891601562 390.928710938 c 2,41,-1
 312.419921875 395.889648438 l 2,42,43
 309.880859375 398.088867188 309.880859375 398.088867188 306.107421875 401.432617188 c 0,44,45
 302.124023438 404.96484375 302.124023438 404.96484375 301.26171875 405.625976562 c 128,-1,46
 300.250976562 406.399414062 300.250976562 406.399414062 297.340820312 408.463867188 c 2,47,-1
 294.784179688 409.993164062 l 2,48,49
 292.6015625 410.727539062 292.6015625 410.727539062 288.987304688 411.87890625 c 128,-1,50
 285.493164062 412.901367188 285.493164062 412.901367188 279.903320312 413.88671875 c 0,51,52
 249.135742188 419.309570312 249.135742188 419.309570312 174.349609375 419.309570312 c 0,53,54
 152.31640625 419.309570312 152.31640625 419.309570312 126.462890625 418.838867188 c 0,55,56
 125.810546875 418.81640625 125.810546875 418.81640625 125.139648438 418.81640625 c 0,57,58
 108.548828125 418.81640625 108.548828125 418.81640625 96.810546875 430.555664062 c 128,-1,59
 85.072265625 442.293945312 85.072265625 442.293945312 85.072265625 458.884765625 c 128,-1,60
 85.072265625 475.354492188 85.072265625 475.354492188 96.712890625 487.087890625 c 128,-1,61
 108.353515625 498.821289062 108.353515625 498.821289062 124.751953125 498.950195312 c 0,0,1
326.724609375 68.4755859375 m 1,62,-1
 326.802734375 217.93359375 l 1,63,-1
 192.521484375 217.80859375 l 2,64,65
 157.90625 217.770507812 157.90625 217.770507812 141.224609375 205.0078125 c 0,66,67
 125.544921875 193.010742188 125.544921875 193.010742188 125.544921875 167.490234375 c 0,68,69
 125.544921875 116.3125 125.544921875 116.3125 134.73828125 94.5361328125 c 0,70,71
 138.319335938 86.05078125 138.319335938 86.05078125 141.859375 82.6884765625 c 128,-1,72
 145.458007812 79.271484375 145.458007812 79.271484375 153.935546875 76.052734375 c 0,73,74
 175.986328125 68.4150390625 175.986328125 68.4150390625 302.551757812 68.4150390625 c 0,75,76
 309.821289062 68.4150390625 309.821289062 68.4150390625 317.435546875 68.4404296875 c 0,77,78
 322.217773438 68.458984375 322.217773438 68.458984375 326.724609375 68.4755859375 c 1,62,-1
EndSplineSet
EndChar

StartChar: uni02CB
Encoding: 715 715 38
Width: 249
Flags: W
LayerCount: 2
Fore
SplineSet
36.2841796875 675.752929688 m 0,0,1
 47.7890625 686.969726562 47.7890625 686.969726562 63.89453125 687.396484375 c 0,2,3
 80.2080078125 687.896484375 80.2080078125 687.896484375 91.9560546875 675.87890625 c 2,4,-1
 187.740234375 580.08984375 l 2,5,6
 199.350585938 568.752929688 199.350585938 568.752929688 199.575195312 552.014648438 c 0,7,8
 199.350585938 535.401367188 199.350585938 535.401367188 188.092773438 524.286132812 c 0,9,10
 177.108398438 513.158203125 177.108398438 513.158203125 160.361328125 512.801757812 c 0,11,12
 143.760742188 513.158203125 143.760742188 513.158203125 132.633789062 524.286132812 c 2,13,-1
 36.748046875 620.174804688 l 2,14,15
 25.53125 631.38671875 25.53125 631.38671875 25.013671875 647.685546875 c 0,16,17
 24.607421875 663.784179688 24.607421875 663.784179688 36.2841796875 675.752929688 c 0,0,1
EndSplineSet
Validated: 1
EndChar

StartChar: backslash
Encoding: 92 92 39
Width: 431
VWidth: 79
Flags: W
LayerCount: 2
Fore
SplineSet
52.6962890625 784.485351562 m 2,0,1
 76.7958984375 783.821289062 76.7958984375 783.821289062 87.873046875 762.1953125 c 2,2,-1
 420.736328125 76.21875 l 1,3,-1
 420.895507812 75.9306640625 l 2,4,5
 426 66.5146484375 426 66.5146484375 426 56.1884765625 c 0,6,7
 426 34.1552734375 426 34.1552734375 416.580078125 24.7373046875 c 128,-1,8
 407.16015625 15.3193359375 407.16015625 15.3193359375 385.118164062 15.3193359375 c 0,9,10
 360.025390625 15.3193359375 360.025390625 15.3193359375 348.610351562 37.814453125 c 2,11,-1
 15.7578125 723.772460938 l 2,12,13
 10.599609375 733.149414062 10.599609375 733.149414062 10.599609375 743.637695312 c 0,14,15
 10.599609375 765.65625 10.599609375 765.65625 20.01953125 775.08203125 c 128,-1,16
 29.4384765625 784.506835938 29.4384765625 784.506835938 51.359375 784.506835938 c 2,17,-1
 52.6962890625 784.485351562 l 2,0,1
EndSplineSet
EndChar

StartChar: b
Encoding: 98 98 40
Width: 467
VWidth: 0
Flags: W
LayerCount: 2
Fore
SplineSet
66.8017578125 690.133789062 m 128,-1,1
 78.54296875 701.875 78.54296875 701.875 95.86328125 701.875 c 0,2,3
 112.111328125 701.631835938 112.111328125 701.631835938 123.668945312 689.900390625 c 128,-1,4
 135.225585938 678.16796875 135.225585938 678.16796875 135.221679688 661.37890625 c 2,5,-1
 135.221679688 499.844726562 l 1,6,7
 154.461914062 499.94140625 154.461914062 499.94140625 170.4921875 499.94140625 c 0,8,9
 225.240234375 499.94140625 225.240234375 499.94140625 242.564453125 498.81640625 c 0,10,11
 308.935546875 494.528320312 308.935546875 494.528320312 349.5625 467.54296875 c 0,12,13
 397.204101562 435.899414062 397.204101562 435.899414062 410.72265625 350.234375 c 0,14,15
 417.001953125 310.448242188 417.001953125 310.448242188 417.001953125 234.458984375 c 0,16,17
 417.001953125 176.428710938 417.001953125 176.428710938 404.583984375 123.70703125 c 0,18,19
 395.901367188 86.8427734375 395.901367188 86.8427734375 383.9921875 63.1337890625 c 0,20,21
 371.168945312 37.60546875 371.168945312 37.60546875 344.270507812 23.1025390625 c 0,22,23
 333.0859375 17.072265625 333.0859375 17.072265625 321.783203125 12.7841796875 c 0,24,25
 310.142578125 8.3671875 310.142578125 8.3671875 293.578125 5.697265625 c 0,26,27
 275.422851562 3.0771484375 275.422851562 3.0771484375 263.279296875 1.5546875 c 0,28,29
 250.495117188 -0.0478515625 250.495117188 -0.0478515625 223.370117188 -0.6279296875 c 0,30,31
 196.93359375 -1.193359375 196.93359375 -1.193359375 183.6328125 -1.2958984375 c 0,32,33
 179.026367188 -1.3330078125 179.026367188 -1.3330078125 171.969726562 -1.3330078125 c 0,34,35
 159.913085938 -1.3330078125 159.913085938 -1.3330078125 140.704101562 -1.224609375 c 0,36,37
 110.359375 -1.052734375 110.359375 -1.052734375 95.9287109375 -1.052734375 c 0,38,39
 91.9658203125 -1.0458984375 91.9658203125 -1.0458984375 87.38671875 0.06640625 c 0,40,41
 83.1083984375 1.1064453125 83.1083984375 1.1064453125 79.080078125 2.890625 c 0,42,43
 74.7734375 4.798828125 74.7734375 4.798828125 71.716796875 7.1396484375 c 0,44,45
 71.017578125 7.6513671875 71.017578125 7.6513671875 70.3388671875 8.203125 c 0,46,47
 55.0947265625 19.78515625 55.0947265625 19.78515625 55.0625 38.66015625 c 2,48,-1
 55.0595703125 661.797851562 l 2,49,0
 55.0595703125 678.392578125 55.0595703125 678.392578125 66.8017578125 690.133789062 c 128,-1,1
235.00390625 418.875 m 0,50,51
 218.2734375 419.959960938 218.2734375 419.959960938 186.673828125 419.959960938 c 0,52,53
 181.709960938 419.959960938 181.709960938 419.959960938 176.379882812 419.93359375 c 0,54,55
 176.099609375 419.93359375 176.099609375 419.93359375 154.686523438 419.793945312 c 0,56,57
 144.194335938 419.725585938 144.194335938 419.725585938 135.22265625 419.670898438 c 1,58,-1
 135.22265625 58.23046875 l 1,59,60
 210.014648438 58.5224609375 210.014648438 58.5224609375 248.375 61.1201171875 c 0,61,62
 286.123046875 63.67578125 286.123046875 63.67578125 304.206054688 72.26171875 c 0,63,64
 305.87109375 74.400390625 305.87109375 74.400390625 307.866210938 77.61328125 c 0,65,66
 311.9921875 84.2529296875 311.9921875 84.2529296875 317.583984375 97.693359375 c 128,-1,67
 323.154296875 111.084960938 323.154296875 111.084960938 326.3828125 125.380859375 c 0,68,69
 336.841796875 171.68359375 336.841796875 171.68359375 336.841796875 223.147460938 c 0,70,71
 336.841796875 296.38671875 336.841796875 296.38671875 331.47265625 331.903320312 c 0,72,73
 323.1328125 387 323.1328125 387 303.919921875 400.3046875 c 0,74,75
 277.81640625 416.094726562 277.81640625 416.094726562 235.00390625 418.875 c 0,50,51
EndSplineSet
EndChar

StartChar: c
Encoding: 99 99 41
Width: 398
VWidth: 0
Flags: W
LayerCount: 2
Fore
SplineSet
321.65625 499.80859375 m 0,0,1
 339 500 339 500 351.032226562 487.844726562 c 0,2,3
 363 476 363 476 363 458.961914062 c 128,-1,4
 363 442 363 442 351.032226562 430.080078125 c 0,5,6
 339.292778679 418.2846356 339.292778679 418.2846356 322.163085938 418.112304688 c 2,7,8
 231.6953125 418.311523438 l 2,9,10
 183 416 183 416 160.596679688 401.1484375 c 0,11,12
 141 388 141 388 132.171875 337.830078125 c 0,13,14
 127 305 127 305 126.6953125 235.506835938 c 0,15,16
 127 180 127 180 134.342773438 143.487304688 c 0,17,18
 139 123 139 123 146.127929688 109.196289062 c 0,19,20
 161.948212559 82.6760704248 161.948212559 82.6760704248 270.171875 80.41015625 c 0,21,22
 280 80 280 80 322.572265625 80.7958984375 c 0,23,24
 339 81 339 81 350.999023438 68.8271484375 c 0,25,26
 363 57 363 57 362.966796875 39.9453125 c 128,-1,27
 363 23 363 23 350.999023438 11.0634765625 c 128,-1,28
 339 -1 339 -1 322.149414062 -0.904296875 c 0,29,30
 259.162943748 -1.27756131782 259.162943748 -1.27756131782 235.055664062 -0.8876953125 c 0,31,32
 157 2 157 2 117.928710938 22.63671875 c 0,33,34
 70 48 70 48 54.212890625 126.116210938 c 0,35,36
 45 171 45 171 44.9951171875 235.2421875 c 0,37,38
 45 312 45 312 51.46875 351.772460938 c 0,39,40
 65 436 65 436 114.080078125 468.559570312 c 0,41,42
 154 494 154 494 225.415039062 499.836914062 c 0,43,44
 240.846883056 501.047008389 240.846883056 501.047008389 321.65625 499.80859375 c 0,0,1
EndSplineSet
EndChar

StartChar: d
Encoding: 100 100 42
Width: 467
VWidth: 0
Flags: W
LayerCount: 2
Fore
SplineSet
343.393554688 687.901367188 m 0,0,1
 355 700 355 700 371.198242188 699.875 c 0,2,3
 389 700 389 700 400.258789062 688.133789062 c 0,4,5
 412.002029533 675.997902607 412.002029533 675.997902607 412.001953125 659.797851562 c 2,6,-1
 411.999023438 38.6435546875 l 2,7,8
 412 20 412 20 396.72265625 8.203125 c 0,9,10
 385 -1 385 -1 371.114257812 -1.052734375 c 0,11,12
 264 -1 264 -1 243.689453125 -0.6279296875 c 0,13,14
 164 1 164 1 122.791992188 23.1025390625 c 0,15,16
 96 38 96 38 83.0693359375 63.134765625 c 0,17,18
 71 87 71 87 62.4775390625 123.70703125 c 0,19,20
 50 176 50 176 50.0595703125 234.458007812 c 0,21,22
 50 310 50 310 56.3388671875 350.233398438 c 0,23,24
 70 436 70 436 117.499023438 467.54296875 c 0,25,26
 158 495 158 495 224.498046875 498.81640625 c 0,27,28
 242 500 242 500 296.569335938 499.94140625 c 0,29,30
 313 500 313 500 331.83984375 499.844726562 c 1,31,-1
 331.83984375 659.375976562 l 2,32,33
 332 676 332 676 343.393554688 687.901367188 c 0,0,1
232.05859375 418.875 m 0,34,35
 185 416 185 416 163.140625 400.3046875 c 0,36,37
 144 387 144 387 135.588867188 331.905273438 c 0,38,39
 130 296 130 296 130.219726562 223.147460938 c 0,40,41
 130 188 130 188 140.678710938 141.380859375 c 0,42,43
 144 127 144 127 149.477539062 113.694335938 c 0,44,45
 162.495067819 81.414087352 162.495067819 81.414087352 218.686523438 77.1201171875 c 0,46,47
 257 75 257 75 331.838867188 74.23046875 c 1,48,-1
 331.838867188 419.670898438 l 1,49,50
 275.585367122 421.765410591 275.585367122 421.765410591 232.05859375 418.875 c 0,34,35
EndSplineSet
EndChar

StartChar: e
Encoding: 101 101 43
Width: 437
VWidth: 0
Flags: W
LayerCount: 2
Fore
SplineSet
222.727539062 501.408203125 m 0,0,1
 312.357421875 501.408203125 312.357421875 501.408203125 354.634765625 457.0546875 c 0,2,3
 392.001953125 417.852539062 392.001953125 417.852539062 392.001953125 343.107421875 c 0,4,5
 392.001953125 303.94140625 392.001953125 303.94140625 389.586914062 288.30078125 c 0,6,7
 384.3203125 254.190429688 384.3203125 254.190429688 362.13671875 235.754882812 c 0,8,9
 355.05078125 229.865234375 355.05078125 229.865234375 348.084960938 225.616210938 c 128,-1,10
 341.118164062 221.366210938 341.118164062 221.366210938 331.599609375 218.7421875 c 128,-1,11
 322.080078125 216.1171875 322.080078125 216.1171875 316.422851562 214.541015625 c 128,-1,12
 310.765625 212.96484375 310.765625 212.96484375 297.473632812 212.341796875 c 128,-1,13
 284.181640625 211.719726562 284.181640625 211.719726562 279.080078125 211.559570312 c 128,-1,14
 273.979492188 211.399414062 273.979492188 211.399414062 256.161132812 211.522460938 c 128,-1,15
 238.34375 211.645507812 238.34375 211.645507812 232.458007812 211.638671875 c 2,16,-1
 129.109375 211.521484375 l 1,17,18
 130.514648438 116.55859375 130.514648438 116.55859375 147.125976562 94.6875 c 0,19,20
 148.094726562 93.4140625 148.094726562 93.4140625 149.543945312 91.37109375 c 0,21,22
 152.8203125 86.75 152.8203125 86.75 155.807617188 85.6474609375 c 128,-1,23
 158.794921875 84.5439453125 158.794921875 84.5439453125 173.444335938 82.548828125 c 0,24,25
 174.662109375 82.3828125 174.662109375 82.3828125 175.298828125 82.2958984375 c 0,26,27
 207.633789062 77.8828125 207.633789062 77.8828125 328.770507812 80.294921875 c 0,28,29
 329.435546875 80.3173828125 329.435546875 80.3173828125 330.130859375 80.3173828125 c 0,30,31
 347.15234375 80.3173828125 347.15234375 80.3173828125 359.19921875 68.2705078125 c 128,-1,32
 371.24609375 56.224609375 371.24609375 56.224609375 371.24609375 39.2021484375 c 0,33,34
 371.24609375 28.1142578125 371.24609375 28.1142578125 365.779296875 18.6689453125 c 128,-1,35
 360.311523438 9.2236328125 360.311523438 9.2236328125 350.903320312 3.693359375 c 128,-1,36
 341.495117188 -1.837890625 341.495117188 -1.837890625 330.407226562 -1.912109375 c 0,37,38
 202.87890625 -4.451171875 202.87890625 -4.451171875 164.180664062 0.8291015625 c 0,39,40
 109.499023438 8.291015625 109.499023438 8.291015625 81.650390625 44.95703125 c 0,41,42
 67.458984375 63.6416015625 67.458984375 63.6416015625 58.916015625 85.27734375 c 128,-1,43
 50.373046875 106.913085938 50.373046875 106.913085938 47.7158203125 132.006835938 c 128,-1,44
 45.05859375 157.100585938 45.05859375 157.100585938 44.6240234375 174.793945312 c 128,-1,45
 44.1884765625 192.486328125 44.1884765625 192.486328125 45.416015625 220.98046875 c 128,-1,46
 46.6435546875 249.474609375 46.6435546875 249.474609375 46.666015625 260.216796875 c 0,47,48
 46.8017578125 323.627929688 46.8017578125 323.627929688 53.2998046875 364.350585938 c 128,-1,49
 59.7978515625 405.073242188 59.7978515625 405.073242188 79.37890625 436.358398438 c 0,50,51
 120.091796875 501.408203125 120.091796875 501.408203125 222.727539062 501.408203125 c 0,0,1
222.727539062 419.186523438 m 0,52,53
 188.173828125 419.186523438 188.173828125 419.186523438 173.27734375 413.39453125 c 128,-1,54
 158.381835938 407.6015625 158.381835938 407.6015625 149.077148438 392.736328125 c 0,55,56
 133.133789062 367.263671875 133.133789062 367.263671875 129.747070312 293.743164062 c 1,57,-1
 232.362304688 293.860351562 l 2,58,59
 248.213867188 293.87890625 248.213867188 293.87890625 262.768554688 294.727539062 c 128,-1,60
 277.323242188 295.576171875 277.323242188 295.576171875 285.268554688 296.537109375 c 128,-1,61
 293.213867188 297.499023438 293.213867188 297.499023438 300.2578125 298.518554688 c 128,-1,62
 307.302734375 299.538085938 307.302734375 299.538085938 308.176757812 299.616210938 c 0,63,64
 308.239257812 300.275390625 308.239257812 300.275390625 308.328125 300.848632812 c 0,65,66
 309.780273438 310.256835938 309.780273438 310.256835938 309.780273438 343.107421875 c 0,67,68
 309.780273438 384.94140625 309.780273438 384.94140625 295.118164062 400.323242188 c 0,69,70
 277.139648438 419.186523438 277.139648438 419.186523438 222.727539062 419.186523438 c 0,52,53
EndSplineSet
EndChar

StartChar: f
Encoding: 102 102 44
Width: 329
VWidth: 0
Flags: W
LayerCount: 2
Fore
SplineSet
235.282226562 699.254882812 m 0,0,1
 276 703 276 703 313.690429688 702.21875 c 0,2,3
 330 702 330 702 342.244140625 690.462890625 c 0,4,5
 354 679 354 679 354 662.091796875 c 128,-1,6
 354 645 354 645 342.243164062 633.719726562 c 0,7,8
 330 622 330 622 313.508789062 621.965820312 c 0,9,10
 272 622 272 622 245.482421875 619.459960938 c 0,11,12
 213 617 213 617 202.213867188 609.221679688 c 0,13,14
 193 603 193 603 187.486328125 580.921875 c 0,15,16
 181 555 181 555 180.887695312 499.587890625 c 1,17,-1
 253.450195312 499.587890625 l 2,18,19
 272 500 272 500 283.907226562 487.833007812 c 0,20,21
 296 476 296 476 295.663085938 459.461914062 c 0,22,23
 296 443 296 443 283.907226562 431.08984375 c 0,24,25
 272.328125 419.333007812 272.328125 419.333007812 253.88671875 419.333984375 c 2,26,-1
 180.830078125 419.3359375 l 1,27,-1
 180.833984375 37.4169921875 l 2,28,29
 181 22 181 22 166.78515625 10.4306640625 c 0,30,31
 153 -1 153 -1 133.272460938 -1.3251953125 c 0,32,33
 117 -1 117 -1 104.901367188 10.431640625 c 0,34,35
 93.1484375 21.85546875 93.1484375 21.85546875 93.1484375 37.83984375 c 2,36,-1
 93.1484375 419.3359375 l 1,37,-1
 55.392578125 419.333984375 l 2,38,39
 39 419 39 419 27.0205078125 431.090820312 c 128,-1,40
 15 443 15 443 15.2646484375 459.461914062 c 0,41,42
 15 476 15 476 27.021484375 487.833984375 c 0,43,44
 38.5947265625 499.587890625 38.5947265625 499.587890625 55.7548828125 499.587890625 c 2,45,-1
 93.1943359375 499.587890625 l 1,46,47
 94 563 94 563 100.243164062 596.489257812 c 0,48,49
 110 647 110 647 141.600585938 671.407226562 c 0,50,51
 172 694 172 694 235.282226562 699.254882812 c 0,0,1
EndSplineSet
EndChar

StartChar: g
Encoding: 103 103 45
Width: 465
VWidth: 0
Flags: W
LayerCount: 2
Fore
SplineSet
263.91796875 500.795898438 m 0,0,1
 268.334960938 500.833007812 268.334960938 500.833007812 276.9140625 500.833007812 c 0,2,3
 287.646484375 500.833007812 287.646484375 500.833007812 319.27734375 500.296875 c 0,4,5
 347.19140625 499.814453125 347.19140625 499.814453125 366.055664062 499.814453125 c 0,6,-1
 367.16015625 499.814453125 l 0,7,8
 368.615234375 499.91015625 368.615234375 499.91015625 369.444335938 499.939453125 c 0,9,10
 387.142578125 499.943359375 387.142578125 499.943359375 399.208007812 488.283203125 c 128,-1,11
 411.272460938 476.625 411.272460938 476.625 411.272460938 460.146484375 c 2,12,-1
 411.26953125 9.435546875 l 2,13,14
 411.26953125 -61.91796875 411.26953125 -61.91796875 397.427734375 -103.3125 c 0,15,16
 380.999023438 -154.1484375 380.999023438 -154.1484375 341.15234375 -179.0234375 c 0,17,18
 332.716796875 -184.2890625 332.716796875 -184.2890625 324.0625 -188.469726562 c 0,19,20
 315.006835938 -192.84375 315.006835938 -192.84375 303.379882812 -195.908203125 c 0,21,22
 292.854492188 -198.682617188 292.854492188 -198.682617188 284.772460938 -200.697265625 c 0,23,24
 275.02734375 -203.032226562 275.02734375 -203.032226562 256.768554688 -204.372070312 c 0,25,26
 239.956054688 -205.60546875 239.956054688 -205.60546875 232.668945312 -206.3515625 c 0,27,28
 224.493164062 -207.1875 224.493164062 -207.1875 202.403320312 -207.489257812 c 0,29,30
 180.983398438 -207.78125 180.983398438 -207.78125 174.30078125 -207.864257812 c 0,31,32
 167.94140625 -207.948242188 167.94140625 -207.948242188 146.33203125 -207.880859375 c 128,-1,33
 124.639648438 -207.813476562 124.639648438 -207.813476562 119.26953125 -207.814453125 c 0,34,35
 101.844726562 -207.814453125 101.844726562 -207.814453125 89.783203125 -195.752929688 c 128,-1,36
 77.71875 -183.688476562 77.71875 -183.688476562 77.71875 -166.63671875 c 128,-1,37
 77.71875 -149.584960938 77.71875 -149.584960938 89.783203125 -137.520507812 c 128,-1,38
 101.84765625 -125.456054688 101.84765625 -125.456054688 118.926757812 -125.456054688 c 0,39,40
 185.928710938 -125.456054688 185.928710938 -125.456054688 235.43359375 -120.899414062 c 128,-1,41
 284.94921875 -116.340820312 284.94921875 -116.340820312 297.541992188 -109.163085938 c 0,42,43
 311.879882812 -100.212890625 311.879882812 -100.212890625 319.061523438 -77.9873046875 c 0,44,45
 327.4296875 -52.0966796875 327.4296875 -52.0966796875 328.703125 -3.431640625 c 1,46,47
 300.655273438 -3.7236328125 300.655273438 -3.7236328125 279.579101562 -3.7236328125 c 0,48,49
 246.03125 -3.7236328125 246.03125 -3.7236328125 230.147460938 -2.984375 c 0,50,51
 162.1796875 0.123046875 162.1796875 0.123046875 123.220703125 20.6357421875 c 0,52,53
 75.6083984375 45.7041015625 75.6083984375 45.7041015625 59.2587890625 124.540039062 c 0,54,55
 50 169.1953125 50 169.1953125 50 234.172851562 c 0,56,57
 50 311.600585938 50 311.600585938 56.5029296875 351.169921875 c 0,58,59
 70.4345703125 435.923828125 70.4345703125 435.923828125 119.356445312 468.444335938 c 0,60,61
 161.047851562 496.154296875 161.047851562 496.154296875 230.880859375 499.849609375 c 0,62,63
 245.680664062 500.643554688 245.680664062 500.643554688 263.91796875 500.795898438 c 0,0,1
287.874023438 429.229492188 m 0,64,65
 274.956054688 429.348632812 274.956054688 429.348632812 264.77734375 429.28515625 c 0,66,67
 248.783203125 429.188476562 248.783203125 429.188476562 237.301757812 428.572265625 c 0,68,69
 193.005859375 426.194335938 193.005859375 426.194335938 166.01171875 410.26171875 c 0,70,71
 145.916992188 396.344726562 145.916992188 396.344726562 137.451171875 342.688476562 c 0,72,73
 131.950195312 307.829101562 131.950195312 307.829101562 131.950195312 233.563476562 c 0,74,75
 131.950195312 173.956054688 131.950195312 173.956054688 139.630859375 135.361328125 c 0,76,77
 143.926757812 113.782226562 143.926757812 113.782226562 151.469726562 98.7724609375 c 0,78,79
 158.18359375 85.4130859375 158.18359375 85.4130859375 162.629882812 82.9736328125 c 0,80,81
 188.524414062 70.529296875 188.524414062 70.529296875 235.711914062 68.3349609375 c 0,82,83
 248.11328125 67.7578125 248.11328125 67.7578125 277.712890625 67.7578125 c 0,84,85
 298.90625 67.7578125 298.90625 67.7578125 328.915039062 68.0537109375 c 1,86,-1
 328.915039062 428.647460938 l 1,87,88
 321.8046875 428.74609375 321.8046875 428.74609375 314.2578125 428.8671875 c 0,89,90
 299.21484375 429.109375 299.21484375 429.109375 287.874023438 429.229492188 c 0,64,65
EndSplineSet
EndChar

StartChar: i
Encoding: 105 105 46
Width: 202
VWidth: 0
Flags: W
LayerCount: 2
Fore
SplineSet
101.166992188 699.844726562 m 132,-1,1
 124.124023438 699.844726562 124.124023438 699.844726562 134.018554688 689.958007812 c 132,-1,2
 143.921875 680.061523438 143.921875 680.061523438 143.931640625 657.076171875 c 132,-1,3
 143.921875 634.068359375 143.921875 634.068359375 134.018554688 624.169921875 c 132,-1,4
 124.125 614.282226562 124.125 614.282226562 101.1640625 614.282226562 c 4,5,-1
 101.119140625 614.282226562 l 4,6,7
 78.126953125 614.282226562 78.126953125 614.282226562 68.2294921875 624.180664062 c 132,-1,8
 58.33203125 634.079101562 58.33203125 634.079101562 58.33203125 657.069335938 c 132,-1,9
 58.33203125 680.0546875 58.33203125 680.0546875 68.23046875 689.94921875 c 132,-1,0
 78.125 699.83984375 78.125 699.83984375 101.166992188 699.844726562 c 132,-1,1
72.19921875 489.299804688 m 0,10,11
 83.95703125 501.236328125 83.95703125 501.236328125 100.685546875 501.489257812 c 0,12,13
 118.108398438 501.489257812 118.108398438 501.489257812 130.052734375 489.544921875 c 0,14,15
 142 478.087890625 142 478.087890625 142 461.895507812 c 2,16,-1
 141.998046875 38.38671875 l 2,17,18
 141.998046875 21.9775390625 141.998046875 21.9775390625 130.052734375 10.5224609375 c 128,-1,19
 118.10546875 -0.9345703125 118.10546875 -0.9345703125 101.220703125 -0.9345703125 c 128,-1,20
 84.3349609375 -0.9345703125 84.3349609375 -0.9345703125 72.3876953125 10.5224609375 c 128,-1,21
 60.443359375 21.9755859375 60.443359375 21.9755859375 60.443359375 38.6015625 c 2,22,-1
 60.443359375 461.47265625 l 2,23,24
 60.439453125 477.854492188 60.439453125 477.854492188 72.19921875 489.299804688 c 0,10,11
EndSplineSet
EndChar

StartChar: j
Encoding: 106 106 47
Width: 201
VWidth: 0
Flags: W
LayerCount: 2
Fore
SplineSet
100.147460938 700.166992188 m 132,-1,1
 123.104492188 700.166992188 123.104492188 700.166992188 132.999023438 690.280273438 c 132,-1,2
 142.90234375 680.383789062 142.90234375 680.383789062 142.912109375 657.3984375 c 132,-1,3
 142.90234375 634.390625 142.90234375 634.390625 132.999023438 624.4921875 c 132,-1,4
 123.10546875 614.604492188 123.10546875 614.604492188 100.14453125 614.604492188 c 4,5,-1
 100.099609375 614.604492188 l 4,6,7
 77.107421875 614.604492188 77.107421875 614.604492188 67.2099609375 624.502929688 c 132,-1,8
 57.3125 634.401367188 57.3125 634.401367188 57.3125 657.391601562 c 132,-1,9
 57.3125 680.376953125 57.3125 680.376953125 67.2109375 690.271484375 c 132,-1,0
 77.10546875 700.162109375 77.10546875 700.162109375 100.147460938 700.166992188 c 132,-1,1
71.0791015625 488.36328125 m 0,10,11
 83 500 83 500 99.7431640625 500.146484375 c 0,12,13
 117 500 117 500 129.033203125 488.588867188 c 128,-1,14
 140.999023438 477.000945721 140.999023438 477.000945721 140.999023438 460.280273438 c 2,15,-1
 140.999023438 15.103515625 l 2,16,17
 141 -56 141 -56 133.736328125 -91.91796875 c 0,18,19
 124 -143 124 -143 92.515625 -168.515625 c 0,20,21
 64 -191 64 -191 12.337890625 -196.983398438 c 0,22,23
 -16 -200 -16 -200 -63.7119140625 -200.013671875 c 0,24,25
 -81 -200 -81 -200 -92.99609375 -188.047851562 c 128,-1,26
 -105 -176 -105 -176 -104.963867188 -159.165039062 c 0,27,28
 -105 -142 -105 -142 -92.99609375 -130.282226562 c 0,29,30
 -81 -118 -81 -118 -64.0009765625 -118.314453125 c 0,31,32
 -22 -118 -22 -118 3.6513671875 -115.748046875 c 0,33,34
 32 -113 32 -113 40.87890625 -105.208984375 c 0,35,36
 49 -98 49 -98 53.591796875 -76.0693359375 c 0,37,38
 59.305067571 -42.1910231196 59.305067571 -42.1910231196 59.3046875 15.5615234375 c 2,39,-1
 59.3017578125 460.733398438 l 2,40,41
 59 477 59 477 71.0791015625 488.36328125 c 0,10,11
EndSplineSet
EndChar

StartChar: p
Encoding: 112 112 48
Width: 471
Flags: W
LayerCount: 2
Fore
SplineSet
136.733398438 498.756835938 m 0,0,1
 161.024414062 498.888671875 161.024414062 498.888671875 173.188476562 498.888671875 c 0,2,3
 241.526367188 498.84765625 241.526367188 498.84765625 281.434570312 494.16015625 c 0,4,5
 319.178710938 489.49609375 319.178710938 489.49609375 347.4375 474.263671875 c 0,6,7
 374.6328125 459.603515625 374.6328125 459.603515625 387.592773438 433.80859375 c 0,8,9
 399.635742188 409.834960938 399.635742188 409.834960938 408.422851562 372.533203125 c 0,10,11
 421 319.134765625 421 319.134765625 421 260.479492188 c 0,12,13
 421 183.509765625 421 183.509765625 414.6484375 143.263671875 c 0,14,15
 407.89453125 100.479492188 407.89453125 100.479492188 392.59765625 70.6875 c 128,-1,16
 377.299804688 40.89453125 377.299804688 40.89453125 352.778320312 24.609375 c 0,17,18
 332.193359375 10.9384765625 332.193359375 10.9384765625 307.439453125 3.0419921875 c 0,19,20
 279.01953125 -5.1923828125 279.01953125 -5.1923828125 244.611328125 -7.4404296875 c 0,21,22
 228.788085938 -8.4736328125 228.788085938 -8.4736328125 172.416992188 -8.4736328125 c 0,23,24
 155.93359375 -8.4736328125 155.93359375 -8.4736328125 135.984375 -8.3857421875 c 1,25,-1
 135.984375 -163.599609375 l 2,26,27
 136.216796875 -180.44140625 136.216796875 -180.44140625 124.338867188 -192.485351562 c 128,-1,28
 112.459960938 -204.530273438 112.459960938 -204.530273438 95.54296875 -204.530273438 c 128,-1,29
 78.6259765625 -204.530273438 78.6259765625 -204.530273438 66.7470703125 -192.485351562 c 128,-1,30
 54.8681640625 -180.44140625 54.8681640625 -180.44140625 55.1015625 -163.598632812 c 2,31,-1
 55.1015625 458.567382812 l 2,32,33
 54.794921875 481.65625 54.794921875 481.65625 74.58984375 492.435546875 c 0,34,35
 85.7763671875 498.723632812 85.7763671875 498.723632812 96.4033203125 498.618164062 c 0,36,37
 111.239257812 498.618164062 111.239257812 498.618164062 136.733398438 498.756835938 c 0,0,1
250.7421875 425.256835938 m 0,38,39
 212.592773438 427.893554688 212.592773438 427.893554688 135.982421875 428.176757812 c 1,40,-1
 135.983398438 62.0283203125 l 1,41,42
 156.149414062 61.958984375 156.149414062 61.958984375 172.41015625 61.958984375 c 0,43,44
 225.6328125 61.958984375 225.6328125 61.958984375 237.022460938 62.703125 c 0,45,46
 280.123046875 65.5185546875 280.123046875 65.5185546875 306.729492188 81.5322265625 c 0,47,48
 326.220703125 95.0302734375 326.220703125 95.0302734375 334.672851562 150.866210938 c 0,49,50
 340.112304688 186.798828125 340.112304688 186.798828125 340.112304688 260.9765625 c 0,51,52
 340.112304688 313.139648438 340.112304688 313.139648438 329.525390625 360.013671875 c 0,53,54
 326.252929688 374.494140625 326.252929688 374.494140625 320.604492188 388.055664062 c 128,-1,55
 314.936523438 401.666015625 314.936523438 401.666015625 310.750976562 408.391601562 c 0,56,57
 308.560546875 411.912109375 308.560546875 411.912109375 307 413.848632812 c 0,58,59
 288.241210938 422.665039062 288.241210938 422.665039062 250.7421875 425.256835938 c 0,38,39
EndSplineSet
EndChar

StartChar: q
Encoding: 113 113 49
Width: 471
Flags: W
LayerCount: 2
Fore
SplineSet
189.666015625 495.719726562 m 0,0,1
 229.573242188 500.408203125 229.573242188 500.408203125 297.904296875 500.444335938 c 0,2,3
 312.333984375 500.444335938 312.333984375 500.444335938 334.338867188 500.323242188 c 0,4,5
 359.83203125 500.18359375 359.83203125 500.18359375 374.677734375 500.18359375 c 0,6,7
 388.557617188 500.36328125 388.557617188 500.36328125 399.43359375 492.5 c 0,8,9
 416.26953125 480.705078125 416.26953125 480.705078125 415.995117188 460.08984375 c 2,10,-1
 415.995117188 -162.030273438 l 2,11,12
 416.228515625 -178.873046875 416.228515625 -178.873046875 404.349609375 -190.91796875 c 128,-1,13
 392.470703125 -202.961914062 392.470703125 -202.961914062 375.555664062 -202.961914062 c 128,-1,14
 358.638671875 -202.961914062 358.638671875 -202.961914062 346.760742188 -190.91796875 c 128,-1,15
 334.881835938 -178.873046875 334.881835938 -178.873046875 335.114257812 -162.03125 c 2,16,-1
 335.114257812 -6.8173828125 l 1,17,18
 315.217773438 -6.9052734375 315.217773438 -6.9052734375 298.76953125 -6.9052734375 c 0,19,20
 242.333007812 -6.9052734375 242.333007812 -6.9052734375 226.48828125 -5.8701171875 c 0,21,22
 159.395507812 -1.52734375 159.395507812 -1.52734375 118.3203125 25.775390625 c 0,23,24
 70.126953125 57.80859375 70.126953125 57.80859375 56.4501953125 144.530273438 c 0,25,26
 50.1015625 184.78515625 50.1015625 184.78515625 50.1015625 261.853515625 c 0,27,28
 50.1015625 320.552734375 50.1015625 320.552734375 62.67578125 373.987304688 c 0,29,30
 71.4619140625 411.321289062 71.4619140625 411.321289062 83.505859375 435.315429688 c 0,31,32
 96.46484375 461.133789062 96.46484375 461.133789062 123.661132812 475.806640625 c 0,33,34
 151.920898438 491.051757812 151.920898438 491.051757812 189.666015625 495.719726562 c 0,0,1
335.115234375 63.5810546875 m 1,35,-1
 335.115234375 429.731445312 l 1,36,37
 258.502929688 429.4453125 258.502929688 429.4453125 220.356445312 426.809570312 c 0,38,39
 182.858398438 424.216796875 182.858398438 424.216796875 164.1015625 415.401367188 c 0,40,41
 162.540039062 413.463867188 162.540039062 413.463867188 160.349609375 409.942382812 c 0,42,43
 156.1640625 403.217773438 156.1640625 403.217773438 150.49609375 389.604492188 c 128,-1,44
 144.84765625 376.04296875 144.84765625 376.04296875 141.577148438 361.563476562 c 0,45,46
 130.987304688 314.676757812 130.987304688 314.676757812 130.987304688 262.517578125 c 0,47,48
 130.987304688 188.357421875 130.987304688 188.357421875 136.426757812 152.41796875 c 0,49,50
 144.877929688 96.5830078125 144.877929688 96.5830078125 164.370117188 83.083984375 c 0,51,52
 190.978515625 67.0693359375 190.978515625 67.0693359375 234.077148438 64.2529296875 c 0,53,54
 245.436523438 63.5107421875 245.436523438 63.5107421875 298.495117188 63.5107421875 c 0,55,56
 314.829101562 63.5107421875 314.829101562 63.5107421875 335.115234375 63.5810546875 c 1,35,-1
EndSplineSet
EndChar

StartChar: r
Encoding: 114 114 50
Width: 274
Flags: W
LayerCount: 2
Fore
SplineSet
84.705078125 461.0078125 m 0,0,1
 123.001953125 502 123.001953125 502 217.844726562 501.901367188 c 0,2,3
 235.001953125 502 235.001953125 502 246.99609375 489.8984375 c 0,4,5
 259.001953125 478 259.001953125 478 259 460.928710938 c 128,-1,6
 259.001953125 444 259.001953125 444 246.99609375 431.959960938 c 128,-1,7
 235.001953125 420 235.001953125 420 217.659179688 419.958007812 c 0,8,9
 160.001953125 420 160.001953125 420 145.517578125 405.108398438 c 0,10,11
 136.946289062 395.940429688 136.946289062 395.940429688 136.946289062 350.32421875 c 2,12,-1
 136.946289062 31.275390625 l 2,13,14
 137.001953125 15 137.001953125 15 124.9453125 3.34375 c 0,15,16
 113.001953125 -9 113.001953125 -9 95.9755859375 -8.66015625 c 0,17,18
 79.001953125 -9 79.001953125 -9 67.005859375 3.34375 c 0,19,20
 55.001953125 15 55.001953125 15 55.001953125 31.142578125 c 2,21,-1
 55.0048828125 353.083007812 l 2,22,23
 55.001953125 377 55.001953125 377 55.9951171875 391.168945312 c 0,24,25
 57.001953125 406 57.001953125 406 63.7373046875 425.517578125 c 0,26,27
 71.001953125 446 71.001953125 446 84.705078125 461.0078125 c 0,0,1
EndSplineSet
EndChar

StartChar: s
Encoding: 115 115 51
Width: 383
VWidth: 0
Flags: W
LayerCount: 2
Fore
SplineSet
117.955078125 490.401367188 m 0,0,1
 145.5703125 499.698242188 145.5703125 499.698242188 216.5078125 499.698242188 c 2,2,-1
 302.3828125 499.649414062 l 2,3,4
 319.326171875 499.649414062 319.326171875 499.649414062 331.162109375 487.814453125 c 128,-1,5
 343 475.9765625 343 475.9765625 343 459.247070312 c 128,-1,6
 343 442.516601562 343 442.516601562 331.162109375 430.6796875 c 128,-1,7
 319.326171875 418.844726562 319.326171875 418.844726562 302.359375 418.844726562 c 2,8,-1
 216.479492188 418.895507812 l 2,9,10
 158.801757812 418.895507812 158.801757812 418.895507812 143.737304688 414.0703125 c 0,11,12
 133.798828125 410.887695312 133.798828125 410.887695312 127.249023438 391.01953125 c 0,13,14
 120.510742188 370.586914062 120.510742188 370.586914062 120.510742188 341.69921875 c 0,15,16
 120.510742188 322.749023438 120.510742188 322.749023438 131.8046875 309.345703125 c 0,17,18
 149.264648438 288.623046875 149.264648438 288.623046875 194.008789062 285.805664062 c 0,19,20
 274.231445312 280.756835938 274.231445312 280.756835938 313.928710938 233.638671875 c 0,21,22
 342.975585938 199.16015625 342.975585938 199.16015625 342.975585938 153.2421875 c 0,23,24
 342.975585938 112.544921875 342.975585938 112.544921875 332.533203125 80.875 c 0,25,26
 313.663085938 23.6533203125 313.663085938 23.6533203125 264.73046875 7.978515625 c 0,27,28
 237.114257812 -1.318359375 237.114257812 -1.318359375 166.180664062 -1.318359375 c 2,29,-1
 80.3388671875 -1.26953125 l 2,30,31
 63.435546875 -1.26953125 63.435546875 -1.26953125 51.599609375 10.5673828125 c 128,-1,32
 39.7626953125 22.4052734375 39.7626953125 22.4052734375 39.7626953125 39.134765625 c 128,-1,33
 39.7626953125 55.86328125 39.7626953125 55.86328125 51.599609375 67.7021484375 c 128,-1,34
 63.435546875 79.537109375 63.435546875 79.537109375 80.36328125 79.537109375 c 2,35,-1
 166.203125 79.486328125 l 2,36,37
 223.8828125 79.4873046875 223.8828125 79.4873046875 238.947265625 84.314453125 c 0,38,39
 248.8828125 87.4970703125 248.8828125 87.4970703125 255.434570312 107.362304688 c 0,40,41
 262.170898438 127.798828125 262.170898438 127.798828125 262.170898438 156.688476562 c 0,42,43
 262.170898438 175.6328125 262.170898438 175.6328125 250.877929688 189.036132812 c 0,44,45
 233.415039062 209.76171875 233.415039062 209.76171875 188.673828125 212.578125 c 0,46,47
 108.452148438 217.626953125 108.452148438 217.626953125 68.7578125 264.744140625 c 0,48,49
 39.708984375 299.219726562 39.708984375 299.219726562 39.708984375 345.147460938 c 0,50,51
 39.708984375 385.845703125 39.708984375 385.845703125 50.1494140625 417.505859375 c 0,52,53
 69.017578125 474.7265625 69.017578125 474.7265625 117.955078125 490.401367188 c 0,0,1
EndSplineSet
EndChar

StartChar: t
Encoding: 116 116 52
Width: 331
VWidth: 0
Flags: W
LayerCount: 2
Fore
SplineSet
126.891601562 695.231445312 m 0,0,1
 138.754882812 705.77734375 138.754882812 705.77734375 154.897460938 705.77734375 c 128,-1,2
 171.040039062 705.77734375 171.040039062 705.77734375 182.90234375 695.231445312 c 0,3,4
 195.306640625 684.205078125 195.306640625 684.205078125 195.306640625 665.366210938 c 2,5,-1
 195.306640625 499.989257812 l 1,6,7
 206.369140625 499.989257812 206.369140625 499.989257812 226.329101562 499.995117188 c 128,-1,8
 246.2890625 500.000976562 246.2890625 500.000976562 257.571289062 500.000976562 c 0,9,10
 274.299804688 500.000976562 274.299804688 500.000976562 286.138671875 488.163085938 c 128,-1,11
 297.975585938 476.325195312 297.975585938 476.325195312 297.975585938 459.596679688 c 128,-1,12
 297.975585938 442.866210938 297.975585938 442.866210938 286.137695312 431.029296875 c 128,-1,13
 274.311523438 419.204101562 274.311523438 419.204101562 256.72265625 419.204101562 c 2,14,-1
 195.306640625 419.204101562 l 1,15,-1
 195.306640625 201.849609375 l 2,16,17
 195.306640625 139.7734375 195.306640625 139.7734375 200.912109375 112.776367188 c 0,18,19
 205.262695312 91.8232421875 205.262695312 91.8232421875 213.40625 85.4990234375 c 0,20,21
 226.049804688 75.6748046875 226.049804688 75.6748046875 246.647460938 75.6748046875 c 0,22,23
 247.627929688 75.6748046875 247.627929688 75.6748046875 248.627929688 75.697265625 c 2,24,-1
 278.850585938 76.37109375 l 2,25,26
 279.586914062 76.3876953125 279.586914062 76.3876953125 280.311523438 76.3876953125 c 0,27,28
 304.966796875 76.3876953125 304.966796875 76.3876953125 315.68359375 57.369140625 c 0,29,30
 321.00390625 47.9267578125 321.00390625 47.9267578125 321.00390625 38.4150390625 c 128,-1,31
 321.00390625 28.9375 321.00390625 28.9375 315.72265625 19.392578125 c 0,32,33
 304.825195312 -0.3056640625 304.825195312 -0.3056640625 279.20703125 -0.5615234375 c 2,34,-1
 242.625 -0.9453125 l 2,35,36
 241.888671875 -0.953125 241.888671875 -0.953125 241.155273438 -0.953125 c 0,37,38
 196.828125 -0.953125 196.828125 -0.953125 162.305664062 25.8671875 c 0,39,40
 131.65625 49.677734375 131.65625 49.677734375 121.66015625 97.8232421875 c 0,41,42
 114.48828125 132.368164062 114.48828125 132.368164062 114.48828125 201.83984375 c 2,43,-1
 114.48828125 419.204101562 l 1,44,45
 107.3828125 419.204101562 107.3828125 419.204101562 95.31640625 419.198242188 c 128,-1,46
 83.25 419.192382812 83.25 419.192382812 75.8046875 419.192382812 c 0,47,48
 59.076171875 419.192382812 59.076171875 419.192382812 47.2373046875 431.029296875 c 128,-1,49
 35.400390625 442.866210938 35.400390625 442.866210938 35.400390625 459.596679688 c 128,-1,50
 35.400390625 476.325195312 35.400390625 476.325195312 47.23828125 488.1640625 c 128,-1,51
 59.064453125 499.989257812 59.064453125 499.989257812 76.6533203125 499.989257812 c 2,52,-1
 114.48828125 499.989257812 l 1,53,-1
 114.48828125 665.366210938 l 2,54,55
 114.48828125 684.205078125 114.48828125 684.205078125 126.891601562 695.231445312 c 0,0,1
EndSplineSet
EndChar

StartChar: u
Encoding: 117 117 53
Width: 472
VWidth: 0
Flags: W
LayerCount: 2
Fore
SplineSet
66.615234375 490.030273438 m 0,0,1
 78.265625 501.857421875 78.265625 501.857421875 95.03515625 502.110351562 c 0,2,3
 112.096679688 502.110351562 112.096679688 502.110351562 123.935546875 490.272460938 c 0,4,5
 135.772460938 479.009765625 135.772460938 479.009765625 135.772460938 463.094726562 c 2,6,-1
 135.76953125 159.002929688 l 2,7,8
 135.999023438 119.211914062 135.999023438 119.211914062 154 100.547851562 c 0,9,10
 174.6171875 79.1708984375 174.6171875 79.1708984375 235.96875 79.1708984375 c 128,-1,11
 297.518554688 79.1708984375 297.518554688 79.1708984375 318.5390625 100.86328125 c 0,12,13
 336.770507812 119.67578125 336.770507812 119.67578125 336.17578125 158.331054688 c 2,14,-1
 336.172851562 462.69140625 l 2,15,16
 336.168945312 479.033203125 336.168945312 479.033203125 348.0078125 490.297851562 c 0,17,18
 359.845703125 502.134765625 359.845703125 502.134765625 376.57421875 502.134765625 c 128,-1,19
 393.3046875 502.134765625 393.3046875 502.134765625 405.141601562 490.297851562 c 0,20,21
 416.979492188 478.94921875 416.979492188 478.94921875 416.979492188 462.912109375 c 2,22,-1
 416.975585938 156.796875 l 2,23,24
 418.04296875 87.087890625 418.04296875 87.087890625 377.947265625 45.3974609375 c 0,25,26
 362.828125 29.6767578125 362.828125 29.6767578125 342.87890625 19.2216796875 c 128,-1,27
 322.9296875 8.7666015625 322.9296875 8.7666015625 298.888671875 3.6767578125 c 0,28,29
 270.2421875 -1.6318359375 270.2421875 -1.6318359375 235.970703125 -1.6318359375 c 0,30,31
 139.098632812 -1.6318359375 139.098632812 -1.6318359375 94.46484375 45.0146484375 c 0,32,33
 55.3701171875 85.8740234375 55.3701171875 85.8740234375 54.9697265625 155.96484375 c 2,34,-1
 54.9697265625 462.458984375 l 2,35,36
 54.96484375 478.6875 54.96484375 478.6875 66.615234375 490.030273438 c 0,0,1
EndSplineSet
EndChar

StartChar: v
Encoding: 118 118 54
Width: 415
VWidth: 0
Flags: W
LayerCount: 2
Fore
SplineSet
350.208984375 499.404296875 m 0,0,1
 351.157226562 499.404296875 351.157226562 499.404296875 352.077148438 499.362304688 c 0,2,3
 368.24609375 498.650390625 368.24609375 498.650390625 379.62109375 487.229492188 c 128,-1,4
 390.998046875 475.80859375 390.998046875 475.80859375 390.998046875 460.283203125 c 0,5,6
 390.998046875 454.87109375 390.998046875 454.87109375 389.486328125 449.729492188 c 2,7,-1
 263.109375 27.603515625 l 2,8,9
 259.318359375 15.375 259.318359375 15.375 246.618164062 6.974609375 c 0,10,11
 233.91796875 -1.783203125 233.91796875 -1.783203125 219.219726562 -1.7841796875 c 2,12,-1
 174.146484375 -1.7841796875 l 2,13,14
 159.081054688 -1.783203125 159.081054688 -1.783203125 146.283203125 7.275390625 c 0,15,16
 134.630859375 15.9638671875 134.630859375 15.9638671875 131.474609375 28.580078125 c 2,17,-1
 25.904296875 450.700195312 l 2,18,19
 24.669921875 455.368164062 24.669921875 455.368164062 24.669921875 460.249023438 c 0,20,21
 24.669921875 476.448242188 24.669921875 476.448242188 36.6201171875 487.907226562 c 128,-1,22
 48.5693359375 499.369140625 48.5693359375 499.369140625 65.458984375 499.369140625 c 0,23,24
 79.1572265625 499.369140625 79.1572265625 499.369140625 90.6875 490.15625 c 128,-1,25
 102.217773438 480.944335938 102.217773438 480.944335938 105.227539062 467.649414062 c 2,26,-1
 197.83203125 104.211914062 l 1,27,-1
 306.174804688 468.6484375 l 2,28,29
 309.793945312 481.553710938 309.793945312 481.553710938 322.548828125 490.478515625 c 128,-1,30
 335.3046875 499.404296875 335.3046875 499.404296875 350.208984375 499.404296875 c 0,0,1
EndSplineSet
EndChar

StartChar: w
Encoding: 119 119 55
Width: 730
VWidth: 0
Flags: W
LayerCount: 2
Fore
SplineSet
66.412109375 488.254882812 m 128,-1,1
 78.03515625 499.744140625 78.03515625 499.744140625 94.7197265625 499.986328125 c 0,2,3
 95.076171875 499.991210938 95.076171875 499.991210938 95.4296875 499.991210938 c 0,4,5
 112.010742188 499.991210938 112.010742188 499.991210938 123.815429688 488.7578125 c 0,6,7
 135.873046875 477.28515625 135.873046875 477.28515625 135.631835938 461.124023438 c 2,8,-1
 135.631835938 158.084960938 l 2,9,10
 135.875 118.430664062 135.875 118.430664062 153.79296875 99.8310546875 c 0,11,12
 174.331054688 78.5107421875 174.331054688 78.5107421875 227.919921875 78.5107421875 c 0,13,14
 281.748046875 78.5107421875 281.748046875 78.5107421875 303.911132812 101.223632812 c 0,15,16
 323.135742188 120.926757812 323.135742188 120.926757812 322.5078125 161.403320312 c 2,17,-1
 322.502929688 389.143554688 l 2,18,19
 322.268554688 405.924804688 322.268554688 405.924804688 334.795898438 417.918945312 c 128,-1,20
 347.323242188 429.912109375 347.323242188 429.912109375 365.158203125 429.912109375 c 128,-1,21
 382.9921875 429.912109375 382.9921875 429.912109375 395.51953125 417.918945312 c 128,-1,22
 408.046875 405.924804688 408.046875 405.924804688 407.813476562 389.14453125 c 2,23,-1
 407.849609375 161.978515625 l 2,24,25
 408.086914062 121.104492188 408.086914062 121.104492188 427.71484375 100.893554688 c 0,26,27
 449.453125 78.5107421875 449.453125 78.5107421875 503.080078125 78.5107421875 c 128,-1,28
 556.859375 78.5107421875 556.859375 78.5107421875 577.80078125 100.145507812 c 0,29,30
 595.965820312 118.9140625 595.965820312 118.9140625 595.372070312 157.469726562 c 2,31,-1
 595.369140625 461.123046875 l 2,32,33
 595.1328125 476.943359375 595.1328125 476.943359375 606.756835938 488.34375 c 128,-1,34
 618.379882812 499.74609375 618.379882812 499.74609375 635.065429688 499.986328125 c 0,35,36
 635.418945312 499.991210938 635.418945312 499.991210938 635.771484375 499.991210938 c 0,37,38
 652.354492188 499.991210938 652.354492188 499.991210938 664.16015625 488.681640625 c 0,39,40
 676.215820312 477.131835938 676.215820312 477.131835938 675.974609375 460.864257812 c 2,41,-1
 675.974609375 155.740234375 l 2,42,43
 676.897460938 86.513671875 676.897460938 86.513671875 637.063476562 45.0830078125 c 0,44,45
 614.508789062 21.625 614.508789062 21.625 581.537109375 10.0146484375 c 0,46,47
 548.131835938 -2.09375 548.131835938 -2.09375 503.080078125 -2.09375 c 0,48,49
 413.271484375 -2.09375 413.271484375 -2.09375 365.6484375 45.5859375 c 1,50,51
 341.309570312 21.3232421875 341.309570312 21.3232421875 306.954101562 9.615234375 c 128,-1,52
 272.599609375 -2.09375 272.599609375 -2.09375 227.919921875 -2.09375 c 0,53,54
 138.89453125 -2.09375 138.89453125 -2.09375 94.4013671875 44.44921875 c 0,55,56
 73.6689453125 66.134765625 73.6689453125 66.134765625 64.32421875 94.822265625 c 0,57,58
 55.2099609375 122.801757812 55.2099609375 122.801757812 55.0244140625 155.1484375 c 2,59,-1
 55.0244140625 460.825195312 l 2,60,0
 54.7880859375 476.766601562 54.7880859375 476.766601562 66.412109375 488.254882812 c 128,-1,1
EndSplineSet
EndChar

StartChar: x
Encoding: 120 120 56
Width: 457
VWidth: 0
Flags: W
LayerCount: 2
Fore
SplineSet
56.4404296875 487.581054688 m 128,-1,1
 67.72265625 498.999023438 67.72265625 498.999023438 83.7890625 499.830078125 c 0,2,3
 84.810546875 499.8828125 84.810546875 499.8828125 85.8544921875 499.8828125 c 128,-1,4
 86.8984375 499.8828125 86.8984375 499.8828125 87.875 499.83203125 c 0,5,6
 110.1328125 498.82421875 110.1328125 498.82421875 121.278320312 479.577148438 c 2,7,-1
 228.591796875 317.83203125 l 1,8,-1
 335.905273438 479.581054688 l 2,9,10
 347.666015625 499.854492188 347.666015625 499.854492188 371.642578125 499.854492188 c 0,11,12
 388.693359375 499.458007812 388.693359375 499.458007812 400.345703125 488.010742188 c 128,-1,13
 412 476.5625 412 476.5625 412 460.715820312 c 0,14,15
 412 449.604492188 412 449.604492188 405.94921875 440.209960938 c 2,16,-1
 285.586914062 249.110351562 l 1,17,-1
 405.986328125 57.9833984375 l 2,18,19
 411.782226562 48.7001953125 411.782226562 48.7001953125 411.782226562 37.880859375 c 0,20,21
 411.782226562 29.990234375 411.782226562 29.990234375 408.713867188 22.8896484375 c 128,-1,22
 405.64453125 15.7890625 405.64453125 15.7890625 399.82421875 10.2080078125 c 0,23,24
 387.866210938 -1.75 387.866210938 -1.75 370.96484375 -1.75 c 0,25,26
 347.827148438 -1.75 347.827148438 -1.75 335.94140625 18.103515625 c 2,27,-1
 228.591796875 179.9140625 l 1,28,-1
 121.236328125 18.0986328125 l 2,29,30
 109.34765625 -1.7373046875 109.34765625 -1.7373046875 86.2236328125 -1.7373046875 c 0,31,32
 69.322265625 -1.7373046875 69.322265625 -1.7373046875 57.3642578125 10.2216796875 c 0,33,34
 45.40625 21.6884765625 45.40625 21.6884765625 45.40625 37.89453125 c 0,35,36
 45.40625 48.705078125 45.40625 48.705078125 51.1943359375 57.9833984375 c 2,37,-1
 171.598632812 249.110351562 l 1,38,-1
 51.2353515625 440.203125 l 2,39,40
 45.158203125 449.607421875 45.158203125 449.607421875 45.158203125 460.748046875 c 0,41,0
 45.158203125 476.165039062 45.158203125 476.165039062 56.4404296875 487.581054688 c 128,-1,1
EndSplineSet
EndChar

StartChar: y
Encoding: 121 121 57
Width: 459
VWidth: 0
Flags: W
LayerCount: 2
Fore
SplineSet
66.595703125 489.124023438 m 0,0,1
 78.216796875 500.923828125 78.216796875 500.923828125 94.947265625 501.174804688 c 0,2,3
 111.96875 501.174804688 111.96875 501.174804688 123.77734375 489.366210938 c 0,4,5
 135.5859375 478.133789062 135.5859375 478.133789062 135.5859375 462.255859375 c 2,6,-1
 135.572265625 202.948242188 l 2,7,8
 135.549804688 199.913085938 135.549804688 199.913085938 135.549804688 196.9609375 c 0,9,10
 135.549804688 115.509765625 135.549804688 115.509765625 152.7109375 97.53125 c 0,11,12
 170.380859375 79.0185546875 170.380859375 79.0185546875 274.756835938 79.0185546875 c 2,13,-1
 322.998046875 79.1083984375 l 1,14,-1
 322.995117188 461.622070312 l 2,15,16
 322.995117188 477.354492188 322.995117188 477.354492188 334.673828125 488.631835938 c 0,17,18
 346.596679688 500.736328125 346.596679688 500.736328125 362.98046875 500.73828125 c 0,19,20
 380.275390625 500.73828125 380.275390625 500.73828125 392.138671875 488.875 c 0,21,22
 404.002929688 477.4296875 404.002929688 477.4296875 404.002929688 460.83984375 c 2,23,-1
 404.002929688 21.2412109375 l 2,24,25
 404.002929688 -49.4169921875 404.002929688 -49.4169921875 396.8203125 -84.4599609375 c 0,26,27
 386.793945312 -135.157226562 386.793945312 -135.157226562 356.02734375 -160.25390625 c 0,28,29
 328.249023438 -182.91015625 328.249023438 -182.91015625 274.9609375 -188.420898438 c 0,30,31
 240.228515625 -191.419921875 240.228515625 -191.419921875 150.416992188 -191.419921875 c 0,32,33
 133.646484375 -191.419921875 133.646484375 -191.419921875 121.779296875 -179.553710938 c 128,-1,34
 109.913085938 -167.6875 109.913085938 -167.6875 109.913085938 -150.916015625 c 128,-1,35
 109.913085938 -134.145507812 109.913085938 -134.145507812 121.779296875 -122.27734375 c 128,-1,36
 133.642578125 -110.415039062 133.642578125 -110.415039062 150.862304688 -110.415039062 c 0,37,38
 234.89453125 -110.415039062 234.89453125 -110.415039062 264.294921875 -107.876953125 c 0,39,40
 295.704101562 -104.924804688 295.704101562 -104.924804688 304.828125 -97.4833984375 c 0,41,42
 312.990234375 -90.826171875 312.990234375 -90.826171875 317.35546875 -68.748046875 c 128,-1,43
 321.754882812 -46.5 321.754882812 -46.5 322.743164062 -1.494140625 c 1,44,-1
 274.8203125 -1.5888671875 l 2,45,46
 199.54296875 -1.5888671875 199.54296875 -1.5888671875 157.403320312 7.345703125 c 0,47,48
 118.048828125 16.353515625 118.048828125 16.353515625 93.0361328125 42.7490234375 c 0,49,50
 68.5341796875 68.60546875 68.5341796875 68.60546875 61.3515625 105.749023438 c 0,51,52
 54.9404296875 138.901367188 54.9404296875 138.901367188 54.9404296875 193.899414062 c 0,53,54
 54.9404296875 197.418945312 54.9404296875 197.418945312 54.966796875 201.028320312 c 2,55,-1
 54.9775390625 461.643554688 l 2,56,57
 54.9736328125 477.818359375 54.9736328125 477.818359375 66.595703125 489.124023438 c 0,0,1
EndSplineSet
EndChar

StartChar: z
Encoding: 122 122 58
Width: 420
VWidth: 0
Flags: W
LayerCount: 2
Fore
SplineSet
335.329101562 499.98046875 m 2,0,1
 352.166015625 499.98046875 352.166015625 499.98046875 364.081054688 488.064453125 c 128,-1,2
 375.997070312 476.1484375 375.997070312 476.1484375 375.997070312 459.3125 c 0,3,4
 375.997070312 448.129882812 375.997070312 448.129882812 370.28125 438.522460938 c 2,5,-1
 156.930664062 80.0322265625 l 1,6,-1
 334.317382812 80.0654296875 l 2,7,8
 334.61328125 80.0703125 334.61328125 80.0703125 334.958984375 80.0703125 c 0,9,10
 351.795898438 80.0703125 351.795898438 80.0703125 363.7109375 68.154296875 c 128,-1,11
 375.626953125 56.23828125 375.626953125 56.23828125 375.626953125 39.40234375 c 128,-1,12
 375.626953125 22.5654296875 375.626953125 22.5654296875 363.7109375 10.650390625 c 128,-1,13
 351.795898438 -1.265625 351.795898438 -1.265625 334.958984375 -1.265625 c 0,14,15
 334.62109375 -1.265625 334.62109375 -1.265625 334.333007812 -1.2607421875 c 2,16,-1
 85.4072265625 -1.30859375 l 2,17,18
 68.5712890625 -1.30859375 68.5712890625 -1.30859375 56.6552734375 10.607421875 c 128,-1,19
 44.740234375 22.5234375 44.740234375 22.5234375 44.740234375 39.359375 c 0,20,21
 44.740234375 50.5419921875 44.740234375 50.5419921875 50.45703125 60.15234375 c 2,22,-1
 263.809570312 418.641601562 l 1,23,-1
 86.4189453125 418.606445312 l 2,24,25
 69.0146484375 418.602539062 69.0146484375 418.602539062 57.099609375 430.518554688 c 128,-1,26
 45.18359375 442.434570312 45.18359375 442.434570312 45.18359375 459.270507812 c 128,-1,27
 45.18359375 476.107421875 45.18359375 476.107421875 57.099609375 488.0234375 c 128,-1,28
 69.0146484375 499.938476562 69.0146484375 499.938476562 85.8515625 499.938476562 c 0,29,-1
 335.329101562 499.98046875 l 2,0,1
EndSplineSet
EndChar

StartChar: h
Encoding: 104 104 59
Width: 468
VWidth: 0
Flags: W
LayerCount: 2
Fore
SplineSet
66.4423828125 692.219726562 m 128,-1,1
 78.2607421875 704.388671875 78.2607421875 704.388671875 95.2216796875 704.64453125 c 0,2,3
 95.5830078125 704.650390625 95.5830078125 704.650390625 95.94140625 704.650390625 c 0,4,5
 112.80078125 704.650390625 112.80078125 704.650390625 124.803710938 692.66015625 c 0,6,7
 137.060546875 680.4140625 137.060546875 680.4140625 136.815429688 663.1640625 c 2,8,-1
 136.815429688 501.653320312 l 1,9,-1
 189.75 501.755859375 l 2,10,11
 265.267578125 501.755859375 265.267578125 501.755859375 308.415039062 492.626953125 c 0,12,13
 348.584960938 483.4296875 348.584960938 483.4296875 374.112304688 456.48046875 c 0,14,15
 399.142578125 430.055664062 399.142578125 430.055664062 406.466796875 392.088867188 c 0,16,17
 413.004882812 358.19140625 413.004882812 358.19140625 413.004882812 302.139648438 c 0,18,19
 413.004882812 298.506835938 413.004882812 298.506835938 412.977539062 294.78125 c 2,20,-1
 412.96484375 34.2939453125 l 2,21,22
 413.229492188 17.9228515625 413.229492188 17.9228515625 401.189453125 6.2021484375 c 0,23,24
 389.149414062 -6.0244140625 389.149414062 -6.0244140625 371.990234375 -6.0244140625 c 128,-1,25
 354.827148438 -6.0244140625 354.827148438 -6.0244140625 342.788085938 6.2060546875 c 0,26,27
 330.749023438 17.8447265625 330.749023438 17.8447265625 331.016601562 34.095703125 c 2,28,-1
 331.02734375 292.80859375 l 2,29,30
 331.05078125 295.919921875 331.05078125 295.919921875 331.05078125 298.9453125 c 0,31,32
 331.05078125 382.33984375 331.05078125 382.33984375 313.44140625 400.793945312 c 0,33,34
 295.302734375 419.8046875 295.302734375 419.8046875 189.776367188 419.8046875 c 2,35,-1
 136.815429688 419.708007812 l 1,36,-1
 136.815429688 32.6435546875 l 2,37,38
 136.961914062 22.03515625 136.961914062 22.03515625 131.49609375 12.8935546875 c 128,-1,39
 126.0546875 3.7919921875 126.0546875 3.7919921875 116.571289062 -1.5087890625 c 0,40,41
 107.046875 -7.0986328125 107.046875 -7.0986328125 95.83984375 -7.0986328125 c 0,42,43
 78.708984375 -7.0986328125 78.708984375 -7.0986328125 66.67578125 5.09375 c 0,44,45
 54.6416015625 16.908203125 54.6416015625 16.908203125 54.865234375 33.44140625 c 2,46,-1
 54.865234375 663.163085938 l 2,47,0
 54.625 680.049804688 54.625 680.049804688 66.4423828125 692.219726562 c 128,-1,1
EndSplineSet
EndChar

StartChar: A
Encoding: 65 65 60
Width: 603
VWidth: 0
Flags: W
LayerCount: 2
Fore
SplineSet
130.627929688 641.465820312 m 0,0,1
 198.448242188 701.147460938 198.448242188 701.147460938 341.190429688 701.383789062 c 2,2,-1
 502.208007812 700.53125 l 2,3,4
 519.106445312 700.439453125 519.106445312 700.439453125 531.052734375 688.811523438 c 128,-1,5
 543 677.184570312 543 677.184570312 543 660.81640625 c 2,6,-1
 542.130859375 39.0068359375 l 2,7,8
 542.130859375 22.3984375 542.130859375 22.3984375 530.11328125 10.7705078125 c 0,9,10
 518.094726562 -1.248046875 518.094726562 -1.248046875 501.108398438 -1.248046875 c 128,-1,11
 484.122070312 -1.248046875 484.122070312 -1.248046875 472.104492188 10.7705078125 c 128,-1,12
 460.086914062 22.7861328125 460.086914062 22.7861328125 460.086914062 40.00390625 c 2,13,-1
 460.524414062 360.991210938 l 1,14,-1
 141.685546875 361.174804688 l 1,15,-1
 142.120117188 37.9111328125 l 2,16,17
 142.120117188 22.65234375 142.120117188 22.65234375 130.1015625 10.6337890625 c 128,-1,18
 118.083007812 -1.384765625 118.083007812 -1.384765625 101.096679688 -1.384765625 c 128,-1,19
 84.1103515625 -1.384765625 84.1103515625 -1.384765625 72.091796875 10.6337890625 c 0,20,21
 60.0751953125 22.263671875 60.0751953125 22.263671875 60.0751953125 38.8720703125 c 2,22,-1
 59.509765625 447.547851562 l 2,23,24
 60.587890625 578.16015625 60.587890625 578.16015625 130.627929688 641.465820312 c 0,0,1
460.928710938 630.219726562 m 1,25,-1
 341.158203125 630.84375 l 2,26,27
 234.258789062 630.661132812 234.258789062 630.661132812 187.393554688 591.024414062 c 0,28,29
 142.370117188 549.674804688 142.370117188 549.674804688 141.57421875 450.3359375 c 2,30,-1
 141.599609375 431.71484375 l 1,31,-1
 460.66015625 431.529296875 l 1,32,-1
 460.928710938 630.219726562 l 1,25,-1
EndSplineSet
EndChar

StartChar: B
Encoding: 66 66 61
Width: 565
VWidth: 0
Flags: W
LayerCount: 2
Fore
SplineSet
371.798828125 700.609375 m 1,0,-1
 371.923828125 700.609375 l 2,1,2
 411.549804688 700.609375 411.549804688 700.609375 442.735351562 682.413085938 c 128,-1,3
 473.921875 664.216796875 473.921875 664.216796875 488.315429688 635.983398438 c 0,4,5
 507 599.330078125 507 599.330078125 507 532.508789062 c 0,6,7
 507 462.435546875 507 462.435546875 490.463867188 424.236328125 c 0,8,9
 482.330078125 405.446289062 482.330078125 405.446289062 467.1328125 389.74609375 c 1,10,11
 507 346.465820312 507 346.465820312 507 250.868164062 c 2,12,-1
 507 173.969726562 l 2,13,14
 507 101.340820312 507 101.340820312 489.000976562 64.140625 c 0,15,16
 474.877929688 34.951171875 474.877929688 34.951171875 443.087890625 16.345703125 c 128,-1,17
 411.296875 -2.2607421875 411.296875 -2.2607421875 371.204101562 -1.5576171875 c 0,18,19
 327.7578125 -1.4921875 327.7578125 -1.4921875 237.143554688 -1.3359375 c 128,-1,20
 146.529296875 -1.1796875 146.529296875 -1.1796875 101.383789062 -1.1044921875 c 0,21,22
 84.4169921875 -1.0751953125 84.4169921875 -1.0751953125 72.390625 10.9541015625 c 128,-1,23
 60.365234375 22.982421875 60.365234375 22.982421875 60.33984375 39.9501953125 c 2,24,-1
 59.501953125 658.6171875 l 2,25,26
 59.501953125 675.635742188 59.501953125 675.635742188 71.5107421875 687.682617188 c 128,-1,27
 83.51953125 699.729492188 83.51953125 699.729492188 100.487304688 699.783203125 c 2,28,-1
 371.798828125 700.609375 l 1,0,-1
371.923828125 618.387695312 m 2,29,-1
 141.78125 617.686523438 l 1,30,-1
 142.030273438 433.14453125 l 1,31,-1
 372.065429688 432.350585938 l 2,32,33
 394.345703125 432.352539062 394.345703125 432.352539062 401.470703125 437.219726562 c 128,-1,34
 408.594726562 442.086914062 408.594726562 442.086914062 415.0078125 456.901367188 c 0,35,36
 424.778320312 479.46875 424.778320312 479.46875 424.778320312 532.508789062 c 0,37,38
 424.778320312 579.580078125 424.778320312 579.580078125 415.0625 598.639648438 c 0,39,40
 411 606.608398438 411 606.608398438 407.98046875 609.96875 c 128,-1,41
 404.959960938 613.330078125 404.959960938 613.330078125 396.330078125 615.858398438 c 128,-1,42
 387.700195312 618.38671875 387.700195312 618.38671875 371.923828125 618.387695312 c 2,29,-1
142.141601562 350.919921875 m 1,43,-1
 142.505859375 81.0478515625 l 1,44,45
 167.116210938 81.005859375 167.116210938 81.005859375 248.9375 80.865234375 c 128,-1,46
 330.7578125 80.724609375 330.7578125 80.724609375 371.991210938 80.6572265625 c 0,47,48
 372.28515625 80.6572265625 372.28515625 80.6572265625 372.64453125 80.6513671875 c 0,49,50
 395.491210938 80.2509765625 395.491210938 80.2509765625 402.3203125 84.06640625 c 128,-1,51
 409.1484375 87.8828125 409.1484375 87.8828125 414.98828125 99.9521484375 c 0,52,53
 424.778320312 120.185546875 424.778320312 120.185546875 424.778320312 173.96875 c 2,54,-1
 424.778320312 250.868164062 l 2,55,56
 424.778320312 317.87890625 424.778320312 317.87890625 404.624023438 336.130859375 c 0,57,58
 390.77734375 348.670898438 390.77734375 348.670898438 342.89453125 350.147460938 c 0,59,60
 342.0625 350.173828125 342.0625 350.173828125 341.209960938 350.236328125 c 2,61,-1
 142.141601562 350.919921875 l 1,43,-1
EndSplineSet
EndChar

StartChar: C
Encoding: 67 67 62
Width: 578
VWidth: 0
Flags: W
LayerCount: 2
Fore
SplineSet
341.068359375 702.52734375 m 0,0,1
 346.545898438 702.57421875 346.545898438 702.57421875 358.484375 702.57421875 c 0,2,3
 374.876953125 702.521484375 374.876953125 702.521484375 423.150390625 701.793945312 c 0,4,5
 464.747070312 701.111328125 464.747070312 701.111328125 493.2265625 701.111328125 c 0,6,7
 494.881835938 701.111328125 494.881835938 701.111328125 496.4921875 701.11328125 c 0,8,9
 513.831054688 701.11328125 513.831054688 701.11328125 525.916992188 689.026367188 c 128,-1,10
 538.004882812 676.9375 538.004882812 676.9375 538.004882812 659.853515625 c 128,-1,11
 538.004882812 642.76953125 538.004882812 642.76953125 525.916992188 630.680664062 c 128,-1,12
 513.831054688 618.592773438 513.831054688 618.592773438 496.55078125 618.592773438 c 0,13,14
 494.629882812 618.58984375 494.629882812 618.58984375 492.657226562 618.58984375 c 0,15,16
 463.1953125 618.58984375 463.1953125 618.58984375 422.286132812 619.21875 c 0,17,18
 374.907226562 619.88671875 374.907226562 619.88671875 356.267578125 619.971679688 c 0,19,20
 355.06640625 619.977539062 355.06640625 619.977539062 353.795898438 619.977539062 c 0,21,22
 335.567382812 619.977539062 335.567382812 619.977539062 302.94921875 618.837890625 c 0,23,24
 236.426757812 615.185546875 236.426757812 615.185546875 193.384765625 589.977539062 c 0,25,26
 154.447265625 566.278320312 154.447265625 566.278320312 140.578125 484.373046875 c 0,27,28
 132.143554688 434.559570312 132.143554688 434.559570312 132.143554688 329.6796875 c 0,29,30
 132.143554688 245.251953125 132.143554688 245.251953125 143.953125 189.966796875 c 0,31,32
 158.915039062 119.940429688 158.915039062 119.940429688 189.782226562 105.1171875 c 0,33,34
 203.145507812 98.9208984375 203.145507812 98.9208984375 216.463867188 94.642578125 c 0,35,36
 229.415039062 90.482421875 229.415039062 90.482421875 248.26953125 87.896484375 c 0,37,38
 268.151367188 85.169921875 268.151367188 85.169921875 282.15625 83.6748046875 c 0,39,40
 295.709960938 82.2041015625 295.709960938 82.2041015625 325.443359375 81.787109375 c 0,41,42
 353.24609375 81.38671875 353.24609375 81.38671875 370.247070312 81.38671875 c 0,43,44
 371.768554688 81.38671875 371.768554688 81.38671875 373.203125 81.3896484375 c 0,45,46
 390.728515625 81.427734375 390.728515625 81.427734375 433.116210938 81.8984375 c 0,47,48
 473.064453125 82.37109375 473.064453125 82.37109375 497.038085938 82.517578125 c 0,49,50
 513.791992188 82.517578125 513.791992188 82.517578125 525.879882812 70.4287109375 c 128,-1,51
 537.967773438 58.33984375 537.967773438 58.33984375 537.967773438 41.255859375 c 0,52,53
 537.967773438 32.95703125 537.967773438 32.95703125 534.859375 25.455078125 c 128,-1,54
 531.750976562 17.953125 531.750976562 17.953125 525.879882812 12.0830078125 c 0,55,56
 513.791992188 -0.0068359375 513.791992188 -0.0068359375 496.740234375 -0.0068359375 c 0,57,58
 472.168945312 -0.154296875 472.168945312 -0.154296875 424.504882812 -0.8701171875 c 0,59,60
 375.852539062 -1.5400390625 375.852539062 -1.5400390625 355.366210938 -1.5400390625 c 0,61,62
 353.942382812 -1.5400390625 353.942382812 -1.5400390625 352.655273438 -1.537109375 c 0,63,64
 332.708007812 -1.4873046875 332.708007812 -1.4873046875 296.403320312 -0.138671875 c 0,65,66
 259.31640625 1.23828125 259.31640625 1.23828125 239.370117188 4.939453125 c 0,67,68
 219.849609375 8.4453125 219.849609375 8.4453125 194.946289062 15.0732421875 c 0,69,70
 169.43359375 21.8681640625 169.43359375 21.8681640625 149.096679688 32.361328125 c 0,71,72
 85.859375 64.9912109375 85.859375 64.9912109375 63.1103515625 172.483398438 c 0,73,74
 49.6201171875 236.2265625 49.6201171875 236.2265625 49.6201171875 329.6015625 c 0,75,76
 49.6201171875 441.907226562 49.6201171875 441.907226562 59.1201171875 498.541992188 c 0,77,78
 78.716796875 615.377929688 78.716796875 615.377929688 145.110351562 658.629882812 c 0,79,80
 206.107421875 696.159179688 206.107421875 696.159179688 297.381835938 701.21484375 c 0,81,82
 316.711914062 702.321289062 316.711914062 702.321289062 341.068359375 702.52734375 c 0,0,1
EndSplineSet
EndChar

StartChar: D
Encoding: 68 68 63
Width: 571
VWidth: 0
Flags: W
LayerCount: 2
Fore
SplineSet
142.249023438 702.266601562 m 0,0,1
 173 703 173 703 186.190429688 702.387695312 c 0,2,3
 188.058042242 703.283669696 188.058042242 703.283669696 244.944335938 700.068359375 c 0,4,5
 370 693 370 693 422.239257812 660.01953125 c 0,6,7
 487 619 487 619 506.775390625 497.979492188 c 0,8,9
 516 441 516 441 516 329.452148438 c 0,10,11
 516 247 516 247 497.15625 168.993164062 c 0,12,13
 485 118 485 118 467.904296875 85.017578125 c 0,14,15
 450 50 450 50 415.88671875 32.083984375 c 0,16,17
 393 20 393 20 365.176757812 13.4306640625 c 0,18,19
 338.215192438 6.32046578395 338.215192438 6.32046578395 305.10546875 3.7744140625 c 2,20,21
 145.161132812 -1.33984375 l 1,22,23
 119 -2 119 -2 101.217773438 -1.3369140625 c 0,24,25
 84 -1 84 -1 72.0888671875 10.7177734375 c 0,26,27
 60.0322265625 21.9699237841 60.0322265625 21.9699237841 60.0322265625 38.875 c 2,28,-1
 60.0322265625 662.482421875 l 2,29,30
 60 679 60 679 72.0908203125 690.637695312 c 0,31,32
 85 703 85 703 101.309570312 702.303710938 c 0,33,34
 106 702 106 702 118.038085938 702.208984375 c 0,35,36
 128 702 128 702 142.249023438 702.266601562 c 0,0,1
239.357421875 617.931640625 m 0,37,38
 208 620 208 620 186.220703125 620.05078125 c 0,39,40
 155 620 155 620 142.3359375 620.036132812 c 1,41,-1
 142.3359375 78.14453125 l 1,42,43
 225 79 225 79 285.359375 82.87109375 c 0,44,45
 344 87 344 87 375.040039062 102.494140625 c 0,46,47
 434 132 434 132 433.712890625 317.1875 c 0,48,49
 434 426 434 426 425.465820312 478.659179688 c 0,50,51
 412 567 412 567 375.033203125 589.985351562 c 0,52,53
 339 612 339 612 239.357421875 617.931640625 c 0,37,38
EndSplineSet
EndChar

StartChar: E
Encoding: 69 69 64
Width: 559
VWidth: 0
Flags: W
LayerCount: 2
Fore
SplineSet
198.9921875 699.98046875 m 2,0,-1
 471.577148438 699.98046875 l 1,1,-1
 472.114257812 699.984375 l 2,2,3
 488.626953125 699.984375 488.626953125 699.984375 500.313476562 688.297851562 c 128,-1,4
 512 676.611328125 512 676.611328125 512 660.098632812 c 128,-1,5
 512 643.5859375 512 643.5859375 500.313476562 631.900390625 c 128,-1,6
 488.626953125 620.213867188 488.626953125 620.213867188 472.114257812 620.213867188 c 2,7,-1
 471.577148438 620.216796875 l 1,8,-1
 198.9921875 620.216796875 l 2,9,10
 175.1328125 620.216796875 175.1328125 620.216796875 164.716796875 611.50390625 c 0,11,12
 153.576171875 602.184570312 153.576171875 602.184570312 146.783203125 575.577148438 c 0,13,14
 136.876953125 536.779296875 136.876953125 536.779296875 135.0859375 429.811523438 c 1,15,-1
 438.01953125 429.811523438 l 2,16,17
 455.0703125 429.814453125 455.0703125 429.814453125 466.756835938 418.127929688 c 128,-1,18
 478.443359375 406.442382812 478.443359375 406.442382812 478.443359375 389.9296875 c 128,-1,19
 478.443359375 373.416992188 478.443359375 373.416992188 466.756835938 361.73046875 c 128,-1,20
 455.0703125 350.043945312 455.0703125 350.043945312 438.557617188 350.043945312 c 0,21,-1
 134.456054688 350.047851562 l 2,22,23
 134.453125 348.533203125 134.453125 348.533203125 134.440429688 345.337890625 c 128,-1,24
 134.426757812 342.142578125 134.426757812 342.142578125 134.423828125 340.364257812 c 0,25,-1
 134.423828125 340.362304688 l 2,26,27
 134.157226562 159.159179688 134.157226562 159.159179688 146.94140625 115.305664062 c 0,28,29
 153.3203125 93.423828125 153.3203125 93.423828125 163.692382812 86.1259765625 c 0,30,31
 175.076171875 78.1181640625 175.076171875 78.1181640625 202.04296875 78.1181640625 c 2,32,-1
 471.577148438 78.1181640625 l 1,33,-1
 472.114257812 78.1220703125 l 2,34,35
 488.627929688 78.1220703125 488.627929688 78.1220703125 500.314453125 66.435546875 c 128,-1,36
 512 54.75 512 54.75 512 38.236328125 c 128,-1,37
 512 21.7236328125 512 21.7236328125 500.314453125 10.0380859375 c 128,-1,38
 488.627929688 -1.6484375 488.627929688 -1.6484375 472.114257812 -1.6484375 c 2,39,-1
 471.577148438 -1.64453125 l 1,40,-1
 202.04296875 -1.64453125 l 2,41,42
 149.830078125 -1.64453125 149.830078125 -1.64453125 117.798828125 20.8896484375 c 0,43,44
 84.5673828125 44.267578125 84.5673828125 44.267578125 70.3662109375 92.984375 c 0,45,46
 62.3974609375 120.3203125 62.3974609375 120.3203125 58.796875 162.478515625 c 128,-1,47
 55.1953125 204.637695312 55.1953125 204.637695312 54.87109375 233.748046875 c 128,-1,48
 54.546875 262.858398438 54.546875 262.858398438 54.66015625 340.479492188 c 0,49,50
 54.7763671875 420.693359375 54.7763671875 420.693359375 55.0966796875 448.963867188 c 128,-1,51
 55.4169921875 477.233398438 55.4169921875 477.233398438 58.794921875 521.923828125 c 128,-1,52
 62.173828125 566.615234375 62.173828125 566.615234375 69.5 595.310546875 c 0,53,54
 82.658203125 646.849609375 82.658203125 646.849609375 113.536132812 672.682617188 c 0,55,56
 146.166015625 699.98046875 146.166015625 699.98046875 198.9921875 699.98046875 c 2,0,-1
EndSplineSet
EndChar

StartChar: F
Encoding: 70 70 65
Width: 529
VWidth: 0
Flags: W
LayerCount: 2
Fore
SplineSet
192.326171875 699.650390625 m 2,0,-1
 443.700195312 699.650390625 l 2,1,2
 444.002929688 699.654296875 444.002929688 699.654296875 444.249023438 699.654296875 c 0,3,4
 460.706054688 699.654296875 460.706054688 699.654296875 472.352539062 688.006835938 c 128,-1,5
 484 676.360351562 484 676.360351562 484 659.903320312 c 128,-1,6
 484 643.446289062 484 643.446289062 472.352539062 631.799804688 c 128,-1,7
 460.706054688 620.15234375 460.706054688 620.15234375 444.249023438 620.15234375 c 0,8,9
 444.002929688 620.15234375 444.002929688 620.15234375 443.700195312 620.15625 c 2,10,-1
 192.326171875 620.15625 l 2,11,12
 159.54296875 620.15625 159.54296875 620.15625 150.069335938 610.596679688 c 0,13,14
 139.140625 599.568359375 139.140625 599.568359375 139.140625 560.846679688 c 2,15,-1
 139.140625 427.88671875 l 1,16,-1
 381.375976562 427.88671875 l 2,17,18
 381.805664062 427.891601562 381.805664062 427.891601562 381.999023438 427.891601562 c 0,19,20
 398.456054688 427.891601562 398.456054688 427.891601562 410.102539062 416.244140625 c 128,-1,21
 421.75 404.59765625 421.75 404.59765625 421.75 388.140625 c 128,-1,22
 421.75 371.68359375 421.75 371.68359375 410.102539062 360.036132812 c 128,-1,23
 398.456054688 348.389648438 398.456054688 348.389648438 381.999023438 348.389648438 c 0,24,25
 381.662109375 348.389648438 381.662109375 348.389648438 381.375976562 348.39453125 c 2,26,-1
 139.140625 348.39453125 l 1,27,-1
 139.140625 38.259765625 l 2,28,29
 139.14453125 21.2529296875 139.14453125 21.2529296875 127.497070312 9.60546875 c 128,-1,30
 115.850585938 -2.041015625 115.850585938 -2.041015625 99.3935546875 -2.041015625 c 128,-1,31
 82.9365234375 -2.041015625 82.9365234375 -2.041015625 71.2900390625 9.60546875 c 128,-1,32
 59.642578125 21.2529296875 59.642578125 21.2529296875 59.642578125 37.7099609375 c 0,33,-1
 59.646484375 560.846679688 l 2,34,35
 59.646484375 632.284179688 59.646484375 632.284179688 93.6025390625 666.551757812 c 0,36,37
 126.400390625 699.650390625 126.400390625 699.650390625 192.326171875 699.650390625 c 2,0,-1
EndSplineSet
EndChar

StartChar: G
Encoding: 71 71 66
Width: 573
VWidth: 0
Flags: W
LayerCount: 2
Fore
SplineSet
481.764648438 705.518554688 m 0,0,1
 482.045898438 705.5234375 482.045898438 705.5234375 482.375976562 705.5234375 c 0,2,3
 498.955078125 705.5234375 498.955078125 705.5234375 510.688476562 693.790039062 c 128,-1,4
 522.421875 682.056640625 522.421875 682.056640625 522.421875 665.477539062 c 128,-1,5
 522.421875 648.8984375 522.421875 648.8984375 510.688476562 637.165039062 c 128,-1,6
 498.955078125 625.431640625 498.955078125 625.431640625 482.375976562 625.431640625 c 0,7,8
 482.045898438 625.431640625 482.045898438 625.431640625 481.764648438 625.436523438 c 0,9,10
 337.530273438 625.436523438 337.530273438 625.436523438 264.953125 611.360351562 c 0,11,12
 198.331054688 598.439453125 198.331054688 598.439453125 171.583007812 570.299804688 c 0,13,14
 147.837890625 545.318359375 147.837890625 545.318359375 140.365234375 489.29296875 c 0,15,16
 134.931640625 448.5546875 134.931640625 448.5546875 134.931640625 328.224609375 c 0,17,18
 134.931640625 212.796875 134.931640625 212.796875 140.849609375 174.55078125 c 0,19,20
 148.002929688 128.315429688 148.002929688 128.315429688 169.633789062 110.486328125 c 0,21,22
 212.006835938 75.5615234375 212.006835938 75.5615234375 442.911132812 73.3681640625 c 1,23,-1
 442.911132812 245.9375 l 2,24,25
 442.907226562 246.25 442.907226562 246.25 442.907226562 246.50390625 c 0,26,27
 442.907226562 262.834960938 442.907226562 262.834960938 454.463867188 274.56640625 c 128,-1,28
 466.01953125 286.298828125 466.01953125 286.298828125 482.348632812 286.544921875 c 0,29,30
 499.532226562 286.549804688 499.532226562 286.549804688 511.266601562 274.81640625 c 128,-1,31
 523 263.083007812 523 263.083007812 523 246.50390625 c 0,32,33
 523 246.198242188 523 246.198242188 522.995117188 245.9375 c 2,34,-1
 522.995117188 34.0322265625 l 2,35,36
 522.999023438 23.58203125 522.999023438 23.58203125 516.775390625 13.22265625 c 128,-1,37
 510.55078125 2.86328125 510.55078125 2.86328125 501.756835938 -1.814453125 c 0,38,39
 500.459960938 -2.5234375 500.459960938 -2.5234375 499.17578125 -3.109375 c 0,40,41
 491.063476562 -6.89453125 491.063476562 -6.89453125 482.182617188 -6.89453125 c 2,42,-1
 481.782226562 -6.892578125 l 2,43,44
 312.013671875 -6.966796875 312.013671875 -6.966796875 238.403320312 1.8662109375 c 128,-1,45
 164.79296875 10.69921875 164.79296875 10.69921875 118.701171875 48.689453125 c 0,46,47
 73.525390625 85.9228515625 73.525390625 85.9228515625 61.7060546875 162.306640625 c 0,48,49
 54.8466796875 206.641601562 54.8466796875 206.641601562 54.8466796875 328.224609375 c 0,50,51
 54.8466796875 453.849609375 54.8466796875 453.849609375 60.986328125 499.87890625 c 0,52,53
 71.8935546875 581.661132812 71.8935546875 581.661132812 113.538085938 625.47265625 c 0,54,55
 157.936523438 672.182617188 157.936523438 672.182617188 249.703125 689.98046875 c 0,56,57
 329.817382812 705.518554688 329.817382812 705.518554688 481.764648438 705.518554688 c 0,0,1
EndSplineSet
EndChar

StartChar: H
Encoding: 72 72 67
Width: 602
VWidth: 0
Flags: W
LayerCount: 2
Fore
SplineSet
71.3154296875 690.5703125 m 0,0,1
 83 702 83 702 100.202148438 702.453125 c 0,2,3
 118 702 118 702 129.534179688 690.434570312 c 0,4,5
 141.538137629 678.460704549 141.538137629 678.460704549 141.552734375 661.439453125 c 2,6,-1
 141.759765625 420.020507812 l 1,7,-1
 460.629882812 419.8359375 l 1,8,-1
 460.955078125 661.015625 l 2,9,10
 461 678 461 678 472.796875 690.17578125 c 0,11,12
 485 702 485 702 501.703125 702.418945312 c 0,13,14
 519 702 519 702 530.98046875 690.787109375 c 0,15,16
 543.021108839 678.979299343 543.021108839 678.979299343 542.998046875 662.486328125 c 2,17,-1
 542.125976562 38.8173828125 l 2,18,19
 542 22 542 22 530.109375 10.392578125 c 0,20,21
 518 -2 518 -2 501.104492188 -1.6259765625 c 0,22,23
 484 -2 484 -2 472.100585938 10.392578125 c 0,24,25
 460.056980939 21.9453413415 460.056980939 21.9453413415 460.08203125 39.4130859375 c 2,26,-1
 460.518554688 343.803710938 l 5,27,-1
 141.822265625 343.987304688 l 5,28,-1
 142.099609375 39.6982421875 l 2,29,30
 142 22 142 22 130.084960938 10.2587890625 c 0,31,32
 118 -2 118 -2 101.080078125 -1.759765625 c 0,33,34
 84 -2 84 -2 72.076171875 10.2587890625 c 0,35,36
 60.0722600742 21.9297442284 60.0722600742 21.9297442284 60.0576171875 38.3212890625 c 2,37,-1
 59.5 662.529296875 l 2,38,39
 59 679 59 679 71.3154296875 690.5703125 c 0,0,1
EndSplineSet
EndChar

StartChar: I
Encoding: 73 73 68
Width: 222
VWidth: 0
Flags: W
LayerCount: 2
Fore
SplineSet
81.3505859375 690.787109375 m 128,-1,1
 93.14453125 702.384765625 93.14453125 702.384765625 110.186523438 702.647460938 c 0,2,3
 127.458007812 702.647460938 127.458007812 702.647460938 139.453125 690.651367188 c 0,4,5
 151.44921875 679.047851562 151.44921875 679.047851562 151.44921875 662.658203125 c 2,6,-1
 152.00390625 38.8603515625 l 2,7,8
 152.00390625 22.2255859375 152.00390625 22.2255859375 140.009765625 10.6240234375 c 0,9,10
 128.014648438 -1.37109375 128.014648438 -1.37109375 111.060546875 -1.37109375 c 128,-1,11
 94.1064453125 -1.37109375 94.1064453125 -1.37109375 82.111328125 10.625 c 0,12,13
 70.1142578125 22.234375 70.1142578125 22.234375 70.1142578125 38.6337890625 c 2,14,-1
 69.5595703125 662.58984375 l 2,15,0
 69.5556640625 679.1875 69.5556640625 679.1875 81.3505859375 690.787109375 c 128,-1,1
EndSplineSet
EndChar

StartChar: J
Encoding: 74 74 69
Width: 400
VWidth: 0
Flags: W
LayerCount: 2
Fore
SplineSet
303.266601562 703.845703125 m 0,0,1
 303.69140625 703.850585938 303.69140625 703.850585938 303.884765625 703.850585938 c 0,2,3
 320.90625 703.850585938 320.90625 703.850585938 332.953125 691.803710938 c 128,-1,4
 345 679.756835938 345 679.756835938 345 662.735351562 c 0,5,6
 345 662.475585938 345 662.475585938 344.99609375 662.155273438 c 2,7,-1
 344.99609375 210.373046875 l 2,8,9
 344.99609375 138.504882812 344.99609375 138.504882812 331.536132812 97.8037109375 c 0,10,11
 314.899414062 47.4912109375 314.899414062 47.4912109375 273.247070312 23.23828125 c 0,12,13
 264.249023438 17.9990234375 264.249023438 17.9990234375 255.078125 13.8642578125 c 128,-1,14
 245.908203125 9.73046875 245.908203125 9.73046875 234.168945312 6.77734375 c 128,-1,15
 222.430664062 3.82421875 222.430664062 3.82421875 214.271484375 1.6796875 c 128,-1,16
 206.112304688 -0.46484375 206.112304688 -0.46484375 190.727539062 -1.7705078125 c 128,-1,17
 175.34375 -3.0771484375 175.34375 -3.0771484375 167.8515625 -3.869140625 c 128,-1,18
 160.360351562 -4.66015625 160.360351562 -4.66015625 140.987304688 -4.95703125 c 128,-1,19
 121.614257812 -5.25390625 121.614257812 -5.25390625 114.446289062 -5.330078125 c 128,-1,20
 107.278320312 -5.40625 107.278320312 -5.40625 83.572265625 -5.330078125 c 128,-1,21
 59.8671875 -5.25390625 59.8671875 -5.25390625 52.1181640625 -5.25390625 c 0,22,23
 34.5146484375 -5.2578125 34.5146484375 -5.2578125 22.46875 6.7890625 c 128,-1,24
 10.421875 18.8349609375 10.421875 18.8349609375 10.421875 35.857421875 c 128,-1,25
 10.421875 52.87890625 10.421875 52.87890625 22.46875 64.92578125 c 128,-1,26
 34.5146484375 76.97265625 34.5146484375 76.97265625 51.537109375 76.97265625 c 0,27,28
 202.125976562 76.96875 202.125976562 76.96875 231.873046875 94.2900390625 c 0,29,30
 246.612304688 102.873046875 246.612304688 102.873046875 253.47265625 123.6171875 c 0,31,32
 262.7734375 151.74609375 262.7734375 151.74609375 262.7734375 210.373046875 c 2,33,-1
 262.7734375 662.155273438 l 2,34,35
 262.76953125 662.475585938 262.76953125 662.475585938 262.76953125 662.735351562 c 0,36,37
 262.76953125 679.502929688 262.76953125 679.502929688 274.634765625 691.547851562 c 128,-1,38
 286.500976562 703.592773438 286.500976562 703.592773438 303.266601562 703.845703125 c 0,0,1
EndSplineSet
EndChar

StartChar: P
Encoding: 80 80 70
Width: 479
VWidth: 0
Flags: W
LayerCount: 2
Fore
SplineSet
140.6953125 703.092773438 m 0,0,1
 164.58984375 703.22265625 164.58984375 703.22265625 176.58984375 703.22265625 c 0,2,3
 245.135742188 703.185546875 245.135742188 703.185546875 285.392578125 698.559570312 c 0,4,5
 322.9921875 693.897460938 322.9921875 693.897460938 350.999023438 678.6640625 c 0,6,7
 378.083984375 663.931640625 378.083984375 663.931640625 391.0078125 637.9921875 c 0,8,9
 402.931640625 614.0625 402.931640625 614.0625 411.615234375 576.901367188 c 0,10,11
 424.001953125 523.901367188 424.001953125 523.901367188 424.001953125 465.930664062 c 0,12,13
 424.001953125 388.826171875 424.001953125 388.826171875 417.735351562 348.764648438 c 0,14,15
 404.19921875 262.224609375 404.19921875 262.224609375 356.349609375 230.161132812 c 0,16,17
 315.658203125 202.89453125 315.658203125 202.89453125 248.255859375 198.559570312 c 0,18,19
 232.063476562 197.55859375 232.063476562 197.55859375 177.171875 197.55859375 c 0,20,21
 161.369140625 197.55859375 161.369140625 197.55859375 142.360351562 197.641601562 c 1,22,-1
 142.360351562 38.7353515625 l 2,23,24
 142.364257812 27.5986328125 142.364257812 27.5986328125 136.860351562 18.4345703125 c 0,25,26
 134.163085938 13.9423828125 134.163085938 13.9423828125 130.3828125 10.2841796875 c 128,-1,27
 126.602539062 6.50390625 126.602539062 6.50390625 121.958984375 3.8056640625 c 0,28,29
 112.490234375 -1.6962890625 112.490234375 -1.6962890625 101.389648438 -1.6962890625 c 0,30,31
 84.4248046875 -1.6962890625 84.4248046875 -1.6962890625 72.4208984375 10.3076171875 c 0,32,33
 60.4169921875 21.9189453125 60.4169921875 21.9189453125 60.4169921875 38.3291015625 c 2,34,-1
 60.419921875 655.283203125 l 2,35,36
 59.650390625 659.129882812 59.650390625 659.129882812 59.650390625 662.9296875 c 0,37,38
 59.650390625 679.341796875 59.650390625 679.341796875 71.6552734375 690.952148438 c 0,39,40
 83.66015625 702.958984375 83.66015625 702.958984375 101.051757812 702.958007812 c 0,41,42
 115.959960938 702.958007812 115.959960938 702.958007812 140.6953125 703.092773438 c 0,0,1
254.522460938 629.563476562 m 0,43,44
 216.86328125 632.135742188 216.86328125 632.135742188 142.381835938 632.448242188 c 1,45,-1
 142.3828125 274.377929688 l 1,46,47
 162.05078125 274.305664062 162.05078125 274.305664062 177.908203125 274.305664062 c 0,48,49
 228.791992188 274.305664062 228.791992188 274.305664062 240.420898438 275.048828125 c 0,50,51
 283.40625 277.796875 283.40625 277.796875 309.71875 293.379882812 c 0,52,53
 328.490234375 306.379882812 328.490234375 306.379882812 336.735351562 360.841796875 c 0,54,55
 342.078125 396.145507812 342.078125 396.145507812 342.078125 469.6484375 c 0,56,57
 342.078125 520.399414062 342.078125 520.399414062 331.708007812 566.26171875 c 0,58,59
 328.508789062 580.4140625 328.508789062 580.4140625 322.982421875 593.669921875 c 128,-1,60
 317.434570312 606.981445312 317.434570312 606.981445312 313.362304688 613.522460938 c 0,61,62
 311.399414062 616.674804688 311.399414062 616.674804688 309.901367188 618.594726562 c 0,63,64
 291.721679688 627.022460938 291.721679688 627.022460938 254.522460938 629.563476562 c 0,43,44
EndSplineSet
EndChar

StartChar: Q
Encoding: 81 81 71
Width: 620
VWidth: 0
Flags: W
LayerCount: 2
Fore
SplineSet
197.408203125 691.638671875 m 0,0,1
 241.547851562 705.337890625 241.547851562 705.337890625 310.879882812 705.337890625 c 128,-1,2
 380.25390625 705.337890625 380.25390625 705.337890625 424.353515625 691.650390625 c 0,3,4
 444.334960938 685.651367188 444.334960938 685.651367188 474.182617188 668.248046875 c 0,5,6
 510.716796875 646.547851562 510.716796875 646.547851562 529.249023438 606.034179688 c 0,7,8
 546.887695312 567.471679688 546.887695312 567.471679688 557.275390625 511.83203125 c 0,9,10
 570.995117188 438.33984375 570.995117188 438.33984375 570.995117188 338.0234375 c 0,11,12
 570.995117188 255.696289062 570.995117188 255.696289062 551.96875 177.731445312 c 0,13,14
 539.8515625 128.072265625 539.8515625 128.072265625 523.315429688 94.91796875 c 0,15,16
 505.865234375 59.935546875 505.865234375 59.935546875 473.915039062 40.845703125 c 0,17,18
 472.915039062 40.2490234375 472.915039062 40.2490234375 466.608398438 36.4033203125 c 0,19,20
 460.061523438 32.4130859375 460.061523438 32.4130859375 457.42578125 30.9462890625 c 128,-1,21
 454.981445312 29.5869140625 454.981445312 29.5869140625 448.02734375 25.8740234375 c 0,22,23
 440.04296875 21.818359375 440.04296875 21.818359375 434.522460938 19.78125 c 0,24,25
 429.822265625 18.046875 429.822265625 18.046875 421.79296875 14.9501953125 c 0,26,27
 412.836914062 11.49609375 412.836914062 11.49609375 404.583007812 9.51171875 c 0,28,29
 397.138671875 7.6611328125 397.138671875 7.6611328125 387.685546875 5.42578125 c 0,30,31
 377.66796875 3.0576171875 377.66796875 3.0576171875 366.624023438 1.5576171875 c 0,32,33
 361.767578125 0.8974609375 361.767578125 0.8974609375 355.704101562 0.240234375 c 1,34,-1
 355.82421875 -28.7646484375 l 2,35,36
 355.82421875 -45.22265625 355.82421875 -45.22265625 342.74609375 -57.2255859375 c 128,-1,37
 329.668945312 -69.2314453125 329.668945312 -69.2314453125 311.185546875 -69.2314453125 c 128,-1,38
 292.701171875 -69.2314453125 292.701171875 -69.2314453125 279.624023438 -57.2265625 c 128,-1,39
 266.545898438 -45.22265625 266.545898438 -45.22265625 266.545898438 -27.48046875 c 2,40,-1
 266.431640625 0.2548828125 l 1,41,42
 239.211914062 3.37109375 239.211914062 3.37109375 214.323242188 11.119140625 c 0,43,44
 184.375976562 20.134765625 184.375976562 20.134765625 175.874023438 24.5869140625 c 0,45,46
 168.575195312 28.5126953125 168.575195312 28.5126953125 147.841796875 40.8974609375 c 0,47,48
 115.892578125 59.9853515625 115.892578125 59.9853515625 98.4580078125 94.9609375 c 0,49,50
 81.9375 128.10546875 81.9375 128.10546875 69.8271484375 177.771484375 c 0,51,52
 50.76953125 255.940429688 50.76953125 255.940429688 50.76953125 338.845703125 c 0,53,54
 50.76953125 437.999023438 50.76953125 437.999023438 64.5341796875 511.833007812 c 0,55,56
 74.9091796875 567.479492188 74.9091796875 567.479492188 92.529296875 606.033203125 c 0,57,58
 111.043945312 646.541015625 111.043945312 646.541015625 147.58203125 668.23828125 c 0,59,60
 177.423828125 685.639648438 177.423828125 685.639648438 197.408203125 691.638671875 c 0,0,1
395.526367188 613.42578125 m 0,61,62
 365 623 365 623 310.85546875 622.772460938 c 0,63,64
 256 623 256 623 226.194335938 613.430664062 c 0,65,66
 216 610 216 610 192.544921875 597.09375 c 0,67,68
 180 590 180 590 166.595703125 561.733398438 c 0,69,70
 153 531 153 531 145.764648438 491.096679688 c 0,71,72
 133 422 133 422 133.309570312 326.828125 c 0,73,74
 133 273 133 273 150.1640625 201.350585938 c 0,75,76
 158 167 158 167 171.48046875 140.59765625 c 0,77,78
 184.664930808 116.609630368 184.664930808 116.609630368 208.2265625 102.07421875 c 0,79,80
 218 96 218 96 222.443359375 93.953125 c 128,-1,81
 227 92 227 92 236.172851562 88.1650390625 c 0,82,83
 245 85 245 85 254.533203125 83.177734375 c 0,84,85
 260 82 260 82 266.072265625 81.6201171875 c 1,86,-1
 265.920898438 118.426757812 l 2,87,88
 266 136 266 136 278.733398438 147.643554688 c 0,89,90
 292 160 292 160 310.112304688 159.955078125 c 0,91,92
 329 160 329 160 342.115234375 147.950195312 c 128,-1,93
 355.126037192 135.88310466 355.126037192 135.88310466 355.194335938 119.000976562 c 2,94,-1
 355.345703125 81.5859375 l 1,95,96
 362 82 362 82 367.076171875 83.15625 c 0,97,98
 377 85 377 85 385.486328125 88.1455078125 c 0,99,100
 395 92 395 92 399.241210938 93.935546875 c 0,101,102
 403 96 403 96 413.477539062 102.063476562 c 0,103,104
 438.312165344 118.434738787 438.312165344 118.434738787 450.260742188 140.60546875 c 0,105,106
 464 167 464 167 471.595703125 201.359375 c 0,107,108
 488 273 488 273 488.416015625 326.041992188 c 0,109,110
 488 422 488 422 476.010742188 491.08984375 c 0,111,112
 469 531 469 531 455.154296875 561.719726562 c 0,113,114
 442 590 442 590 429.176757812 597.08984375 c 0,115,116
 406 610 406 610 395.526367188 613.42578125 c 0,61,62
EndSplineSet
EndChar

StartChar: R
Encoding: 82 82 72
Width: 567
VWidth: 0
Flags: W
LayerCount: 2
Fore
SplineSet
358.451171875 700.451171875 m 1,0,-1
 358.583984375 700.451171875 l 2,1,2
 429.924804688 700.451171875 429.924804688 700.451171875 469.047851562 655.6484375 c 0,3,4
 507 612.189453125 507 612.189453125 507 532.029296875 c 0,5,6
 507 450.458007812 507 450.458007812 474.860351562 403.513671875 c 0,7,8
 469.46484375 395.6328125 469.46484375 395.6328125 460.739257812 386.829101562 c 1,9,10
 507 338.854492188 507 338.854492188 507 222.634765625 c 2,11,-1
 507 39.1865234375 l 2,12,13
 507.00390625 21.5830078125 507.00390625 21.5830078125 494.95703125 9.5361328125 c 128,-1,14
 482.91015625 -2.5107421875 482.91015625 -2.5107421875 465.888671875 -2.5107421875 c 128,-1,15
 448.8671875 -2.5107421875 448.8671875 -2.5107421875 436.8203125 9.5361328125 c 128,-1,16
 424.7734375 21.5830078125 424.7734375 21.5830078125 424.7734375 38.6044921875 c 0,17,-1
 424.77734375 222.634765625 l 2,18,19
 424.77734375 307.600585938 424.77734375 307.600585938 400.48046875 330.94140625 c 0,20,21
 386.607421875 344.271484375 386.607421875 344.271484375 338.788085938 345.750976562 c 0,22,23
 336.146484375 345.8203125 336.146484375 345.8203125 333.536132812 346.228515625 c 2,24,-1
 142.8984375 346.578125 l 1,25,-1
 143.3125 39.2421875 l 2,26,27
 143.317382812 21.5849609375 143.317382812 21.5849609375 131.270507812 9.5390625 c 128,-1,28
 119.223632812 -2.5078125 119.223632812 -2.5078125 102.202148438 -2.5078125 c 128,-1,29
 85.1806640625 -2.5078125 85.1806640625 -2.5078125 73.1337890625 9.5390625 c 128,-1,30
 61.0869140625 21.5849609375 61.0869140625 21.5849609375 61.0869140625 38.607421875 c 0,31,-1
 60.2548828125 658.45703125 l 1,32,-1
 60.2548828125 658.509765625 l 2,33,34
 60.2548828125 675.474609375 60.2548828125 675.474609375 72.26171875 687.521484375 c 128,-1,35
 84.2685546875 699.568359375 84.2685546875 699.568359375 101.233398438 699.625 c 2,36,-1
 358.451171875 700.451171875 l 1,0,-1
358.583984375 618.229492188 m 2,37,-1
 142.53125 617.53515625 l 1,38,-1
 142.78515625 428.797851562 l 1,39,-1
 358.587890625 428.405273438 l 2,40,41
 378.690429688 428.405273438 378.690429688 428.405273438 388.825195312 433.30078125 c 128,-1,42
 398.958984375 438.196289062 398.958984375 438.196289062 407.014648438 449.962890625 c 0,43,44
 424.77734375 475.908203125 424.77734375 475.908203125 424.77734375 532.029296875 c 0,45,46
 424.77734375 581.342773438 424.77734375 581.342773438 407.1171875 601.56640625 c 0,47,48
 392.569335938 618.225585938 392.569335938 618.225585938 358.583984375 618.229492188 c 2,37,-1
EndSplineSet
EndChar

StartChar: S
Encoding: 83 83 73
Width: 503
VWidth: 0
Flags: W
LayerCount: 2
Fore
SplineSet
291.126953125 702.764648438 m 0,0,-1
 426.240234375 702.69921875 l 2,1,2
 443.823242188 702.703125 443.823242188 702.703125 455.870117188 690.65625 c 128,-1,3
 467.916992188 678.610351562 467.916992188 678.610351562 467.916992188 661.587890625 c 128,-1,4
 467.916992188 644.56640625 467.916992188 644.56640625 455.870117188 632.51953125 c 128,-1,5
 443.823242188 620.47265625 443.823242188 620.47265625 426.801757812 620.47265625 c 0,6,-1
 291.270507812 620.54296875 l 2,7,8
 196.842773438 620.374023438 196.842773438 620.374023438 155.4375 592.334960938 c 0,9,10
 135.366210938 578.744140625 135.366210938 578.744140625 126.3359375 559.131835938 c 128,-1,11
 117.305664062 539.520507812 117.305664062 539.520507812 117.305664062 504.245117188 c 0,12,13
 117.305664062 437.265625 117.305664062 437.265625 144.139648438 414.206054688 c 0,14,15
 172.360351562 389.954101562 172.360351562 389.954101562 251.541992188 389.954101562 c 0,16,17
 358.322265625 389.954101562 358.322265625 389.954101562 414.374023438 335.54296875 c 0,18,19
 468 283.483398438 468 283.483398438 468 190.028320312 c 0,20,21
 468 92.158203125 468 92.158203125 409.139648438 44.474609375 c 0,22,23
 347.970703125 -5.078125 347.970703125 -5.078125 211.888671875 -5.078125 c 0,24,-1
 76.84765625 -5.015625 l 2,25,26
 59.263671875 -5.01953125 59.263671875 -5.01953125 47.2177734375 7.02734375 c 128,-1,27
 35.1708984375 19.07421875 35.1708984375 19.07421875 35.1708984375 36.095703125 c 128,-1,28
 35.1708984375 53.1181640625 35.1708984375 53.1181640625 47.2177734375 65.1640625 c 128,-1,29
 59.263671875 77.2109375 59.263671875 77.2109375 76.2861328125 77.2109375 c 0,30,-1
 211.908203125 77.14453125 l 2,31,32
 318.84765625 77.1474609375 318.84765625 77.1474609375 357.383789062 108.36328125 c 0,33,34
 385.77734375 131.366210938 385.77734375 131.366210938 385.77734375 190.028320312 c 128,-1,35
 385.77734375 248.711914062 385.77734375 248.711914062 357.103515625 276.546875 c 0,36,37
 324.979492188 307.732421875 324.979492188 307.732421875 251.541015625 307.732421875 c 0,38,39
 141.881835938 307.732421875 141.881835938 307.732421875 90.5498046875 351.844726562 c 0,40,41
 35.0830078125 399.509765625 35.0830078125 399.509765625 35.0830078125 504.245117188 c 0,42,43
 35.0830078125 554.831054688 35.0830078125 554.831054688 54.3681640625 595.54296875 c 128,-1,44
 73.65234375 636.254882812 73.65234375 636.254882812 109.333984375 660.416992188 c 0,45,46
 171.559570312 702.551757812 171.559570312 702.551757812 291.126953125 702.764648438 c 0,0,-1
EndSplineSet
EndChar

StartChar: T
Encoding: 84 84 74
Width: 553
VWidth: 0
Flags: W
LayerCount: 2
Fore
SplineSet
50.9619140625 699.693359375 m 2,0,-1
 504.38671875 700.25 l 2,1,2
 519 700 519 700 531.323242188 688.248046875 c 0,3,4
 543 676 543 676 543.329101562 659.27734375 c 0,5,6
 543 642 543 642 531.32421875 630.307617188 c 0,7,8
 520.297851562 618.323242188 520.297851562 618.323242188 502.3671875 618.301757812 c 2,9,-1
 320.413085938 618.08203125 l 1,10,-1
 320.978515625 40.3974609375 l 2,11,12
 321 30 321 30 317.681640625 25.0009765625 c 0,13,14
 314 18 314 18 308.086914062 12.0625 c 0,15,16
 295 0 295 0 276.969726562 0.056640625 c 0,17,18
 258 0 258 0 245.852539062 12.0615234375 c 0,19,20
 232.97265625 24.025390625 232.97265625 24.025390625 232.95703125 40.0751953125 c 2,21,-1
 232.391601562 620.252929688 l 1,22,-1
 51.41796875 620.03125 l 2,23,24
 34 620 34 620 22.005859375 631.640625 c 0,25,26
 10 643 10 643 10 659.665039062 c 0,27,28
 10 676 10 676 22.0048828125 687.6875 c 0,29,30
 34 700 34 700 50.9619140625 699.693359375 c 2,0,-1
EndSplineSet
EndChar

StartChar: U
Encoding: 85 85 75
Width: 612
VWidth: 0
Flags: W
LayerCount: 2
Fore
SplineSet
71.865234375 689.228515625 m 128,-1,1
 83.6904296875 700.854492188 83.6904296875 700.854492188 101.353515625 701.1171875 c 0,2,3
 118.051757812 701.1171875 118.051757812 701.1171875 130.071289062 689.52734375 c 128,-1,4
 142.087890625 677.94140625 142.087890625 677.94140625 142.087890625 661.154296875 c 2,5,-1
 142.087890625 215.41015625 l 2,6,7
 142.467773438 150.79296875 142.467773438 150.79296875 173.836914062 118.689453125 c 0,8,9
 213.229492188 81.4794921875 213.229492188 81.4794921875 305.998046875 81.4794921875 c 0,10,11
 399.051757812 81.4794921875 399.051757812 81.4794921875 439.015625 119.12109375 c 0,12,13
 470.897460938 151.59375 470.897460938 151.59375 469.912109375 214.704101562 c 2,14,-1
 469.91015625 661.501953125 l 2,15,16
 469.91015625 677.881835938 469.91015625 677.881835938 481.9296875 689.471679688 c 128,-1,17
 493.94921875 701.061523438 493.94921875 701.061523438 510.9375 701.061523438 c 128,-1,18
 527.924804688 701.061523438 527.924804688 701.061523438 539.946289062 689.422851562 c 128,-1,19
 551.963867188 677.786132812 551.963867188 677.786132812 551.963867188 660.984375 c 2,20,-1
 551.963867188 213.689453125 l 2,21,22
 552.002929688 211.172851562 552.002929688 211.172851562 552.002929688 208.68359375 c 0,23,24
 552.002929688 116.666992188 552.002929688 116.666992188 498.610351562 62.056640625 c 0,25,26
 437.377929688 -0.572265625 437.377929688 -0.572265625 306.001953125 -0.572265625 c 128,-1,27
 174.77734375 -0.572265625 174.77734375 -0.572265625 114.122070312 61.7578125 c 0,28,29
 60.603515625 116.754882812 60.603515625 116.754882812 60.0439453125 212.977539062 c 2,30,-1
 60.0400390625 661.3828125 l 2,31,0
 60.0400390625 677.600585938 60.0400390625 677.600585938 71.865234375 689.228515625 c 128,-1,1
EndSplineSet
EndChar

StartChar: V
Encoding: 86 86 76
Width: 532
VWidth: 0
Flags: W
LayerCount: 2
Fore
SplineSet
36.853515625 690.107421875 m 128,-1,1
 48.85546875 701.725585938 48.85546875 701.725585938 66.2255859375 701.725585938 c 0,2,3
 79.4375 701.577148438 79.4375 701.577148438 90.7451171875 692.775390625 c 128,-1,4
 102.05078125 683.974609375 102.05078125 683.974609375 105.401367188 671.341796875 c 2,5,-1
 259.431640625 160.64453125 l 1,6,-1
 428.723632812 672.305664062 l 2,7,8
 432.346679688 684.682617188 432.346679688 684.682617188 443.700195312 693.190429688 c 128,-1,9
 455.0546875 701.696289062 455.0546875 701.696289062 468.026367188 701.696289062 c 0,10,11
 484.991210938 701.696289062 484.991210938 701.696289062 496.995117188 690.076171875 c 128,-1,12
 508.999023438 678.456054688 508.999023438 678.456054688 508.999023438 662.033203125 c 0,13,14
 508.999023438 655.810546875 508.999023438 655.810546875 507.055664062 649.963867188 c 2,15,-1
 300.704101562 25.56640625 l 2,16,17
 296.551757812 13.720703125 296.551757812 13.720703125 284.076171875 5.638671875 c 0,18,19
 271.599609375 -2.708984375 271.599609375 -2.708984375 257.466796875 -2.708984375 c 0,20,21
 242.990234375 -2.708984375 242.990234375 -2.708984375 230.41015625 5.9267578125 c 0,22,23
 217.831054688 14.2861328125 217.831054688 14.2861328125 213.915039062 26.5087890625 c 2,24,-1
 26.5087890625 650.892578125 l 2,25,26
 24.849609375 656.323242188 24.849609375 656.323242188 24.849609375 662.064453125 c 0,27,0
 24.849609375 678.487304688 24.849609375 678.487304688 36.853515625 690.107421875 c 128,-1,1
EndSplineSet
EndChar

StartChar: W
Encoding: 87 87 77
Width: 975
VWidth: 0
Flags: W
LayerCount: 2
Fore
SplineSet
71.9296875 690.181640625 m 128,-1,1
 83.7392578125 701.795898438 83.7392578125 701.795898438 101.2578125 702.0546875 c 0,2,3
 118.060546875 702.0546875 118.060546875 702.0546875 130.064453125 690.478515625 c 128,-1,4
 142.064453125 678.905273438 142.064453125 678.905273438 142.064453125 662.139648438 c 2,5,-1
 142.064453125 213.551757812 l 2,6,7
 142.435546875 148.478515625 142.435546875 148.478515625 172.958984375 116.209960938 c 0,8,9
 208.853515625 79.3974609375 208.853515625 79.3974609375 292.79296875 79.3974609375 c 0,10,11
 376.99609375 79.3974609375 376.99609375 79.3974609375 413.778320312 118.020507812 c 0,12,13
 446.010742188 151.865234375 446.010742188 151.865234375 445.00390625 217.796875 c 2,14,-1
 445.00390625 479.374023438 l 2,15,16
 445.000976562 496.745117188 445.000976562 496.745117188 457.471679688 508.75 c 128,-1,17
 469.94140625 520.75390625 469.94140625 520.75390625 487.564453125 520.75390625 c 128,-1,18
 505.188476562 520.75390625 505.188476562 520.75390625 517.658203125 508.75 c 128,-1,19
 530.127929688 496.74609375 530.127929688 496.74609375 530.127929688 479.78125 c 2,20,-1
 530.125 227.431640625 l 2,21,22
 531.092773438 222.32421875 531.092773438 222.32421875 531.092773438 218.645507812 c 0,23,24
 531.474609375 151.033203125 531.474609375 151.033203125 563.182617188 117.57421875 c 0,25,26
 599.35546875 79.4013671875 599.35546875 79.4013671875 683.293945312 79.4013671875 c 0,27,28
 767.494140625 79.4013671875 767.494140625 79.4013671875 803.970703125 116.649414062 c 0,29,30
 834.997070312 149.28515625 834.997070312 149.28515625 834.028320312 212.87109375 c 2,31,-1
 834.025390625 662.546875 l 2,32,33
 834.025390625 678.677734375 834.025390625 678.677734375 845.834960938 690.243164062 c 128,-1,34
 857.64453125 701.807617188 857.64453125 701.807617188 874.649414062 702.059570312 c 0,35,36
 891.958007812 702.059570312 891.958007812 702.059570312 903.9609375 690.434570312 c 128,-1,37
 915.961914062 678.813476562 915.961914062 678.813476562 915.961914062 661.978515625 c 2,38,-1
 915.961914062 211.833984375 l 2,39,40
 916 209.306640625 916 209.306640625 916 206.806640625 c 0,41,42
 916 115.12109375 916 115.12109375 864.3671875 60.58203125 c 0,43,44
 834.33984375 28.8671875 834.33984375 28.8671875 789.6640625 13.1611328125 c 0,45,46
 743.5 -2.5458984375 743.5 -2.5458984375 683.291992188 -2.5458984375 c 0,47,48
 561.795898438 -2.5458984375 561.795898438 -2.5458984375 500.295898438 62.337890625 c 0,49,50
 494.228515625 68.7412109375 494.228515625 68.7412109375 488.318359375 76.3798828125 c 1,51,52
 482.543945312 68.966796875 482.543945312 68.966796875 476.521484375 62.642578125 c 0,53,54
 414.43359375 -2.5458984375 414.43359375 -2.5458984375 292.794921875 -2.5458984375 c 0,55,56
 171.630859375 -2.5458984375 171.630859375 -2.5458984375 112.424804688 60.2861328125 c 0,57,58
 60.666015625 115.213867188 60.666015625 115.213867188 60.123046875 211.137695312 c 2,59,-1
 60.1201171875 662.370117188 l 2,60,0
 60.1201171875 678.569335938 60.1201171875 678.569335938 71.9296875 690.181640625 c 128,-1,1
EndSplineSet
EndChar

StartChar: X
Encoding: 88 88 78
Width: 584
VWidth: 0
Flags: W
LayerCount: 2
Fore
SplineSet
458.45703125 682.001953125 m 2,0,1
 470.197265625 702.6328125 470.197265625 702.6328125 494.610351562 702.6328125 c 0,2,3
 511.411132812 702.361328125 511.411132812 702.361328125 523.204101562 690.756835938 c 128,-1,4
 534.998046875 679.151367188 534.998046875 679.151367188 534.998046875 662.979492188 c 0,5,6
 534.998046875 651.885742188 534.998046875 651.885742188 529.087890625 642.462890625 c 2,7,-1
 346.837890625 350.502929688 l 1,8,-1
 529.088867188 58.5390625 l 2,9,10
 534.987304688 49.126953125 534.987304688 49.126953125 534.987304688 38.0419921875 c 0,11,12
 534.987304688 21.62109375 534.987304688 21.62109375 522.983398438 10.0029296875 c 0,13,14
 510.979492188 -2.0009765625 510.979492188 -2.0009765625 494.013671875 -2.0009765625 c 0,15,16
 470.211914062 -2.0009765625 470.211914062 -2.0009765625 458.458984375 18.6083984375 c 2,17,-1
 295.665039062 280.98828125 l 1,18,-1
 129.548828125 18.6083984375 l 2,19,20
 116.897460938 -2.0009765625 116.897460938 -2.0009765625 91.275390625 -2.0009765625 c 0,21,22
 74.30859375 -2.0009765625 74.30859375 -2.0009765625 62.3046875 10.0029296875 c 0,23,24
 50.30078125 21.62109375 50.30078125 21.62109375 50.30078125 38.0419921875 c 0,25,26
 50.30078125 49.126953125 50.30078125 49.126953125 56.19921875 58.5390625 c 2,27,-1
 244.494140625 350.501953125 l 1,28,-1
 56.201171875 642.4609375 l 2,29,30
 50.2900390625 651.880859375 50.2900390625 651.880859375 50.2900390625 662.978515625 c 0,31,32
 50.2900390625 678.708984375 50.2900390625 678.708984375 61.703125 690.283203125 c 128,-1,33
 73.1162109375 701.857421875 73.1162109375 701.857421875 89.3544921875 702.591796875 c 0,34,35
 90.3095703125 702.63671875 90.3095703125 702.63671875 91.2626953125 702.63671875 c 0,36,37
 116.911132812 702.63671875 116.911132812 702.63671875 129.551757812 682.001953125 c 2,38,-1
 295.665039062 419.627929688 l 1,39,-1
 458.45703125 682.001953125 l 2,0,1
EndSplineSet
EndChar

StartChar: Y
Encoding: 89 89 79
Width: 519
VWidth: 0
Flags: W
LayerCount: 2
Fore
SplineSet
22.421875 690.571289062 m 0,0,1
 34.42578125 702.575195312 34.42578125 702.575195312 52.080078125 702.575195312 c 0,2,3
 75.130859375 701.80078125 75.130859375 701.80078125 86.54296875 682.63671875 c 2,4,-1
 256.815429688 419.716796875 l 1,5,-1
 430.293945312 682.635742188 l 2,6,7
 443.032226562 702.578125 443.032226562 702.578125 468.028320312 702.578125 c 0,8,9
 468.770507812 702.578125 468.770507812 702.578125 469.51171875 702.55078125 c 0,10,11
 485.91015625 701.974609375 485.91015625 701.974609375 497.456054688 690.384765625 c 128,-1,12
 509 678.794921875 509 678.794921875 509 662.907226562 c 0,13,14
 509 651.381835938 509 651.381835938 502.666992188 641.719726562 c 2,15,-1
 300.8203125 341.822265625 l 1,16,-1
 301.922851562 37.5791015625 l 2,17,18
 301.928710938 26.3388671875 301.928710938 26.3388671875 296.022460938 17.1689453125 c 128,-1,19
 290.145507812 8.044921875 290.145507812 8.044921875 280.03125 2.7421875 c 128,-1,20
 269.870117188 -2.759765625 269.870117188 -2.759765625 257.958007812 -2.759765625 c 0,21,22
 239.751953125 -2.759765625 239.751953125 -2.759765625 226.87109375 9.244140625 c 0,23,24
 213.989257812 20.8564453125 213.989257812 20.8564453125 213.989257812 37.2490234375 c 2,25,-1
 212.889648438 341.631835938 l 1,26,-1
 16.7509765625 641.37890625 l 2,27,28
 10.41796875 651.034179688 10.41796875 651.034179688 10.41796875 662.547851562 c 0,29,30
 10.41796875 678.958984375 10.41796875 678.958984375 22.421875 690.571289062 c 0,0,1
EndSplineSet
EndChar

StartChar: Z
Encoding: 90 90 80
Width: 564
VWidth: 0
Flags: W
LayerCount: 2
Fore
SplineSet
81.873046875 701.755859375 m 2,0,-1
 483.029296875 701.818359375 l 2,1,2
 499.990234375 701.818359375 499.990234375 701.818359375 511.99609375 690.198242188 c 128,-1,3
 524 678.581054688 524 678.581054688 524 662.161132812 c 0,4,5
 524 651.368164062 524 651.368164062 518.34765625 642.0625 c 2,6,-1
 152.331054688 77.5947265625 l 1,7,-1
 481.442382812 77.646484375 l 2,8,9
 498.893554688 77.6513671875 498.893554688 77.6513671875 510.899414062 66.0322265625 c 128,-1,10
 522.903320312 54.4140625 522.903320312 54.4140625 522.903320312 37.9951171875 c 128,-1,11
 522.903320312 21.5751953125 522.903320312 21.5751953125 510.899414062 9.95703125 c 0,12,13
 498.895507812 -2.046875 498.895507812 -2.046875 481.931640625 -2.046875 c 2,14,-1
 80.7001953125 -2.1103515625 l 2,15,16
 63.736328125 -2.109375 63.736328125 -2.109375 51.732421875 9.8955078125 c 0,17,18
 39.7294921875 21.5126953125 39.7294921875 21.5126953125 39.7294921875 37.931640625 c 0,19,20
 39.7294921875 48.7265625 39.7294921875 48.7265625 45.3828125 58.0322265625 c 2,21,-1
 411.399414062 622.5 l 1,22,-1
 82.287109375 622.44921875 l 2,23,24
 64.91015625 622.4453125 64.91015625 622.4453125 52.9052734375 634.063476562 c 128,-1,25
 40.9013671875 645.681640625 40.9013671875 645.681640625 40.9013671875 662.1015625 c 128,-1,26
 40.9013671875 678.521484375 40.9013671875 678.521484375 52.9052734375 690.137695312 c 128,-1,27
 64.9091796875 701.755859375 64.9091796875 701.755859375 81.873046875 701.755859375 c 2,0,-1
EndSplineSet
EndChar

StartChar: exclam
Encoding: 33 33 96
Width: 199
VWidth: 0
Flags: W
LayerCount: 2
Fore
SplineSet
109.39453125 85.625 m 128,-1,1
 132.3515625 85.625 132.3515625 85.625 142.24609375 75.73828125 c 128,-1,2
 152.149414062 65.841796875 152.149414062 65.841796875 152.159179688 42.8564453125 c 128,-1,3
 152.149414062 19.8486328125 152.149414062 19.8486328125 142.24609375 9.9501953125 c 128,-1,4
 132.352539062 0.0625 132.352539062 0.0625 109.391601562 0.0625 c 0,5,-1
 109.346679688 0.0625 l 0,6,7
 86.3544921875 0.0625 86.3544921875 0.0625 76.45703125 9.9609375 c 128,-1,8
 66.5595703125 19.859375 66.5595703125 19.859375 66.5595703125 42.849609375 c 128,-1,9
 66.5595703125 65.8349609375 66.5595703125 65.8349609375 76.4580078125 75.7294921875 c 128,-1,0
 86.3525390625 85.6201171875 86.3525390625 85.6201171875 109.39453125 85.625 c 128,-1,1
108.924804688 202.796875 m 0,10,11
 93.1044921875 203 93.1044921875 203 81.29296875 214.62109375 c 0,12,13
 69.8896484375 227.237304688 69.8896484375 227.237304688 69.8896484375 242.768554688 c 2,14,-1
 69.8896484375 659.85546875 l 2,15,16
 70.1044921875 676 70.1044921875 676 81.4755859375 688.258789062 c 0,17,18
 93.1044921875 700 93.1044921875 700 109.443359375 699.84765625 c 0,19,20
 125.104492188 700 125.104492188 700 137.41015625 688.258789062 c 0,21,22
 148.998046875 676.111328125 148.998046875 676.111328125 148.998046875 660.07421875 c 2,23,-1
 148.999023438 242.350585938 l 2,24,25
 149.104492188 226 149.104492188 226 137.41015625 214.3828125 c 0,26,27
 125.104492188 203 125.104492188 203 108.924804688 202.796875 c 0,10,11
EndSplineSet
EndChar

StartChar: quotedbl
Encoding: 34 34 97
Width: 285
Flags: W
LayerCount: 2
Fore
SplineSet
205.532226562 707.340820312 m 0,0,1
 221.610351562 707.13671875 221.610351562 707.13671875 233.301757812 696.051757812 c 128,-1,2
 245.190429688 684.869140625 245.190429688 684.869140625 244.999023438 668.064453125 c 2,3,-1
 244.99609375 532.6015625 l 2,4,5
 245.189453125 516.375 245.189453125 516.375 233.51171875 504.380859375 c 0,6,7
 221.606445312 492.791992188 221.606445312 492.791992188 205.78515625 492.893554688 c 0,8,9
 190.150390625 492.791992188 190.150390625 492.791992188 178.056640625 504.380859375 c 0,10,11
 166.5703125 516.373046875 166.5703125 516.373046875 166.5703125 532.108398438 c 2,12,-1
 166.573242188 667.713867188 l 2,13,14
 166.569335938 683.573242188 166.569335938 683.573242188 177.728515625 695.463867188 c 0,15,16
 188.823242188 707.134765625 188.823242188 707.134765625 205.532226562 707.340820312 c 0,0,1
78.802734375 707.340820312 m 0,17,18
 94.8798828125 707.13671875 94.8798828125 707.13671875 106.571289062 696.051757812 c 128,-1,19
 118.459960938 684.869140625 118.459960938 684.869140625 118.268554688 668.064453125 c 2,20,-1
 118.265625 532.6015625 l 2,21,22
 118.459960938 516.375 118.459960938 516.375 106.78125 504.380859375 c 0,23,24
 94.876953125 492.791992188 94.876953125 492.791992188 79.0556640625 492.893554688 c 0,25,26
 63.4208984375 492.791992188 63.4208984375 492.791992188 51.326171875 504.380859375 c 0,27,28
 39.83984375 516.373046875 39.83984375 516.373046875 39.83984375 532.108398438 c 2,29,-1
 39.8427734375 667.713867188 l 2,30,31
 39.8388671875 683.573242188 39.8388671875 683.573242188 50.998046875 695.463867188 c 0,32,33
 62.09375 707.134765625 62.09375 707.134765625 78.802734375 707.340820312 c 0,17,18
EndSplineSet
EndChar

StartChar: quotesingle
Encoding: 39 39 98
Width: 158
Flags: W
LayerCount: 2
Fore
SplineSet
78.5322265625 707.340820312 m 0,0,1
 94.6103515625 707.13671875 94.6103515625 707.13671875 106.301757812 696.051757812 c 128,-1,2
 118.190429688 684.869140625 118.190429688 684.869140625 117.999023438 668.064453125 c 2,3,-1
 117.99609375 532.6015625 l 2,4,5
 118.189453125 516.375 118.189453125 516.375 106.51171875 504.380859375 c 0,6,7
 94.6064453125 492.791992188 94.6064453125 492.791992188 78.78515625 492.893554688 c 0,8,9
 63.1513671875 492.791992188 63.1513671875 492.791992188 51.056640625 504.380859375 c 0,10,11
 39.5703125 516.373046875 39.5703125 516.373046875 39.5703125 532.108398438 c 2,12,-1
 39.5732421875 667.713867188 l 2,13,14
 39.5693359375 683.573242188 39.5693359375 683.573242188 50.728515625 695.463867188 c 0,15,16
 61.82421875 707.134765625 61.82421875 707.134765625 78.5322265625 707.340820312 c 0,0,1
EndSplineSet
EndChar

StartChar: parenleft
Encoding: 40 40 99
Width: 261
VWidth: 0
Flags: W
LayerCount: 2
Fore
SplineSet
173.7578125 700.091796875 m 0,0,1
 189.383789062 699.84375 189.383789062 699.84375 200.19140625 688.86328125 c 128,-1,2
 210.998046875 677.881835938 210.998046875 677.881835938 210.998046875 662.573242188 c 0,3,4
 210.998046875 647.908203125 210.998046875 647.908203125 201.102539062 637.182617188 c 0,5,6
 173.336914062 606.22265625 173.336914062 606.22265625 159.532226562 569.408203125 c 0,7,8
 130.250976562 491.333007812 130.250976562 491.333007812 130.250976562 352.232421875 c 0,9,10
 130.250976562 212.926757812 130.250976562 212.926757812 159.638671875 132.541992188 c 0,11,12
 173.788085938 93.8388671875 173.788085938 93.8388671875 201.665039062 61.2900390625 c 0,13,14
 211 50.7080078125 211 50.7080078125 211 36.525390625 c 0,15,16
 211 20.990234375 211 20.990234375 200.008789062 9.9990234375 c 128,-1,17
 189.016601562 -0.9931640625 189.016601562 -0.9931640625 173.481445312 -0.9931640625 c 0,18,19
 155.881835938 -0.9931640625 155.881835938 -0.9931640625 144.677734375 12.4833984375 c 0,20,21
 107.974609375 55.341796875 107.974609375 55.341796875 89.169921875 106.778320312 c 0,22,23
 55.2197265625 199.642578125 55.2197265625 199.642578125 55.2197265625 352.232421875 c 128,-1,24
 55.2197265625 504.935546875 55.2197265625 504.935546875 89.279296875 595.755859375 c 0,25,26
 108.049804688 645.807617188 108.049804688 645.807617188 145.2421875 687.278320312 c 0,27,28
 156.409179688 700.091796875 156.409179688 700.091796875 173.7578125 700.091796875 c 0,0,1
EndSplineSet
EndChar

StartChar: parenright
Encoding: 41 41 100
Width: 261
VWidth: 0
Flags: W
LayerCount: 2
Fore
SplineSet
87.4619140625 700.091796875 m 0,0,1
 104.810546875 700.091796875 104.810546875 700.091796875 115.977539062 687.278320312 c 0,2,3
 153.169921875 645.807617188 153.169921875 645.807617188 171.940429688 595.755859375 c 0,4,5
 206 504.935546875 206 504.935546875 206 352.232421875 c 128,-1,6
 206 199.642578125 206 199.642578125 172.049804688 106.778320312 c 0,7,8
 153.245117188 55.341796875 153.245117188 55.341796875 116.541992188 12.4833984375 c 0,9,10
 105.337890625 -0.9931640625 105.337890625 -0.9931640625 87.73828125 -0.9931640625 c 0,11,12
 72.203125 -0.9931640625 72.203125 -0.9931640625 61.2119140625 9.998046875 c 128,-1,13
 50.2197265625 20.990234375 50.2197265625 20.990234375 50.2197265625 36.525390625 c 0,14,15
 50.2197265625 50.7080078125 50.2197265625 50.7080078125 59.5546875 61.2900390625 c 0,16,17
 87.431640625 93.8388671875 87.431640625 93.8388671875 101.581054688 132.541992188 c 0,18,19
 130.96875 212.926757812 130.96875 212.926757812 130.96875 352.232421875 c 0,20,21
 130.96875 491.333007812 130.96875 491.333007812 101.6875 569.409179688 c 0,22,23
 87.8828125 606.22265625 87.8828125 606.22265625 60.1171875 637.182617188 c 0,24,25
 50.2216796875 647.908203125 50.2216796875 647.908203125 50.2216796875 662.573242188 c 0,26,27
 50.2216796875 677.881835938 50.2216796875 677.881835938 61.029296875 688.86328125 c 128,-1,28
 71.8359375 699.84375 71.8359375 699.84375 87.4619140625 700.091796875 c 0,0,1
EndSplineSet
EndChar

StartChar: at
Encoding: 64 64 101
Width: 663
VWidth: 0
Flags: W
LayerCount: 2
Fore
SplineSet
231.264648438 699.072265625 m 2,0,-1
 434.493164062 699.072265625 l 2,1,2
 505.198242188 699.072265625 505.198242188 699.072265625 553.034179688 650.916015625 c 128,-1,3
 600.840820312 602.787109375 600.840820312 602.787109375 600.840820312 535.061523438 c 2,4,-1
 600.897460938 238.984375 l 2,5,6
 599.763671875 186.798828125 599.763671875 186.798828125 573.612304688 157.23828125 c 0,7,8
 534.584960938 113.122070312 534.584960938 113.122070312 442.681640625 113.122070312 c 0,9,10
 375.356445312 113.122070312 375.356445312 113.122070312 348.168945312 113.801757812 c 0,11,12
 320.4453125 114.49609375 320.4453125 114.49609375 288.151367188 119.536132812 c 0,13,14
 254.75390625 124.749023438 254.75390625 124.749023438 233.456054688 136.411132812 c 0,15,16
 198.884765625 155.344726562 198.884765625 155.344726562 187.662109375 195.303710938 c 0,17,18
 180.627929688 220.353515625 180.627929688 220.353515625 180.627929688 272.154296875 c 0,19,20
 180.627929688 330.096679688 180.627929688 330.096679688 222.59375 362.202148438 c 0,21,22
 256.565429688 388.192382812 256.565429688 388.192382812 307.217773438 388.255859375 c 2,23,-1
 410.72265625 388.3671875 l 1,24,-1
 410.770507812 433.983398438 l 2,25,26
 410.78515625 448.232421875 410.78515625 448.232421875 407.223632812 460.493164062 c 128,-1,27
 403.631835938 472.860351562 403.631835938 472.860351562 401.1796875 476.903320312 c 2,28,-1
 398.146484375 481.421875 l 2,29,30
 395.84375 483.516601562 395.84375 483.516601562 392.578125 486.557617188 c 0,31,32
 389.08203125 489.8125 389.08203125 489.8125 388.33984375 490.409179688 c 128,-1,33
 387.463867188 491.115234375 387.463867188 491.115234375 384.908203125 493.017578125 c 2,34,-1
 382.864257812 494.318359375 l 2,35,36
 380.342773438 495.196289062 380.342773438 495.196289062 377.790039062 496.05078125 c 0,37,38
 375 496.984375 375 496.984375 371.05078125 497.888671875 c 0,39,40
 349.232421875 502.883789062 349.232421875 502.883789062 290.534179688 502.883789062 c 0,41,42
 273.015625 502.883789062 273.015625 502.883789062 252.211914062 502.438476562 c 0,43,44
 236.895507812 502.438476562 236.895507812 502.438476562 226.263671875 513.071289062 c 128,-1,45
 215.629882812 523.703125 215.629882812 523.703125 215.629882812 538.731445312 c 128,-1,46
 215.629882812 553.663085938 215.629882812 553.663085938 226.18359375 564.291992188 c 128,-1,47
 236.73828125 574.920898438 236.73828125 574.920898438 251.596679688 575.024414062 c 0,48,49
 276.618164062 575.559570312 276.618164062 575.559570312 295.657226562 575.559570312 c 0,50,51
 296.8046875 575.559570312 296.8046875 575.559570312 297.9296875 575.557617188 c 0,52,53
 357.486328125 575.455078125 357.486328125 575.455078125 387.247070312 568.642578125 c 0,54,55
 417.5390625 561.708007812 417.5390625 561.708007812 446.92578125 535.168945312 c 0,56,57
 483.423828125 502.185546875 483.423828125 502.185546875 483.3515625 433.907226562 c 2,58,-1
 483.092773438 188.901367188 l 1,59,60
 509.1328125 193.893554688 509.1328125 193.893554688 519.250976562 205.331054688 c 0,61,62
 527.760742188 214.950195312 527.760742188 214.950195312 528.313476562 239.9140625 c 2,63,-1
 528.256835938 535.05859375 l 2,64,65
 528.256835938 574.709960938 528.256835938 574.709960938 502.669921875 600.626953125 c 128,-1,66
 477.13671875 626.489257812 477.13671875 626.489257812 434.493164062 626.489257812 c 2,67,-1
 231.264648438 626.489257812 l 2,68,69
 188.3671875 626.489257812 188.3671875 626.489257812 160.29296875 601.534179688 c 0,70,71
 132.743164062 577.044921875 132.743164062 577.044921875 132.743164062 535.401367188 c 2,72,-1
 132.743164062 170.388671875 l 2,73,74
 132.743164062 120.5078125 132.743164062 120.5078125 162.0703125 94.8056640625 c 0,75,76
 188.579101562 71.57421875 188.579101562 71.57421875 230.923828125 71.57421875 c 2,77,-1
 566.708007812 71.5771484375 l 2,78,79
 581.735351562 71.5771484375 581.735351562 71.5771484375 592.369140625 60.9443359375 c 128,-1,80
 603.001953125 50.310546875 603.001953125 50.310546875 603.001953125 35.2822265625 c 128,-1,81
 603.001953125 20.25390625 603.001953125 20.25390625 592.369140625 9.6220703125 c 128,-1,82
 581.737304688 -1.0087890625 581.737304688 -1.0087890625 566.359375 -1.0087890625 c 2,83,-1
 230.923828125 -1.0087890625 l 2,84,85
 161.275390625 -1.0087890625 161.275390625 -1.0087890625 114.231445312 40.2197265625 c 0,86,87
 60.16015625 87.6083984375 60.16015625 87.6083984375 60.16015625 170.388671875 c 2,88,-1
 60.16015625 535.401367188 l 2,89,90
 60.16015625 606.537109375 60.16015625 606.537109375 111.225585938 652.994140625 c 0,91,92
 161.875976562 699.072265625 161.875976562 699.072265625 231.264648438 699.072265625 c 2,0,-1
410.646484375 315.783203125 m 1,93,-1
 307.302734375 315.672851562 l 2,94,95
 281.180664062 315.639648438 281.180664062 315.639648438 266.696289062 304.557617188 c 0,96,97
 253.2109375 294.240234375 253.2109375 294.240234375 253.2109375 272.154296875 c 0,98,99
 253.2109375 230.3515625 253.2109375 230.3515625 257.541992188 214.928710938 c 0,100,101
 260.514648438 204.34765625 260.514648438 204.34765625 268.319335938 200.073242188 c 0,102,103
 291.467773438 187.396484375 291.467773438 187.396484375 410.5078125 185.897460938 c 1,104,-1
 410.646484375 315.783203125 l 1,93,-1
EndSplineSet
EndChar

StartChar: bar
Encoding: 124 124 102
Width: 398
Flags: W
LayerCount: 2
Fore
SplineSet
198.532226562 698.340820312 m 0,0,1
 214.610351562 698.13671875 214.610351562 698.13671875 226.301757812 687.051757812 c 128,-1,2
 238.190429688 675.869140625 238.190429688 675.869140625 237.999023438 659.064453125 c 2,3,-1
 237.99609375 -58.3984375 l 2,4,5
 238.189453125 -74.625 238.189453125 -74.625 226.51171875 -86.619140625 c 0,6,7
 214.606445312 -98.2080078125 214.606445312 -98.2080078125 198.78515625 -98.1064453125 c 0,8,9
 183.151367188 -98.2080078125 183.151367188 -98.2080078125 171.056640625 -86.619140625 c 0,10,11
 159.5703125 -74.626953125 159.5703125 -74.626953125 159.5703125 -58.8916015625 c 2,12,-1
 159.573242188 658.713867188 l 2,13,14
 159.569335938 674.573242188 159.569335938 674.573242188 170.728515625 686.463867188 c 0,15,16
 181.82421875 698.134765625 181.82421875 698.134765625 198.532226562 698.340820312 c 0,0,1
EndSplineSet
EndChar

StartChar: grave
Encoding: 96 96 103
Width: 249
Flags: W
LayerCount: 2
Fore
SplineSet
36.2841796875 675.752929688 m 0,0,1
 47.7890625 686.969726562 47.7890625 686.969726562 63.89453125 687.396484375 c 0,2,3
 80.2080078125 687.896484375 80.2080078125 687.896484375 91.9560546875 675.87890625 c 2,4,-1
 187.740234375 580.08984375 l 2,5,6
 199.350585938 568.752929688 199.350585938 568.752929688 199.575195312 552.014648438 c 0,7,8
 199.350585938 535.401367188 199.350585938 535.401367188 188.092773438 524.286132812 c 0,9,10
 177.108398438 513.158203125 177.108398438 513.158203125 160.361328125 512.801757812 c 0,11,12
 143.760742188 513.158203125 143.760742188 513.158203125 132.633789062 524.286132812 c 2,13,-1
 36.748046875 620.174804688 l 2,14,15
 25.53125 631.38671875 25.53125 631.38671875 25.013671875 647.685546875 c 0,16,17
 24.607421875 663.784179688 24.607421875 663.784179688 36.2841796875 675.752929688 c 0,0,1
EndSplineSet
Validated: 1
EndChar

StartChar: uni02CA
Encoding: 714 714 104
Width: 249
Flags: W
LayerCount: 2
Fore
SplineSet
188.291015625 675.752929688 m 4,0,1
 199.967773438 663.784179688 199.967773438 663.784179688 199.561523438 647.685546875 c 4,2,3
 199.043945312 631.38671875 199.043945312 631.38671875 187.827148438 620.174804688 c 6,4,-1
 91.94140625 524.286132812 l 6,5,6
 80.814453125 513.158203125 80.814453125 513.158203125 64.2138671875 512.801757812 c 4,7,8
 47.466796875 513.158203125 47.466796875 513.158203125 36.482421875 524.286132812 c 4,9,10
 25.224609375 535.401367188 25.224609375 535.401367188 25 552.014648438 c 4,11,12
 25.224609375 568.752929688 25.224609375 568.752929688 36.8349609375 580.08984375 c 6,13,-1
 132.619140625 675.87890625 l 6,14,15
 144.3671875 687.896484375 144.3671875 687.896484375 160.680664062 687.396484375 c 4,16,17
 176.786132812 686.969726562 176.786132812 686.969726562 188.291015625 675.752929688 c 4,0,1
EndSplineSet
Validated: 1
EndChar

